%TF.GenerationSoftware,KiCad,Pcbnew,8.0.5*%
%TF.CreationDate,2025-05-30T00:10:04-07:00*%
%TF.ProjectId,JawariLegio_FrontPanel,4a617761-7269-44c6-9567-696f5f46726f,rev?*%
%TF.SameCoordinates,Original*%
%TF.FileFunction,Soldermask,Bot*%
%TF.FilePolarity,Negative*%
%FSLAX46Y46*%
G04 Gerber Fmt 4.6, Leading zero omitted, Abs format (unit mm)*
G04 Created by KiCad (PCBNEW 8.0.5) date 2025-05-30 00:10:04*
%MOMM*%
%LPD*%
G01*
G04 APERTURE LIST*
%ADD10C,0.088194*%
G04 APERTURE END LIST*
D10*
X45259760Y-99552595D02*
X45431212Y-99565633D01*
X45600171Y-99587103D01*
X45766426Y-99616793D01*
X45929763Y-99654491D01*
X46089971Y-99699985D01*
X46246838Y-99753063D01*
X46400151Y-99813512D01*
X46549699Y-99881122D01*
X46695269Y-99955678D01*
X46836649Y-100036970D01*
X46973627Y-100124786D01*
X47105992Y-100218912D01*
X47233530Y-100319137D01*
X47356029Y-100425249D01*
X47473279Y-100537036D01*
X47585065Y-100654285D01*
X47691177Y-100776785D01*
X47791402Y-100904323D01*
X47885528Y-101036687D01*
X47973344Y-101173666D01*
X48054635Y-101315046D01*
X48129192Y-101460616D01*
X48196801Y-101610164D01*
X48257251Y-101763477D01*
X48310328Y-101920343D01*
X48355822Y-102080551D01*
X48393520Y-102243888D01*
X48423210Y-102410143D01*
X48444680Y-102579102D01*
X48457718Y-102750553D01*
X48462111Y-102924286D01*
X48457718Y-103098019D01*
X48444680Y-103269471D01*
X48423210Y-103438431D01*
X48393520Y-103604686D01*
X48355822Y-103768023D01*
X48310328Y-103928232D01*
X48257251Y-104085099D01*
X48196801Y-104238413D01*
X48129192Y-104387961D01*
X48054635Y-104533531D01*
X47973344Y-104674912D01*
X47885528Y-104811890D01*
X47791402Y-104944255D01*
X47691177Y-105071793D01*
X47585065Y-105194293D01*
X47473279Y-105311543D01*
X47356029Y-105423329D01*
X47233530Y-105529442D01*
X47105992Y-105629667D01*
X46973627Y-105723793D01*
X46836649Y-105811609D01*
X46695269Y-105892901D01*
X46549699Y-105967458D01*
X46400151Y-106035067D01*
X46246838Y-106095517D01*
X46089971Y-106148594D01*
X45929763Y-106194089D01*
X45766426Y-106231787D01*
X45600171Y-106261477D01*
X45431212Y-106282947D01*
X45259760Y-106295984D01*
X45086027Y-106300377D01*
X44912295Y-106295984D01*
X44740843Y-106282947D01*
X44571883Y-106261477D01*
X44405629Y-106231787D01*
X44242292Y-106194089D01*
X44082084Y-106148594D01*
X43925218Y-106095517D01*
X43771904Y-106035067D01*
X43622357Y-105967458D01*
X43476787Y-105892901D01*
X43335407Y-105811609D01*
X43198428Y-105723793D01*
X43066064Y-105629667D01*
X42938526Y-105529442D01*
X42816027Y-105423329D01*
X42698777Y-105311543D01*
X42586991Y-105194293D01*
X42480879Y-105071793D01*
X42380654Y-104944255D01*
X42286528Y-104811890D01*
X42198713Y-104674912D01*
X42117421Y-104533531D01*
X42042864Y-104387961D01*
X41975255Y-104238413D01*
X41914806Y-104085099D01*
X41861728Y-103928232D01*
X41816234Y-103768023D01*
X41778536Y-103604686D01*
X41748846Y-103438431D01*
X41727376Y-103269471D01*
X41714339Y-103098019D01*
X41709946Y-102924286D01*
X41714339Y-102750553D01*
X41727376Y-102579102D01*
X41748846Y-102410143D01*
X41778536Y-102243888D01*
X41816234Y-102080551D01*
X41861728Y-101920343D01*
X41914806Y-101763477D01*
X41975255Y-101610164D01*
X42042864Y-101460616D01*
X42117421Y-101315046D01*
X42198713Y-101173666D01*
X42286528Y-101036687D01*
X42380654Y-100904323D01*
X42480879Y-100776785D01*
X42586991Y-100654285D01*
X42698777Y-100537036D01*
X42816027Y-100425249D01*
X42938526Y-100319137D01*
X43066064Y-100218912D01*
X43198428Y-100124786D01*
X43335407Y-100036970D01*
X43476787Y-99955678D01*
X43622357Y-99881122D01*
X43771904Y-99813512D01*
X43925218Y-99753063D01*
X44082084Y-99699985D01*
X44242292Y-99654491D01*
X44405629Y-99616793D01*
X44571883Y-99587103D01*
X44740843Y-99565633D01*
X44912295Y-99552595D01*
X45086027Y-99548203D01*
X45259760Y-99552595D01*
X30006244Y-21338839D02*
X30063394Y-21343185D01*
X30119714Y-21350342D01*
X30175132Y-21360238D01*
X30229578Y-21372804D01*
X30282981Y-21387969D01*
X30335270Y-21405662D01*
X30386374Y-21425811D01*
X30436224Y-21448348D01*
X30484747Y-21473200D01*
X30531874Y-21500297D01*
X30577533Y-21529569D01*
X30621655Y-21560944D01*
X30664167Y-21594353D01*
X30705000Y-21629723D01*
X30744084Y-21666986D01*
X30781346Y-21706069D01*
X30816716Y-21746902D01*
X30850125Y-21789415D01*
X30881500Y-21833536D01*
X30910772Y-21879195D01*
X30937869Y-21926322D01*
X30962721Y-21974846D01*
X30985258Y-22024695D01*
X31005408Y-22075799D01*
X31023100Y-22128088D01*
X31038265Y-22181491D01*
X31050831Y-22235937D01*
X31060728Y-22291355D01*
X31067884Y-22347674D01*
X31072230Y-22404825D01*
X31073694Y-22462736D01*
X31073694Y-23415236D01*
X31072230Y-23473147D01*
X31067884Y-23530298D01*
X31060728Y-23586618D01*
X31050831Y-23642036D01*
X31038265Y-23696481D01*
X31023100Y-23749884D01*
X31005408Y-23802173D01*
X30985258Y-23853278D01*
X30962721Y-23903127D01*
X30937869Y-23951650D01*
X30910772Y-23998777D01*
X30881500Y-24044436D01*
X30850125Y-24088558D01*
X30816716Y-24131070D01*
X30781346Y-24171903D01*
X30744084Y-24210987D01*
X30705000Y-24248249D01*
X30664167Y-24283619D01*
X30621655Y-24317028D01*
X30577533Y-24348403D01*
X30531874Y-24377675D01*
X30484747Y-24404772D01*
X30436224Y-24429624D01*
X30386374Y-24452161D01*
X30335270Y-24472310D01*
X30282981Y-24490003D01*
X30229578Y-24505168D01*
X30175132Y-24517734D01*
X30119714Y-24527630D01*
X30063394Y-24534787D01*
X30006244Y-24539133D01*
X29948333Y-24540597D01*
X25760861Y-24540597D01*
X25702950Y-24539133D01*
X25645799Y-24534787D01*
X25589480Y-24527630D01*
X25534061Y-24517734D01*
X25479616Y-24505168D01*
X25426213Y-24490003D01*
X25373924Y-24472310D01*
X25322820Y-24452161D01*
X25272970Y-24429624D01*
X25224447Y-24404772D01*
X25177320Y-24377675D01*
X25131661Y-24348403D01*
X25087540Y-24317028D01*
X25045027Y-24283619D01*
X25004194Y-24248249D01*
X24965111Y-24210987D01*
X24927848Y-24171903D01*
X24892478Y-24131070D01*
X24859069Y-24088558D01*
X24827694Y-24044436D01*
X24798422Y-23998777D01*
X24771325Y-23951650D01*
X24746473Y-23903127D01*
X24723936Y-23853278D01*
X24703787Y-23802173D01*
X24686094Y-23749884D01*
X24670929Y-23696481D01*
X24658363Y-23642036D01*
X24648467Y-23586618D01*
X24641310Y-23530298D01*
X24636964Y-23473147D01*
X24635500Y-23415236D01*
X24635500Y-22462736D01*
X24636964Y-22404825D01*
X24641310Y-22347674D01*
X24648467Y-22291355D01*
X24658363Y-22235937D01*
X24670929Y-22181491D01*
X24686094Y-22128088D01*
X24703787Y-22075799D01*
X24723936Y-22024695D01*
X24746473Y-21974846D01*
X24771325Y-21926322D01*
X24798422Y-21879195D01*
X24827694Y-21833536D01*
X24859069Y-21789415D01*
X24892478Y-21746902D01*
X24927848Y-21706069D01*
X24965111Y-21666986D01*
X25004194Y-21629723D01*
X25045027Y-21594353D01*
X25087540Y-21560944D01*
X25131661Y-21529569D01*
X25177320Y-21500297D01*
X25224447Y-21473200D01*
X25272970Y-21448348D01*
X25322820Y-21425811D01*
X25373924Y-21405662D01*
X25426213Y-21387969D01*
X25479616Y-21372804D01*
X25534061Y-21360238D01*
X25589480Y-21350342D01*
X25645799Y-21343185D01*
X25702950Y-21338839D01*
X25760861Y-21337375D01*
X29948333Y-21337375D01*
X30006244Y-21338839D01*
X25567705Y-114782019D02*
X25739157Y-114795056D01*
X25908117Y-114816526D01*
X26074371Y-114846216D01*
X26237708Y-114883914D01*
X26397916Y-114929408D01*
X26554783Y-114982485D01*
X26708096Y-115042935D01*
X26857644Y-115110544D01*
X27003214Y-115185100D01*
X27144594Y-115266392D01*
X27281573Y-115354207D01*
X27413937Y-115448333D01*
X27541475Y-115548558D01*
X27663975Y-115654670D01*
X27781224Y-115766457D01*
X27893010Y-115883706D01*
X27999122Y-116006205D01*
X28099348Y-116133743D01*
X28193474Y-116266107D01*
X28281289Y-116403086D01*
X28362581Y-116544466D01*
X28437137Y-116690036D01*
X28504746Y-116839584D01*
X28565196Y-116992897D01*
X28618274Y-117149764D01*
X28663768Y-117309972D01*
X28701466Y-117473310D01*
X28731156Y-117639564D01*
X28752625Y-117808524D01*
X28765663Y-117979976D01*
X28770056Y-118153709D01*
X28765663Y-118327443D01*
X28752625Y-118498895D01*
X28731156Y-118667854D01*
X28701466Y-118834109D01*
X28663768Y-118997446D01*
X28618274Y-119157655D01*
X28565196Y-119314522D01*
X28504746Y-119467835D01*
X28437137Y-119617383D01*
X28362581Y-119762953D01*
X28281289Y-119904333D01*
X28193474Y-120041311D01*
X28099348Y-120173675D01*
X27999122Y-120301213D01*
X27893010Y-120423713D01*
X27781224Y-120540962D01*
X27663975Y-120652749D01*
X27541475Y-120758861D01*
X27413937Y-120859086D01*
X27281573Y-120953212D01*
X27144594Y-121041027D01*
X27003214Y-121122318D01*
X26857644Y-121196875D01*
X26708096Y-121264484D01*
X26554783Y-121324933D01*
X26397916Y-121378011D01*
X26237708Y-121423505D01*
X26074371Y-121461203D01*
X25908117Y-121490893D01*
X25739157Y-121512362D01*
X25567705Y-121525400D01*
X25393972Y-121529793D01*
X25220240Y-121525400D01*
X25048787Y-121512362D01*
X24879828Y-121490893D01*
X24713574Y-121461203D01*
X24550237Y-121423505D01*
X24390028Y-121378011D01*
X24233162Y-121324933D01*
X24079848Y-121264484D01*
X23930301Y-121196875D01*
X23784731Y-121122318D01*
X23643350Y-121041027D01*
X23506372Y-120953212D01*
X23374008Y-120859086D01*
X23246470Y-120758861D01*
X23123970Y-120652749D01*
X23006721Y-120540962D01*
X22894934Y-120423713D01*
X22788822Y-120301213D01*
X22688597Y-120173675D01*
X22594471Y-120041311D01*
X22506656Y-119904333D01*
X22425364Y-119762953D01*
X22350807Y-119617383D01*
X22283198Y-119467835D01*
X22222749Y-119314522D01*
X22169671Y-119157655D01*
X22124177Y-118997446D01*
X22086479Y-118834109D01*
X22056789Y-118667854D01*
X22035319Y-118498895D01*
X22022282Y-118327443D01*
X22017889Y-118153709D01*
X22022282Y-117979976D01*
X22035319Y-117808524D01*
X22056789Y-117639564D01*
X22086479Y-117473310D01*
X22124177Y-117309972D01*
X22169671Y-117149764D01*
X22222749Y-116992897D01*
X22283198Y-116839584D01*
X22350807Y-116690036D01*
X22425364Y-116544466D01*
X22506656Y-116403086D01*
X22594471Y-116266107D01*
X22688597Y-116133743D01*
X22788822Y-116006205D01*
X22894934Y-115883706D01*
X23006721Y-115766457D01*
X23123970Y-115654670D01*
X23246470Y-115548558D01*
X23374008Y-115448333D01*
X23506372Y-115354207D01*
X23643350Y-115266392D01*
X23784731Y-115185100D01*
X23930301Y-115110544D01*
X24079848Y-115042935D01*
X24233162Y-114982485D01*
X24390028Y-114929408D01*
X24550237Y-114883914D01*
X24713574Y-114846216D01*
X24879828Y-114816526D01*
X25048787Y-114795056D01*
X25220240Y-114782019D01*
X25393972Y-114777626D01*
X25567705Y-114782019D01*
X45313271Y-143823280D02*
X45370421Y-143827626D01*
X45426741Y-143834782D01*
X45482159Y-143844679D01*
X45536605Y-143857245D01*
X45590007Y-143872410D01*
X45642296Y-143890103D01*
X45693401Y-143910252D01*
X45743250Y-143932789D01*
X45791774Y-143957641D01*
X45838900Y-143984739D01*
X45884560Y-144014010D01*
X45928681Y-144045386D01*
X45971194Y-144078794D01*
X46012027Y-144114165D01*
X46051111Y-144151427D01*
X46088373Y-144190510D01*
X46123744Y-144231344D01*
X46157152Y-144273856D01*
X46188527Y-144317978D01*
X46217799Y-144363637D01*
X46244897Y-144410764D01*
X46269749Y-144459287D01*
X46292285Y-144509136D01*
X46312435Y-144560240D01*
X46330128Y-144612529D01*
X46345293Y-144665931D01*
X46357859Y-144720377D01*
X46367755Y-144775794D01*
X46374912Y-144832114D01*
X46379258Y-144889264D01*
X46380722Y-144947174D01*
X46380722Y-145899666D01*
X46379258Y-145957577D01*
X46374912Y-146014728D01*
X46367755Y-146071048D01*
X46357859Y-146126466D01*
X46345293Y-146180912D01*
X46330128Y-146234315D01*
X46312435Y-146286604D01*
X46292285Y-146337708D01*
X46269749Y-146387558D01*
X46244897Y-146436081D01*
X46217799Y-146483208D01*
X46188527Y-146528868D01*
X46157152Y-146572990D01*
X46123744Y-146615503D01*
X46088373Y-146656336D01*
X46051111Y-146695419D01*
X46012027Y-146732682D01*
X45971194Y-146768053D01*
X45928681Y-146801461D01*
X45884560Y-146832837D01*
X45838900Y-146862109D01*
X45791774Y-146889206D01*
X45743250Y-146914058D01*
X45693401Y-146936595D01*
X45642296Y-146956745D01*
X45590007Y-146974438D01*
X45536605Y-146989602D01*
X45482159Y-147002169D01*
X45426741Y-147012065D01*
X45370421Y-147019222D01*
X45313271Y-147023568D01*
X45255360Y-147025032D01*
X41067888Y-147025032D01*
X41009977Y-147023568D01*
X40952827Y-147019222D01*
X40896507Y-147012065D01*
X40841089Y-147002169D01*
X40786643Y-146989602D01*
X40733241Y-146974438D01*
X40680952Y-146956745D01*
X40629847Y-146936595D01*
X40579998Y-146914058D01*
X40531475Y-146889206D01*
X40484348Y-146862109D01*
X40438689Y-146832837D01*
X40394567Y-146801461D01*
X40352055Y-146768053D01*
X40311221Y-146732682D01*
X40272138Y-146695419D01*
X40234876Y-146656336D01*
X40199506Y-146615503D01*
X40166097Y-146572990D01*
X40134722Y-146528868D01*
X40105450Y-146483208D01*
X40078353Y-146436081D01*
X40053501Y-146387558D01*
X40030964Y-146337708D01*
X40010814Y-146286604D01*
X39993122Y-146234315D01*
X39977957Y-146180912D01*
X39965391Y-146126466D01*
X39955494Y-146071048D01*
X39948338Y-146014728D01*
X39943992Y-145957577D01*
X39942528Y-145899666D01*
X39942528Y-144947174D01*
X39943992Y-144889264D01*
X39948338Y-144832114D01*
X39955494Y-144775794D01*
X39965391Y-144720377D01*
X39977957Y-144665931D01*
X39993122Y-144612529D01*
X40010814Y-144560240D01*
X40030964Y-144509136D01*
X40053501Y-144459287D01*
X40078353Y-144410764D01*
X40105450Y-144363637D01*
X40134722Y-144317978D01*
X40166097Y-144273856D01*
X40199506Y-144231344D01*
X40234876Y-144190510D01*
X40272138Y-144151427D01*
X40311221Y-144114165D01*
X40352055Y-144078794D01*
X40394567Y-144045386D01*
X40438689Y-144014010D01*
X40484348Y-143984739D01*
X40531475Y-143957641D01*
X40579998Y-143932789D01*
X40629847Y-143910252D01*
X40680952Y-143890103D01*
X40733241Y-143872410D01*
X40786643Y-143857245D01*
X40841089Y-143844679D01*
X40896507Y-143834782D01*
X40952827Y-143827626D01*
X41009977Y-143823280D01*
X41067888Y-143821815D01*
X45255360Y-143821815D01*
X45313271Y-143823280D01*
X47259320Y-82611124D02*
X47388312Y-82620932D01*
X47515429Y-82637085D01*
X47640511Y-82659422D01*
X47763397Y-82687784D01*
X47883930Y-82722012D01*
X48001949Y-82761945D01*
X48117294Y-82807424D01*
X48229807Y-82858289D01*
X48339326Y-82914382D01*
X48445694Y-82975542D01*
X48548750Y-83041609D01*
X48648334Y-83112425D01*
X48744287Y-83187830D01*
X48836450Y-83267663D01*
X48924663Y-83351766D01*
X49008765Y-83439978D01*
X49088599Y-83532141D01*
X49164003Y-83628094D01*
X49234819Y-83727678D01*
X49300887Y-83830734D01*
X49362047Y-83937102D01*
X49418140Y-84046622D01*
X49469006Y-84159134D01*
X49514485Y-84274480D01*
X49554418Y-84392499D01*
X49588646Y-84513032D01*
X49617008Y-84635919D01*
X49639345Y-84761001D01*
X49655498Y-84888118D01*
X49665306Y-85017111D01*
X49668612Y-85147820D01*
X49665306Y-85278527D01*
X49655498Y-85407519D01*
X49639345Y-85534636D01*
X49617008Y-85659717D01*
X49588646Y-85782604D01*
X49554418Y-85903137D01*
X49514485Y-86021155D01*
X49469006Y-86136500D01*
X49418140Y-86249013D01*
X49362047Y-86358532D01*
X49300887Y-86464899D01*
X49234819Y-86567955D01*
X49164003Y-86667539D01*
X49088599Y-86763492D01*
X49008765Y-86855654D01*
X48924663Y-86943867D01*
X48836450Y-87027969D01*
X48744287Y-87107802D01*
X48648334Y-87183207D01*
X48548750Y-87254022D01*
X48445694Y-87320090D01*
X48339326Y-87381250D01*
X48229807Y-87437342D01*
X48117294Y-87488208D01*
X48001949Y-87533687D01*
X47883930Y-87573620D01*
X47763397Y-87607847D01*
X47640511Y-87636209D01*
X47515429Y-87658546D01*
X47388312Y-87674699D01*
X47259320Y-87684508D01*
X47128613Y-87687813D01*
X46997904Y-87684508D01*
X46868912Y-87674699D01*
X46741796Y-87658546D01*
X46616714Y-87636209D01*
X46493827Y-87607847D01*
X46373294Y-87573620D01*
X46255275Y-87533687D01*
X46139930Y-87488208D01*
X46027418Y-87437342D01*
X45917898Y-87381250D01*
X45811530Y-87320090D01*
X45708475Y-87254022D01*
X45608890Y-87183207D01*
X45512937Y-87107802D01*
X45420774Y-87027969D01*
X45332562Y-86943867D01*
X45248459Y-86855654D01*
X45168626Y-86763492D01*
X45093221Y-86667539D01*
X45022405Y-86567955D01*
X44956338Y-86464899D01*
X44895178Y-86358532D01*
X44839085Y-86249013D01*
X44788219Y-86136500D01*
X44742740Y-86021155D01*
X44702807Y-85903137D01*
X44668579Y-85782604D01*
X44640217Y-85659717D01*
X44617880Y-85534636D01*
X44601727Y-85407519D01*
X44591919Y-85278527D01*
X44588614Y-85147820D01*
X44591919Y-85017111D01*
X44601727Y-84888118D01*
X44617880Y-84761001D01*
X44640217Y-84635919D01*
X44668579Y-84513032D01*
X44702807Y-84392499D01*
X44742740Y-84274480D01*
X44788219Y-84159134D01*
X44839085Y-84046622D01*
X44895178Y-83937102D01*
X44956338Y-83830734D01*
X45022405Y-83727678D01*
X45093221Y-83628094D01*
X45168626Y-83532141D01*
X45248459Y-83439978D01*
X45332562Y-83351766D01*
X45420774Y-83267663D01*
X45512937Y-83187830D01*
X45608890Y-83112425D01*
X45708475Y-83041609D01*
X45811530Y-82975542D01*
X45917898Y-82914382D01*
X46027418Y-82858289D01*
X46139930Y-82807424D01*
X46255275Y-82761945D01*
X46373294Y-82722012D01*
X46493827Y-82687784D01*
X46616714Y-82659422D01*
X46741796Y-82637085D01*
X46868912Y-82620932D01*
X46997904Y-82611124D01*
X47128613Y-82607819D01*
X47259320Y-82611124D01*
X35865337Y-35467349D02*
X36050763Y-35481449D01*
X36233494Y-35504668D01*
X36413299Y-35536778D01*
X36589949Y-35577549D01*
X36763214Y-35626751D01*
X36932867Y-35684155D01*
X37098676Y-35749531D01*
X37260412Y-35822650D01*
X37417847Y-35903284D01*
X37570750Y-35991201D01*
X37718893Y-36086174D01*
X37862046Y-36187971D01*
X37999979Y-36296365D01*
X38132463Y-36411126D01*
X38259268Y-36532024D01*
X38380166Y-36658829D01*
X38494927Y-36791313D01*
X38603321Y-36929246D01*
X38705119Y-37072399D01*
X38800091Y-37220541D01*
X38888009Y-37373445D01*
X38968642Y-37530879D01*
X39041762Y-37692616D01*
X39107138Y-37858425D01*
X39164542Y-38028077D01*
X39213744Y-38201343D01*
X39254515Y-38377993D01*
X39286625Y-38557798D01*
X39309844Y-38740528D01*
X39323944Y-38925955D01*
X39328695Y-39113848D01*
X39323944Y-39301741D01*
X39309844Y-39487167D01*
X39286625Y-39669897D01*
X39254515Y-39849702D01*
X39213744Y-40026352D01*
X39164542Y-40199617D01*
X39107138Y-40369270D01*
X39041762Y-40535079D01*
X38968642Y-40696815D01*
X38888009Y-40854250D01*
X38800091Y-41007153D01*
X38705119Y-41155296D01*
X38603321Y-41298448D01*
X38494927Y-41436381D01*
X38380166Y-41568865D01*
X38259268Y-41695671D01*
X38132463Y-41816568D01*
X37999979Y-41931329D01*
X37862046Y-42039723D01*
X37718893Y-42141521D01*
X37570750Y-42236493D01*
X37417847Y-42324411D01*
X37260412Y-42405044D01*
X37098676Y-42478163D01*
X36932867Y-42543540D01*
X36763214Y-42600944D01*
X36589949Y-42650146D01*
X36413299Y-42690916D01*
X36233494Y-42723026D01*
X36050763Y-42746246D01*
X35865337Y-42760346D01*
X35677444Y-42765097D01*
X35489551Y-42760346D01*
X35304125Y-42746246D01*
X35121395Y-42723026D01*
X34941590Y-42690916D01*
X34764940Y-42650146D01*
X34591674Y-42600944D01*
X34422022Y-42543540D01*
X34256212Y-42478163D01*
X34094476Y-42405044D01*
X33937041Y-42324411D01*
X33784138Y-42236493D01*
X33635995Y-42141521D01*
X33492842Y-42039723D01*
X33354910Y-41931329D01*
X33222426Y-41816568D01*
X33095620Y-41695671D01*
X32974722Y-41568865D01*
X32859962Y-41436381D01*
X32751568Y-41298448D01*
X32649770Y-41155296D01*
X32554797Y-41007153D01*
X32466880Y-40854250D01*
X32386246Y-40696815D01*
X32313127Y-40535079D01*
X32247750Y-40369270D01*
X32190347Y-40199617D01*
X32141145Y-40026352D01*
X32100374Y-39849702D01*
X32068264Y-39669897D01*
X32045045Y-39487167D01*
X32030945Y-39301741D01*
X32026194Y-39113848D01*
X32030945Y-38925955D01*
X32045045Y-38740528D01*
X32068264Y-38557798D01*
X32100374Y-38377993D01*
X32141145Y-38201343D01*
X32190347Y-38028077D01*
X32247750Y-37858425D01*
X32313127Y-37692616D01*
X32386246Y-37530879D01*
X32466880Y-37373445D01*
X32554797Y-37220541D01*
X32649770Y-37072399D01*
X32751568Y-36929246D01*
X32859962Y-36791313D01*
X32974722Y-36658829D01*
X33095620Y-36532024D01*
X33222426Y-36411126D01*
X33354910Y-36296365D01*
X33492842Y-36187971D01*
X33635995Y-36086174D01*
X33784138Y-35991201D01*
X33937041Y-35903284D01*
X34094476Y-35822650D01*
X34256212Y-35749531D01*
X34422022Y-35684155D01*
X34591674Y-35626751D01*
X34764940Y-35577549D01*
X34941590Y-35536778D01*
X35121395Y-35504668D01*
X35304125Y-35481449D01*
X35489551Y-35467349D01*
X35677444Y-35462598D01*
X35865337Y-35467349D01*
X35911267Y-52666427D02*
X36142019Y-52683974D01*
X36369417Y-52712869D01*
X36593174Y-52752828D01*
X36813005Y-52803565D01*
X37028625Y-52864794D01*
X37239747Y-52936230D01*
X37446088Y-53017587D01*
X37647360Y-53108580D01*
X37843278Y-53208924D01*
X38033558Y-53318332D01*
X38217913Y-53436520D01*
X38396059Y-53563202D01*
X38567709Y-53698092D01*
X38732578Y-53840905D01*
X38890380Y-53991356D01*
X39040831Y-54149158D01*
X39183644Y-54314027D01*
X39318534Y-54485677D01*
X39445216Y-54663822D01*
X39563404Y-54848178D01*
X39672812Y-55038458D01*
X39773156Y-55234376D01*
X39864149Y-55435648D01*
X39945507Y-55641989D01*
X40016943Y-55853111D01*
X40078172Y-56068731D01*
X40128908Y-56288562D01*
X40168867Y-56512319D01*
X40197763Y-56739717D01*
X40215310Y-56970470D01*
X40221222Y-57204292D01*
X40215310Y-57438114D01*
X40197763Y-57668867D01*
X40168867Y-57896264D01*
X40128908Y-58120021D01*
X40078172Y-58339852D01*
X40016943Y-58555472D01*
X39945507Y-58766594D01*
X39864149Y-58972935D01*
X39773156Y-59174207D01*
X39672812Y-59370125D01*
X39563404Y-59560405D01*
X39445216Y-59744760D01*
X39318534Y-59922906D01*
X39183644Y-60094556D01*
X39040831Y-60259425D01*
X38890380Y-60417227D01*
X38732578Y-60567678D01*
X38567709Y-60710491D01*
X38396059Y-60845381D01*
X38217913Y-60972063D01*
X38033558Y-61090251D01*
X37843278Y-61199660D01*
X37647360Y-61300004D01*
X37446088Y-61390997D01*
X37239747Y-61472354D01*
X37028625Y-61543790D01*
X36813005Y-61605019D01*
X36593174Y-61655756D01*
X36369417Y-61695715D01*
X36142019Y-61724611D01*
X35911267Y-61742157D01*
X35677444Y-61748070D01*
X35443622Y-61742157D01*
X35212870Y-61724611D01*
X34985472Y-61695715D01*
X34761715Y-61655756D01*
X34541883Y-61605019D01*
X34326264Y-61543790D01*
X34115141Y-61472354D01*
X33908801Y-61390997D01*
X33707529Y-61300004D01*
X33511610Y-61199660D01*
X33321330Y-61090251D01*
X33136975Y-60972063D01*
X32958829Y-60845381D01*
X32787179Y-60710491D01*
X32622310Y-60567678D01*
X32464508Y-60417227D01*
X32314057Y-60259425D01*
X32171244Y-60094556D01*
X32036354Y-59922906D01*
X31909672Y-59744760D01*
X31791484Y-59560405D01*
X31682076Y-59370125D01*
X31581732Y-59174207D01*
X31490739Y-58972935D01*
X31409381Y-58766594D01*
X31337945Y-58555472D01*
X31276716Y-58339852D01*
X31225979Y-58120021D01*
X31186021Y-57896264D01*
X31157125Y-57668867D01*
X31139578Y-57438114D01*
X31133666Y-57204292D01*
X31139578Y-56970470D01*
X31157125Y-56739717D01*
X31186021Y-56512319D01*
X31225979Y-56288562D01*
X31276716Y-56068731D01*
X31337945Y-55853111D01*
X31409381Y-55641989D01*
X31490739Y-55435648D01*
X31581732Y-55234376D01*
X31682076Y-55038458D01*
X31791484Y-54848178D01*
X31909672Y-54663822D01*
X32036354Y-54485677D01*
X32171244Y-54314027D01*
X32314057Y-54149158D01*
X32464508Y-53991356D01*
X32622310Y-53840905D01*
X32787179Y-53698092D01*
X32958829Y-53563202D01*
X33136975Y-53436520D01*
X33321330Y-53318332D01*
X33511610Y-53208924D01*
X33707529Y-53108580D01*
X33908801Y-53017587D01*
X34115141Y-52936230D01*
X34326264Y-52864794D01*
X34541883Y-52803565D01*
X34761715Y-52752828D01*
X34985472Y-52712869D01*
X35212870Y-52683974D01*
X35443622Y-52666427D01*
X35677444Y-52660515D01*
X35911267Y-52666427D01*
X25567705Y-99552595D02*
X25739157Y-99565633D01*
X25908117Y-99587103D01*
X26074371Y-99616793D01*
X26237708Y-99654491D01*
X26397916Y-99699985D01*
X26554783Y-99753063D01*
X26708096Y-99813512D01*
X26857644Y-99881122D01*
X27003214Y-99955678D01*
X27144594Y-100036970D01*
X27281573Y-100124786D01*
X27413937Y-100218912D01*
X27541475Y-100319137D01*
X27663975Y-100425249D01*
X27781224Y-100537036D01*
X27893010Y-100654285D01*
X27999122Y-100776785D01*
X28099348Y-100904323D01*
X28193474Y-101036687D01*
X28281289Y-101173666D01*
X28362581Y-101315046D01*
X28437137Y-101460616D01*
X28504746Y-101610164D01*
X28565196Y-101763477D01*
X28618274Y-101920343D01*
X28663768Y-102080551D01*
X28701466Y-102243888D01*
X28731156Y-102410143D01*
X28752625Y-102579102D01*
X28765663Y-102750553D01*
X28770056Y-102924286D01*
X28765663Y-103098019D01*
X28752625Y-103269471D01*
X28731156Y-103438431D01*
X28701466Y-103604686D01*
X28663768Y-103768023D01*
X28618274Y-103928232D01*
X28565196Y-104085099D01*
X28504746Y-104238413D01*
X28437137Y-104387961D01*
X28362581Y-104533531D01*
X28281289Y-104674912D01*
X28193474Y-104811890D01*
X28099348Y-104944255D01*
X27999122Y-105071793D01*
X27893010Y-105194293D01*
X27781224Y-105311543D01*
X27663975Y-105423329D01*
X27541475Y-105529442D01*
X27413937Y-105629667D01*
X27281573Y-105723793D01*
X27144594Y-105811609D01*
X27003214Y-105892901D01*
X26857644Y-105967458D01*
X26708096Y-106035067D01*
X26554783Y-106095517D01*
X26397916Y-106148594D01*
X26237708Y-106194089D01*
X26074371Y-106231787D01*
X25908117Y-106261477D01*
X25739157Y-106282947D01*
X25567705Y-106295984D01*
X25393972Y-106300377D01*
X25220240Y-106295984D01*
X25048787Y-106282947D01*
X24879828Y-106261477D01*
X24713574Y-106231787D01*
X24550237Y-106194089D01*
X24390028Y-106148594D01*
X24233162Y-106095517D01*
X24079848Y-106035067D01*
X23930301Y-105967458D01*
X23784731Y-105892901D01*
X23643350Y-105811609D01*
X23506372Y-105723793D01*
X23374008Y-105629667D01*
X23246470Y-105529442D01*
X23123970Y-105423329D01*
X23006721Y-105311543D01*
X22894934Y-105194293D01*
X22788822Y-105071793D01*
X22688597Y-104944255D01*
X22594471Y-104811890D01*
X22506656Y-104674912D01*
X22425364Y-104533531D01*
X22350807Y-104387961D01*
X22283198Y-104238413D01*
X22222749Y-104085099D01*
X22169671Y-103928232D01*
X22124177Y-103768023D01*
X22086479Y-103604686D01*
X22056789Y-103438431D01*
X22035319Y-103269471D01*
X22022282Y-103098019D01*
X22017889Y-102924286D01*
X22022282Y-102750553D01*
X22035319Y-102579102D01*
X22056789Y-102410143D01*
X22086479Y-102243888D01*
X22124177Y-102080551D01*
X22169671Y-101920343D01*
X22222749Y-101763477D01*
X22283198Y-101610164D01*
X22350807Y-101460616D01*
X22425364Y-101315046D01*
X22506656Y-101173666D01*
X22594471Y-101036687D01*
X22688597Y-100904323D01*
X22788822Y-100776785D01*
X22894934Y-100654285D01*
X23006721Y-100537036D01*
X23123970Y-100425249D01*
X23246470Y-100319137D01*
X23374008Y-100218912D01*
X23506372Y-100124786D01*
X23643350Y-100036970D01*
X23784731Y-99955678D01*
X23930301Y-99881122D01*
X24079848Y-99813512D01*
X24233162Y-99753063D01*
X24390028Y-99699985D01*
X24550237Y-99654491D01*
X24713574Y-99616793D01*
X24879828Y-99587103D01*
X25048787Y-99565633D01*
X25220240Y-99552595D01*
X25393972Y-99548203D01*
X25567705Y-99552595D01*
X24348567Y-32871613D02*
X24423991Y-32877348D01*
X24498319Y-32886793D01*
X24571457Y-32899854D01*
X24643312Y-32916438D01*
X24713790Y-32936452D01*
X24782798Y-32959802D01*
X24850243Y-32986394D01*
X24916032Y-33016137D01*
X24980071Y-33048935D01*
X25042266Y-33084697D01*
X25102525Y-33123328D01*
X25160754Y-33164736D01*
X25216860Y-33208826D01*
X25270750Y-33255507D01*
X25322330Y-33304684D01*
X25371507Y-33356263D01*
X25418187Y-33410153D01*
X25462278Y-33466259D01*
X25503685Y-33524488D01*
X25542317Y-33584747D01*
X25578078Y-33646943D01*
X25610877Y-33710981D01*
X25640619Y-33776770D01*
X25667212Y-33844215D01*
X25690562Y-33913223D01*
X25710575Y-33983701D01*
X25727159Y-34055556D01*
X25740220Y-34128694D01*
X25749665Y-34203022D01*
X25755401Y-34278447D01*
X25757333Y-34354875D01*
X25755401Y-34431303D01*
X25749665Y-34506727D01*
X25740220Y-34581055D01*
X25727159Y-34654193D01*
X25710575Y-34726048D01*
X25690562Y-34796526D01*
X25667212Y-34865534D01*
X25640619Y-34932979D01*
X25610877Y-34998768D01*
X25578078Y-35062807D01*
X25542317Y-35125002D01*
X25503685Y-35185261D01*
X25462278Y-35243490D01*
X25418187Y-35299596D01*
X25371507Y-35353486D01*
X25322330Y-35405066D01*
X25270750Y-35454242D01*
X25216860Y-35500923D01*
X25160754Y-35545013D01*
X25102525Y-35586421D01*
X25042266Y-35625052D01*
X24980071Y-35660814D01*
X24916032Y-35693613D01*
X24850243Y-35723355D01*
X24782798Y-35749948D01*
X24713790Y-35773297D01*
X24643312Y-35793311D01*
X24571457Y-35809895D01*
X24498319Y-35822956D01*
X24423991Y-35832401D01*
X24348567Y-35838136D01*
X24272139Y-35840069D01*
X24195711Y-35838136D01*
X24120286Y-35832401D01*
X24045958Y-35822956D01*
X23972820Y-35809895D01*
X23900965Y-35793311D01*
X23830487Y-35773297D01*
X23761479Y-35749948D01*
X23694034Y-35723355D01*
X23628246Y-35693613D01*
X23564207Y-35660814D01*
X23502011Y-35625052D01*
X23441752Y-35586421D01*
X23383523Y-35545013D01*
X23327417Y-35500923D01*
X23273528Y-35454242D01*
X23221948Y-35405066D01*
X23172771Y-35353486D01*
X23126091Y-35299596D01*
X23082000Y-35243490D01*
X23040592Y-35185261D01*
X23001961Y-35125002D01*
X22966199Y-35062807D01*
X22933401Y-34998768D01*
X22903658Y-34932979D01*
X22877066Y-34865534D01*
X22853716Y-34796526D01*
X22833702Y-34726048D01*
X22817118Y-34654193D01*
X22804057Y-34581055D01*
X22794612Y-34506727D01*
X22788877Y-34431303D01*
X22786944Y-34354875D01*
X22788877Y-34278447D01*
X22794612Y-34203022D01*
X22804057Y-34128694D01*
X22817118Y-34055556D01*
X22833702Y-33983701D01*
X22853716Y-33913223D01*
X22877066Y-33844215D01*
X22903658Y-33776770D01*
X22933401Y-33710981D01*
X22966199Y-33646943D01*
X23001961Y-33584747D01*
X23040592Y-33524488D01*
X23082000Y-33466259D01*
X23126091Y-33410153D01*
X23172771Y-33356263D01*
X23221948Y-33304684D01*
X23273528Y-33255507D01*
X23327417Y-33208826D01*
X23383523Y-33164736D01*
X23441752Y-33123328D01*
X23502011Y-33084697D01*
X23564207Y-33048935D01*
X23628246Y-33016137D01*
X23694034Y-32986394D01*
X23761479Y-32959802D01*
X23830487Y-32936452D01*
X23900965Y-32916438D01*
X23972820Y-32899854D01*
X24045958Y-32886793D01*
X24120286Y-32877348D01*
X24195711Y-32871613D01*
X24272139Y-32869680D01*
X24348567Y-32871613D01*
X45232134Y-21338839D02*
X45289284Y-21343185D01*
X45345604Y-21350342D01*
X45401022Y-21360238D01*
X45455468Y-21372804D01*
X45508871Y-21387969D01*
X45561160Y-21405662D01*
X45612264Y-21425811D01*
X45662113Y-21448348D01*
X45710637Y-21473200D01*
X45757764Y-21500297D01*
X45803423Y-21529569D01*
X45847545Y-21560944D01*
X45890057Y-21594353D01*
X45930891Y-21629723D01*
X45969974Y-21666986D01*
X46007236Y-21706069D01*
X46042607Y-21746902D01*
X46076015Y-21789415D01*
X46107391Y-21833536D01*
X46136663Y-21879195D01*
X46163760Y-21926322D01*
X46188612Y-21974846D01*
X46211149Y-22024695D01*
X46231298Y-22075799D01*
X46248991Y-22128088D01*
X46264156Y-22181491D01*
X46276722Y-22235937D01*
X46286619Y-22291355D01*
X46293775Y-22347674D01*
X46298121Y-22404825D01*
X46299585Y-22462736D01*
X46299585Y-23415236D01*
X46298121Y-23473147D01*
X46293775Y-23530298D01*
X46286619Y-23586618D01*
X46276722Y-23642036D01*
X46264156Y-23696481D01*
X46248991Y-23749884D01*
X46231298Y-23802173D01*
X46211149Y-23853278D01*
X46188612Y-23903127D01*
X46163760Y-23951650D01*
X46136663Y-23998777D01*
X46107391Y-24044436D01*
X46076015Y-24088558D01*
X46042607Y-24131070D01*
X46007236Y-24171903D01*
X45969974Y-24210987D01*
X45930891Y-24248249D01*
X45890057Y-24283619D01*
X45847545Y-24317028D01*
X45803423Y-24348403D01*
X45757764Y-24377675D01*
X45710637Y-24404772D01*
X45662113Y-24429624D01*
X45612264Y-24452161D01*
X45561160Y-24472310D01*
X45508871Y-24490003D01*
X45455468Y-24505168D01*
X45401022Y-24517734D01*
X45345604Y-24527630D01*
X45289284Y-24534787D01*
X45232134Y-24539133D01*
X45174223Y-24540597D01*
X40986750Y-24540597D01*
X40928839Y-24539133D01*
X40871688Y-24534787D01*
X40815368Y-24527630D01*
X40759950Y-24517734D01*
X40705505Y-24505168D01*
X40652102Y-24490003D01*
X40599813Y-24472310D01*
X40548709Y-24452161D01*
X40498859Y-24429624D01*
X40450336Y-24404772D01*
X40403209Y-24377675D01*
X40357550Y-24348403D01*
X40313429Y-24317028D01*
X40270916Y-24283619D01*
X40230083Y-24248249D01*
X40191000Y-24210987D01*
X40153738Y-24171903D01*
X40118367Y-24131070D01*
X40084959Y-24088558D01*
X40053583Y-24044436D01*
X40024311Y-23998777D01*
X39997214Y-23951650D01*
X39972362Y-23903127D01*
X39949826Y-23853278D01*
X39929676Y-23802173D01*
X39911983Y-23749884D01*
X39896819Y-23696481D01*
X39884253Y-23642036D01*
X39874356Y-23586618D01*
X39867199Y-23530298D01*
X39862853Y-23473147D01*
X39861389Y-23415236D01*
X39861389Y-22462736D01*
X39862853Y-22404825D01*
X39867199Y-22347674D01*
X39874356Y-22291355D01*
X39884253Y-22235937D01*
X39896819Y-22181491D01*
X39911983Y-22128088D01*
X39929676Y-22075799D01*
X39949826Y-22024695D01*
X39972362Y-21974846D01*
X39997214Y-21926322D01*
X40024311Y-21879195D01*
X40053583Y-21833536D01*
X40084959Y-21789415D01*
X40118367Y-21746902D01*
X40153738Y-21706069D01*
X40191000Y-21666986D01*
X40230083Y-21629723D01*
X40270916Y-21594353D01*
X40313429Y-21560944D01*
X40357550Y-21529569D01*
X40403209Y-21500297D01*
X40450336Y-21473200D01*
X40498859Y-21448348D01*
X40548709Y-21425811D01*
X40599813Y-21405662D01*
X40652102Y-21387969D01*
X40705505Y-21372804D01*
X40759950Y-21360238D01*
X40815368Y-21350342D01*
X40871688Y-21343185D01*
X40928839Y-21338839D01*
X40986750Y-21337375D01*
X45174223Y-21337375D01*
X45232134Y-21338839D01*
X35886456Y-106939764D02*
X36057908Y-106952802D01*
X36226867Y-106974271D01*
X36393121Y-107003961D01*
X36556459Y-107041659D01*
X36716667Y-107087153D01*
X36873533Y-107140231D01*
X37026847Y-107200680D01*
X37176394Y-107268289D01*
X37321965Y-107342846D01*
X37463345Y-107424137D01*
X37600323Y-107511952D01*
X37732687Y-107606079D01*
X37860225Y-107706304D01*
X37982725Y-107812415D01*
X38099974Y-107924202D01*
X38211761Y-108041451D01*
X38317873Y-108163951D01*
X38418098Y-108291489D01*
X38512224Y-108423853D01*
X38600039Y-108560831D01*
X38681331Y-108702211D01*
X38755888Y-108847781D01*
X38823497Y-108997329D01*
X38883946Y-109150643D01*
X38937024Y-109307510D01*
X38982518Y-109467718D01*
X39020216Y-109631055D01*
X39049906Y-109797310D01*
X39071376Y-109966269D01*
X39084413Y-110137722D01*
X39088806Y-110311455D01*
X39084413Y-110485188D01*
X39071376Y-110656640D01*
X39049906Y-110825600D01*
X39020216Y-110991854D01*
X38982518Y-111155192D01*
X38937024Y-111315400D01*
X38883946Y-111472267D01*
X38823497Y-111625580D01*
X38755888Y-111775128D01*
X38681331Y-111920698D01*
X38600039Y-112062078D01*
X38512224Y-112199057D01*
X38418098Y-112331421D01*
X38317873Y-112458959D01*
X38211761Y-112581458D01*
X38099974Y-112698708D01*
X37982725Y-112810494D01*
X37860225Y-112916606D01*
X37732687Y-113016831D01*
X37600323Y-113110957D01*
X37463345Y-113198772D01*
X37321965Y-113280064D01*
X37176394Y-113354620D01*
X37026847Y-113422229D01*
X36873533Y-113482679D01*
X36716667Y-113535756D01*
X36556459Y-113581250D01*
X36393121Y-113618948D01*
X36226867Y-113648638D01*
X36057908Y-113670108D01*
X35886456Y-113683145D01*
X35712723Y-113687538D01*
X35538990Y-113683145D01*
X35367538Y-113670108D01*
X35198578Y-113648638D01*
X35032324Y-113618948D01*
X34868987Y-113581250D01*
X34708779Y-113535756D01*
X34551912Y-113482679D01*
X34398598Y-113422229D01*
X34249051Y-113354620D01*
X34103481Y-113280064D01*
X33962100Y-113198772D01*
X33825122Y-113110957D01*
X33692758Y-113016831D01*
X33565220Y-112916606D01*
X33442720Y-112810494D01*
X33325471Y-112698708D01*
X33213684Y-112581458D01*
X33107572Y-112458959D01*
X33007347Y-112331421D01*
X32913221Y-112199057D01*
X32825406Y-112062078D01*
X32744114Y-111920698D01*
X32669558Y-111775128D01*
X32601949Y-111625580D01*
X32541499Y-111472267D01*
X32488421Y-111315400D01*
X32442927Y-111155192D01*
X32405229Y-110991854D01*
X32375539Y-110825600D01*
X32354070Y-110656640D01*
X32341032Y-110485188D01*
X32336639Y-110311455D01*
X32341032Y-110137722D01*
X32354070Y-109966269D01*
X32375539Y-109797310D01*
X32405229Y-109631055D01*
X32442927Y-109467718D01*
X32488421Y-109307510D01*
X32541499Y-109150643D01*
X32601949Y-108997329D01*
X32669558Y-108847781D01*
X32744114Y-108702211D01*
X32825406Y-108560831D01*
X32913221Y-108423853D01*
X33007347Y-108291489D01*
X33107572Y-108163951D01*
X33213684Y-108041451D01*
X33325471Y-107924202D01*
X33442720Y-107812415D01*
X33565220Y-107706304D01*
X33692758Y-107606079D01*
X33825122Y-107511952D01*
X33962100Y-107424137D01*
X34103481Y-107342846D01*
X34249051Y-107268289D01*
X34398598Y-107200680D01*
X34551912Y-107140231D01*
X34708779Y-107087153D01*
X34868987Y-107041659D01*
X35032324Y-107003961D01*
X35198578Y-106974271D01*
X35367538Y-106952802D01*
X35538990Y-106939764D01*
X35712723Y-106935371D01*
X35886456Y-106939764D01*
X24395791Y-82628767D02*
X24524784Y-82638575D01*
X24651900Y-82654728D01*
X24776982Y-82677065D01*
X24899869Y-82705427D01*
X25020402Y-82739655D01*
X25138421Y-82779588D01*
X25253766Y-82825067D01*
X25366279Y-82875933D01*
X25475798Y-82932026D01*
X25582166Y-82993186D01*
X25685222Y-83059253D01*
X25784806Y-83130069D01*
X25880759Y-83205473D01*
X25972922Y-83285307D01*
X26061135Y-83369410D01*
X26145238Y-83457622D01*
X26225071Y-83549785D01*
X26300476Y-83645738D01*
X26371292Y-83745322D01*
X26437359Y-83848378D01*
X26498519Y-83954745D01*
X26554612Y-84064265D01*
X26605478Y-84176777D01*
X26650957Y-84292123D01*
X26690890Y-84410141D01*
X26725118Y-84530674D01*
X26753480Y-84653561D01*
X26775817Y-84778642D01*
X26791970Y-84905759D01*
X26801779Y-85034751D01*
X26805084Y-85165459D01*
X26801779Y-85296167D01*
X26791970Y-85425160D01*
X26775817Y-85552277D01*
X26753480Y-85677359D01*
X26725118Y-85800246D01*
X26690890Y-85920779D01*
X26650957Y-86038798D01*
X26605478Y-86154144D01*
X26554612Y-86266656D01*
X26498519Y-86376176D01*
X26437359Y-86482544D01*
X26371292Y-86585600D01*
X26300476Y-86685184D01*
X26225071Y-86781137D01*
X26145238Y-86873300D01*
X26061135Y-86961513D01*
X25972922Y-87045615D01*
X25880759Y-87125449D01*
X25784806Y-87200853D01*
X25685222Y-87271669D01*
X25582166Y-87337736D01*
X25475798Y-87398896D01*
X25366279Y-87454989D01*
X25253766Y-87505854D01*
X25138421Y-87551334D01*
X25020402Y-87591267D01*
X24899869Y-87625494D01*
X24776982Y-87653856D01*
X24651900Y-87676193D01*
X24524784Y-87692346D01*
X24395791Y-87702155D01*
X24265083Y-87705460D01*
X24134375Y-87702155D01*
X24005383Y-87692346D01*
X23878266Y-87676193D01*
X23753185Y-87653856D01*
X23630298Y-87625494D01*
X23509765Y-87591267D01*
X23391746Y-87551334D01*
X23276401Y-87505854D01*
X23163888Y-87454989D01*
X23054369Y-87398896D01*
X22948001Y-87337736D01*
X22844945Y-87271669D01*
X22745361Y-87200853D01*
X22649408Y-87125449D01*
X22557245Y-87045615D01*
X22469032Y-86961513D01*
X22384929Y-86873300D01*
X22305096Y-86781137D01*
X22229691Y-86685184D01*
X22158876Y-86585600D01*
X22092808Y-86482544D01*
X22031648Y-86376176D01*
X21975555Y-86266656D01*
X21924689Y-86154144D01*
X21879210Y-86038798D01*
X21839277Y-85920779D01*
X21805049Y-85800246D01*
X21776687Y-85677359D01*
X21754350Y-85552277D01*
X21738197Y-85425160D01*
X21728389Y-85296167D01*
X21725083Y-85165459D01*
X21728389Y-85034751D01*
X21738197Y-84905759D01*
X21754350Y-84778642D01*
X21776687Y-84653561D01*
X21805049Y-84530674D01*
X21839277Y-84410141D01*
X21879210Y-84292123D01*
X21924689Y-84176777D01*
X21975555Y-84064265D01*
X22031648Y-83954745D01*
X22092808Y-83848378D01*
X22158876Y-83745322D01*
X22229691Y-83645738D01*
X22305096Y-83549785D01*
X22384929Y-83457622D01*
X22469032Y-83369410D01*
X22557245Y-83285307D01*
X22649408Y-83205473D01*
X22745361Y-83130069D01*
X22844945Y-83059253D01*
X22948001Y-82993186D01*
X23054369Y-82932026D01*
X23163888Y-82875933D01*
X23276401Y-82825067D01*
X23391746Y-82779588D01*
X23509765Y-82739655D01*
X23630298Y-82705427D01*
X23753185Y-82677065D01*
X23878266Y-82654728D01*
X24005383Y-82638575D01*
X24134375Y-82628767D01*
X24265083Y-82625462D01*
X24395791Y-82628767D01*
X25567705Y-128720259D02*
X25739157Y-128733296D01*
X25908117Y-128754766D01*
X26074371Y-128784456D01*
X26237708Y-128822154D01*
X26397916Y-128867648D01*
X26554783Y-128920726D01*
X26708096Y-128981176D01*
X26857644Y-129048785D01*
X27003214Y-129123342D01*
X27144594Y-129204634D01*
X27281573Y-129292449D01*
X27413937Y-129386575D01*
X27541475Y-129486801D01*
X27663975Y-129592913D01*
X27781224Y-129704700D01*
X27893010Y-129821949D01*
X27999122Y-129944449D01*
X28099348Y-130071987D01*
X28193474Y-130204351D01*
X28281289Y-130341329D01*
X28362581Y-130482709D01*
X28437137Y-130628279D01*
X28504746Y-130777827D01*
X28565196Y-130931140D01*
X28618274Y-131088007D01*
X28663768Y-131248215D01*
X28701466Y-131411552D01*
X28731156Y-131577806D01*
X28752625Y-131746765D01*
X28765663Y-131918217D01*
X28770056Y-132091949D01*
X28765663Y-132265683D01*
X28752625Y-132437135D01*
X28731156Y-132606095D01*
X28701466Y-132772349D01*
X28663768Y-132935687D01*
X28618274Y-133095895D01*
X28565196Y-133252763D01*
X28504746Y-133406076D01*
X28437137Y-133555624D01*
X28362581Y-133701195D01*
X28281289Y-133842575D01*
X28193474Y-133979554D01*
X28099348Y-134111918D01*
X27999122Y-134239457D01*
X27893010Y-134361957D01*
X27781224Y-134479206D01*
X27663975Y-134590993D01*
X27541475Y-134697105D01*
X27413937Y-134797331D01*
X27281573Y-134891457D01*
X27144594Y-134979272D01*
X27003214Y-135060564D01*
X26857644Y-135135121D01*
X26708096Y-135202730D01*
X26554783Y-135263180D01*
X26397916Y-135316258D01*
X26237708Y-135361752D01*
X26074371Y-135399450D01*
X25908117Y-135429140D01*
X25739157Y-135450610D01*
X25567705Y-135463648D01*
X25393972Y-135468040D01*
X25220240Y-135463648D01*
X25048787Y-135450610D01*
X24879828Y-135429140D01*
X24713574Y-135399450D01*
X24550237Y-135361752D01*
X24390028Y-135316258D01*
X24233162Y-135263180D01*
X24079848Y-135202730D01*
X23930301Y-135135121D01*
X23784731Y-135060564D01*
X23643350Y-134979272D01*
X23506372Y-134891457D01*
X23374008Y-134797331D01*
X23246470Y-134697105D01*
X23123970Y-134590993D01*
X23006721Y-134479206D01*
X22894934Y-134361957D01*
X22788822Y-134239457D01*
X22688597Y-134111918D01*
X22594471Y-133979554D01*
X22506656Y-133842575D01*
X22425364Y-133701195D01*
X22350807Y-133555624D01*
X22283198Y-133406076D01*
X22222749Y-133252763D01*
X22169671Y-133095895D01*
X22124177Y-132935687D01*
X22086479Y-132772349D01*
X22056789Y-132606095D01*
X22035319Y-132437135D01*
X22022282Y-132265683D01*
X22017889Y-132091949D01*
X22022282Y-131918217D01*
X22035319Y-131746765D01*
X22056789Y-131577806D01*
X22086479Y-131411552D01*
X22124177Y-131248215D01*
X22169671Y-131088007D01*
X22222749Y-130931140D01*
X22283198Y-130777827D01*
X22350807Y-130628279D01*
X22425364Y-130482709D01*
X22506656Y-130341329D01*
X22594471Y-130204351D01*
X22688597Y-130071987D01*
X22788822Y-129944449D01*
X22894934Y-129821949D01*
X23006721Y-129704700D01*
X23123970Y-129592913D01*
X23246470Y-129486801D01*
X23374008Y-129386575D01*
X23506372Y-129292449D01*
X23643350Y-129204634D01*
X23784731Y-129123342D01*
X23930301Y-129048785D01*
X24079848Y-128981176D01*
X24233162Y-128920726D01*
X24390028Y-128867648D01*
X24550237Y-128822154D01*
X24713574Y-128784456D01*
X24879828Y-128754766D01*
X25048787Y-128733296D01*
X25220240Y-128720259D01*
X25393972Y-128715866D01*
X25567705Y-128720259D01*
X50480002Y-148499649D02*
X20000000Y-148499649D01*
X20000000Y-20000347D01*
X50480002Y-20000347D01*
X50480002Y-148499649D01*
X35861761Y-92440596D02*
X36033213Y-92453633D01*
X36202172Y-92475103D01*
X36368427Y-92504793D01*
X36531764Y-92542491D01*
X36691972Y-92587985D01*
X36848839Y-92641062D01*
X37002152Y-92701512D01*
X37151700Y-92769121D01*
X37297270Y-92843677D01*
X37438650Y-92924969D01*
X37575629Y-93012784D01*
X37707993Y-93106910D01*
X37835531Y-93207135D01*
X37958030Y-93313247D01*
X38075280Y-93425034D01*
X38187066Y-93542283D01*
X38293178Y-93664782D01*
X38393403Y-93792320D01*
X38487530Y-93924684D01*
X38575345Y-94061663D01*
X38656637Y-94203043D01*
X38731193Y-94348613D01*
X38798802Y-94498161D01*
X38859252Y-94651474D01*
X38912330Y-94808341D01*
X38957824Y-94968549D01*
X38995522Y-95131887D01*
X39025212Y-95298141D01*
X39046681Y-95467101D01*
X39059719Y-95638553D01*
X39064112Y-95812286D01*
X39059719Y-95986019D01*
X39046681Y-96157472D01*
X39025212Y-96326431D01*
X38995522Y-96492686D01*
X38957824Y-96656023D01*
X38912330Y-96816232D01*
X38859252Y-96973099D01*
X38798802Y-97126412D01*
X38731193Y-97275960D01*
X38656637Y-97421530D01*
X38575345Y-97562910D01*
X38487530Y-97699888D01*
X38393403Y-97832252D01*
X38293178Y-97959790D01*
X38187066Y-98082290D01*
X38075280Y-98199539D01*
X37958030Y-98311326D01*
X37835531Y-98417438D01*
X37707993Y-98517663D01*
X37575629Y-98611789D01*
X37438650Y-98699604D01*
X37297270Y-98780895D01*
X37151700Y-98855452D01*
X37002152Y-98923061D01*
X36848839Y-98983510D01*
X36691972Y-99036588D01*
X36531764Y-99082082D01*
X36368427Y-99119780D01*
X36202172Y-99149470D01*
X36033213Y-99170939D01*
X35861761Y-99183977D01*
X35688028Y-99188370D01*
X35514295Y-99183977D01*
X35342843Y-99170939D01*
X35173884Y-99149470D01*
X35007630Y-99119780D01*
X34844292Y-99082082D01*
X34684084Y-99036588D01*
X34527217Y-98983510D01*
X34373904Y-98923061D01*
X34224356Y-98855452D01*
X34078786Y-98780895D01*
X33937406Y-98699604D01*
X33800428Y-98611789D01*
X33668063Y-98517663D01*
X33540525Y-98417438D01*
X33418026Y-98311326D01*
X33300777Y-98199539D01*
X33188990Y-98082290D01*
X33082878Y-97959790D01*
X32982653Y-97832252D01*
X32888527Y-97699888D01*
X32800712Y-97562910D01*
X32719420Y-97421530D01*
X32644863Y-97275960D01*
X32577254Y-97126412D01*
X32516805Y-96973099D01*
X32463727Y-96816232D01*
X32418233Y-96656023D01*
X32380535Y-96492686D01*
X32350845Y-96326431D01*
X32329375Y-96157472D01*
X32316338Y-95986019D01*
X32311945Y-95812286D01*
X32316338Y-95638553D01*
X32329375Y-95467101D01*
X32350845Y-95298141D01*
X32380535Y-95131887D01*
X32418233Y-94968549D01*
X32463727Y-94808341D01*
X32516805Y-94651474D01*
X32577254Y-94498161D01*
X32644863Y-94348613D01*
X32719420Y-94203043D01*
X32800712Y-94061663D01*
X32888527Y-93924684D01*
X32982653Y-93792320D01*
X33082878Y-93664782D01*
X33188990Y-93542283D01*
X33300777Y-93425034D01*
X33418026Y-93313247D01*
X33540525Y-93207135D01*
X33668063Y-93106910D01*
X33800428Y-93012784D01*
X33937406Y-92924969D01*
X34078786Y-92843677D01*
X34224356Y-92769121D01*
X34373904Y-92701512D01*
X34527217Y-92641062D01*
X34684084Y-92587985D01*
X34844292Y-92542491D01*
X35007630Y-92504793D01*
X35173884Y-92475103D01*
X35342843Y-92453633D01*
X35514295Y-92440596D01*
X35688028Y-92436203D01*
X35861761Y-92440596D01*
X30037994Y-143844444D02*
X30095145Y-143848790D01*
X30151465Y-143855946D01*
X30206883Y-143865843D01*
X30261329Y-143878409D01*
X30314731Y-143893574D01*
X30367020Y-143911266D01*
X30418125Y-143931416D01*
X30467974Y-143953953D01*
X30516497Y-143978805D01*
X30563624Y-144005903D01*
X30609283Y-144035174D01*
X30653405Y-144066550D01*
X30695917Y-144099958D01*
X30736751Y-144135329D01*
X30775834Y-144172591D01*
X30813096Y-144211674D01*
X30848467Y-144252508D01*
X30881875Y-144295020D01*
X30913250Y-144339142D01*
X30942522Y-144384801D01*
X30969619Y-144431928D01*
X30994471Y-144480451D01*
X31017008Y-144530300D01*
X31037157Y-144581404D01*
X31054850Y-144633693D01*
X31070015Y-144687095D01*
X31082581Y-144741540D01*
X31092477Y-144796958D01*
X31099634Y-144853277D01*
X31103980Y-144910428D01*
X31105444Y-144968338D01*
X31105444Y-145920837D01*
X31103980Y-145978748D01*
X31099634Y-146035898D01*
X31092477Y-146092217D01*
X31082581Y-146147635D01*
X31070015Y-146202080D01*
X31054850Y-146255483D01*
X31037157Y-146307771D01*
X31017008Y-146358876D01*
X30994471Y-146408725D01*
X30969619Y-146457248D01*
X30942522Y-146504375D01*
X30913250Y-146550034D01*
X30881875Y-146594155D01*
X30848467Y-146636668D01*
X30813096Y-146677501D01*
X30775834Y-146716584D01*
X30736751Y-146753846D01*
X30695917Y-146789217D01*
X30653405Y-146822626D01*
X30609283Y-146854001D01*
X30563624Y-146883273D01*
X30516497Y-146910370D01*
X30467974Y-146935223D01*
X30418125Y-146957759D01*
X30367020Y-146977909D01*
X30314731Y-146995602D01*
X30261329Y-147010766D01*
X30206883Y-147023332D01*
X30151465Y-147033229D01*
X30095145Y-147040386D01*
X30037994Y-147044732D01*
X29980083Y-147046196D01*
X25792611Y-147046196D01*
X25734700Y-147044732D01*
X25677549Y-147040386D01*
X25621230Y-147033229D01*
X25565812Y-147023332D01*
X25511366Y-147010766D01*
X25457963Y-146995602D01*
X25405674Y-146977909D01*
X25354570Y-146957759D01*
X25304720Y-146935223D01*
X25256197Y-146910370D01*
X25209070Y-146883273D01*
X25163411Y-146854001D01*
X25119289Y-146822626D01*
X25076777Y-146789217D01*
X25035943Y-146753846D01*
X24996860Y-146716584D01*
X24959598Y-146677501D01*
X24924228Y-146636668D01*
X24890819Y-146594155D01*
X24859444Y-146550034D01*
X24830172Y-146504375D01*
X24803075Y-146457248D01*
X24778223Y-146408725D01*
X24755686Y-146358876D01*
X24735536Y-146307771D01*
X24717844Y-146255483D01*
X24702679Y-146202080D01*
X24690113Y-146147635D01*
X24680216Y-146092217D01*
X24673060Y-146035898D01*
X24668714Y-145978748D01*
X24667250Y-145920837D01*
X24667250Y-144968338D01*
X24668714Y-144910428D01*
X24673060Y-144853277D01*
X24680216Y-144796958D01*
X24690113Y-144741540D01*
X24702679Y-144687095D01*
X24717844Y-144633693D01*
X24735536Y-144581404D01*
X24755686Y-144530300D01*
X24778223Y-144480451D01*
X24803075Y-144431928D01*
X24830172Y-144384801D01*
X24859444Y-144339142D01*
X24890819Y-144295020D01*
X24924228Y-144252508D01*
X24959598Y-144211674D01*
X24996860Y-144172591D01*
X25035943Y-144135329D01*
X25076777Y-144099958D01*
X25119289Y-144066550D01*
X25163411Y-144035174D01*
X25209070Y-144005903D01*
X25256197Y-143978805D01*
X25304720Y-143953953D01*
X25354570Y-143931416D01*
X25405674Y-143911266D01*
X25457963Y-143893574D01*
X25511366Y-143878409D01*
X25565812Y-143865843D01*
X25621230Y-143855946D01*
X25677549Y-143848790D01*
X25734700Y-143844444D01*
X25792611Y-143842979D01*
X29980083Y-143842979D01*
X30037994Y-143844444D01*
X47215622Y-32878668D02*
X47291047Y-32884404D01*
X47365375Y-32893848D01*
X47438513Y-32906910D01*
X47510368Y-32923494D01*
X47580846Y-32943507D01*
X47649854Y-32966857D01*
X47717299Y-32993450D01*
X47783088Y-33023192D01*
X47847126Y-33055991D01*
X47909322Y-33091752D01*
X47969581Y-33130384D01*
X48027810Y-33171791D01*
X48083916Y-33215882D01*
X48137806Y-33262562D01*
X48189386Y-33311739D01*
X48238562Y-33363319D01*
X48285243Y-33417209D01*
X48329334Y-33473315D01*
X48370741Y-33531544D01*
X48409373Y-33591803D01*
X48445134Y-33653998D01*
X48477933Y-33718037D01*
X48507675Y-33783826D01*
X48534268Y-33851271D01*
X48557618Y-33920279D01*
X48577632Y-33990757D01*
X48594216Y-34062612D01*
X48607277Y-34135750D01*
X48616722Y-34210078D01*
X48622457Y-34285502D01*
X48624390Y-34361930D01*
X48622457Y-34438358D01*
X48616722Y-34513782D01*
X48607277Y-34588110D01*
X48594216Y-34661248D01*
X48577632Y-34733103D01*
X48557618Y-34803581D01*
X48534268Y-34872590D01*
X48507675Y-34940035D01*
X48477933Y-35005823D01*
X48445134Y-35069862D01*
X48409373Y-35132057D01*
X48370741Y-35192316D01*
X48329334Y-35250545D01*
X48285243Y-35306651D01*
X48238562Y-35360541D01*
X48189386Y-35412121D01*
X48137806Y-35461298D01*
X48083916Y-35507978D01*
X48027810Y-35552069D01*
X47969581Y-35593476D01*
X47909322Y-35632108D01*
X47847126Y-35667869D01*
X47783088Y-35700668D01*
X47717299Y-35730410D01*
X47649854Y-35757003D01*
X47580846Y-35780353D01*
X47510368Y-35800366D01*
X47438513Y-35816950D01*
X47365375Y-35830011D01*
X47291047Y-35839456D01*
X47215622Y-35845192D01*
X47139194Y-35847124D01*
X47062767Y-35845192D01*
X46987342Y-35839456D01*
X46913014Y-35830011D01*
X46839876Y-35816950D01*
X46768022Y-35800366D01*
X46697543Y-35780353D01*
X46628535Y-35757003D01*
X46561090Y-35730410D01*
X46495302Y-35700668D01*
X46431263Y-35667869D01*
X46369068Y-35632108D01*
X46308809Y-35593476D01*
X46250580Y-35552069D01*
X46194474Y-35507978D01*
X46140584Y-35461298D01*
X46089004Y-35412121D01*
X46039828Y-35360541D01*
X45993147Y-35306651D01*
X45949057Y-35250545D01*
X45907649Y-35192316D01*
X45869018Y-35132057D01*
X45833256Y-35069862D01*
X45800457Y-35005823D01*
X45770715Y-34940035D01*
X45744122Y-34872590D01*
X45720773Y-34803581D01*
X45700759Y-34733103D01*
X45684175Y-34661248D01*
X45671114Y-34588110D01*
X45661669Y-34513782D01*
X45655934Y-34438358D01*
X45654001Y-34361930D01*
X45655934Y-34285502D01*
X45661669Y-34210078D01*
X45671114Y-34135750D01*
X45684175Y-34062612D01*
X45700759Y-33990757D01*
X45720773Y-33920279D01*
X45744122Y-33851271D01*
X45770715Y-33783826D01*
X45800457Y-33718037D01*
X45833256Y-33653998D01*
X45869018Y-33591803D01*
X45907649Y-33531544D01*
X45949057Y-33473315D01*
X45993147Y-33417209D01*
X46039828Y-33363319D01*
X46089004Y-33311739D01*
X46140584Y-33262562D01*
X46194474Y-33215882D01*
X46250580Y-33171791D01*
X46308809Y-33130384D01*
X46369068Y-33091752D01*
X46431263Y-33055991D01*
X46495302Y-33023192D01*
X46561090Y-32993450D01*
X46628535Y-32966857D01*
X46697543Y-32943507D01*
X46768022Y-32923494D01*
X46839876Y-32906910D01*
X46913014Y-32893848D01*
X46987342Y-32884404D01*
X47062767Y-32878668D01*
X47139194Y-32876736D01*
X47215622Y-32878668D01*
X45259760Y-128720259D02*
X45431212Y-128733296D01*
X45600171Y-128754766D01*
X45766426Y-128784456D01*
X45929763Y-128822154D01*
X46089971Y-128867648D01*
X46246838Y-128920726D01*
X46400151Y-128981176D01*
X46549699Y-129048785D01*
X46695269Y-129123342D01*
X46836649Y-129204634D01*
X46973627Y-129292449D01*
X47105992Y-129386575D01*
X47233530Y-129486801D01*
X47356029Y-129592913D01*
X47473279Y-129704700D01*
X47585065Y-129821949D01*
X47691177Y-129944449D01*
X47791402Y-130071987D01*
X47885528Y-130204351D01*
X47973344Y-130341329D01*
X48054635Y-130482709D01*
X48129192Y-130628279D01*
X48196801Y-130777827D01*
X48257251Y-130931140D01*
X48310328Y-131088007D01*
X48355822Y-131248215D01*
X48393520Y-131411552D01*
X48423210Y-131577806D01*
X48444680Y-131746765D01*
X48457718Y-131918217D01*
X48462111Y-132091949D01*
X48457718Y-132265683D01*
X48444680Y-132437135D01*
X48423210Y-132606095D01*
X48393520Y-132772349D01*
X48355822Y-132935687D01*
X48310328Y-133095895D01*
X48257251Y-133252763D01*
X48196801Y-133406076D01*
X48129192Y-133555624D01*
X48054635Y-133701195D01*
X47973344Y-133842575D01*
X47885528Y-133979554D01*
X47791402Y-134111918D01*
X47691177Y-134239457D01*
X47585065Y-134361957D01*
X47473279Y-134479206D01*
X47356029Y-134590993D01*
X47233530Y-134697105D01*
X47105992Y-134797331D01*
X46973627Y-134891457D01*
X46836649Y-134979272D01*
X46695269Y-135060564D01*
X46549699Y-135135121D01*
X46400151Y-135202730D01*
X46246838Y-135263180D01*
X46089971Y-135316258D01*
X45929763Y-135361752D01*
X45766426Y-135399450D01*
X45600171Y-135429140D01*
X45431212Y-135450610D01*
X45259760Y-135463648D01*
X45086027Y-135468040D01*
X44912295Y-135463648D01*
X44740843Y-135450610D01*
X44571883Y-135429140D01*
X44405629Y-135399450D01*
X44242292Y-135361752D01*
X44082084Y-135316258D01*
X43925218Y-135263180D01*
X43771904Y-135202730D01*
X43622357Y-135135121D01*
X43476787Y-135060564D01*
X43335407Y-134979272D01*
X43198428Y-134891457D01*
X43066064Y-134797331D01*
X42938526Y-134697105D01*
X42816027Y-134590993D01*
X42698777Y-134479206D01*
X42586991Y-134361957D01*
X42480879Y-134239457D01*
X42380654Y-134111918D01*
X42286528Y-133979554D01*
X42198713Y-133842575D01*
X42117421Y-133701195D01*
X42042864Y-133555624D01*
X41975255Y-133406076D01*
X41914806Y-133252763D01*
X41861728Y-133095895D01*
X41816234Y-132935687D01*
X41778536Y-132772349D01*
X41748846Y-132606095D01*
X41727376Y-132437135D01*
X41714339Y-132265683D01*
X41709946Y-132091949D01*
X41714339Y-131918217D01*
X41727376Y-131746765D01*
X41748846Y-131577806D01*
X41778536Y-131411552D01*
X41816234Y-131248215D01*
X41861728Y-131088007D01*
X41914806Y-130931140D01*
X41975255Y-130777827D01*
X42042864Y-130628279D01*
X42117421Y-130482709D01*
X42198713Y-130341329D01*
X42286528Y-130204351D01*
X42380654Y-130071987D01*
X42480879Y-129944449D01*
X42586991Y-129821949D01*
X42698777Y-129704700D01*
X42816027Y-129592913D01*
X42938526Y-129486801D01*
X43066064Y-129386575D01*
X43198428Y-129292449D01*
X43335407Y-129204634D01*
X43476787Y-129123342D01*
X43622357Y-129048785D01*
X43771904Y-128981176D01*
X43925218Y-128920726D01*
X44082084Y-128867648D01*
X44242292Y-128822154D01*
X44405629Y-128784456D01*
X44571883Y-128754766D01*
X44740843Y-128733296D01*
X44912295Y-128720259D01*
X45086027Y-128715866D01*
X45259760Y-128720259D01*
X45259760Y-114782019D02*
X45431212Y-114795056D01*
X45600171Y-114816526D01*
X45766426Y-114846216D01*
X45929763Y-114883914D01*
X46089971Y-114929408D01*
X46246838Y-114982485D01*
X46400151Y-115042935D01*
X46549699Y-115110544D01*
X46695269Y-115185100D01*
X46836649Y-115266392D01*
X46973627Y-115354207D01*
X47105992Y-115448333D01*
X47233530Y-115548558D01*
X47356029Y-115654670D01*
X47473279Y-115766457D01*
X47585065Y-115883706D01*
X47691177Y-116006205D01*
X47791402Y-116133743D01*
X47885528Y-116266107D01*
X47973344Y-116403086D01*
X48054635Y-116544466D01*
X48129192Y-116690036D01*
X48196801Y-116839584D01*
X48257251Y-116992897D01*
X48310328Y-117149764D01*
X48355822Y-117309972D01*
X48393520Y-117473310D01*
X48423210Y-117639564D01*
X48444680Y-117808524D01*
X48457718Y-117979976D01*
X48462111Y-118153709D01*
X48457718Y-118327443D01*
X48444680Y-118498895D01*
X48423210Y-118667854D01*
X48393520Y-118834109D01*
X48355822Y-118997446D01*
X48310328Y-119157655D01*
X48257251Y-119314522D01*
X48196801Y-119467835D01*
X48129192Y-119617383D01*
X48054635Y-119762953D01*
X47973344Y-119904333D01*
X47885528Y-120041311D01*
X47791402Y-120173675D01*
X47691177Y-120301213D01*
X47585065Y-120423713D01*
X47473279Y-120540962D01*
X47356029Y-120652749D01*
X47233530Y-120758861D01*
X47105992Y-120859086D01*
X46973627Y-120953212D01*
X46836649Y-121041027D01*
X46695269Y-121122318D01*
X46549699Y-121196875D01*
X46400151Y-121264484D01*
X46246838Y-121324933D01*
X46089971Y-121378011D01*
X45929763Y-121423505D01*
X45766426Y-121461203D01*
X45600171Y-121490893D01*
X45431212Y-121512362D01*
X45259760Y-121525400D01*
X45086027Y-121529793D01*
X44912295Y-121525400D01*
X44740843Y-121512362D01*
X44571883Y-121490893D01*
X44405629Y-121461203D01*
X44242292Y-121423505D01*
X44082084Y-121378011D01*
X43925218Y-121324933D01*
X43771904Y-121264484D01*
X43622357Y-121196875D01*
X43476787Y-121122318D01*
X43335407Y-121041027D01*
X43198428Y-120953212D01*
X43066064Y-120859086D01*
X42938526Y-120758861D01*
X42816027Y-120652749D01*
X42698777Y-120540962D01*
X42586991Y-120423713D01*
X42480879Y-120301213D01*
X42380654Y-120173675D01*
X42286528Y-120041311D01*
X42198713Y-119904333D01*
X42117421Y-119762953D01*
X42042864Y-119617383D01*
X41975255Y-119467835D01*
X41914806Y-119314522D01*
X41861728Y-119157655D01*
X41816234Y-118997446D01*
X41778536Y-118834109D01*
X41748846Y-118667854D01*
X41727376Y-118498895D01*
X41714339Y-118327443D01*
X41709946Y-118153709D01*
X41714339Y-117979976D01*
X41727376Y-117808524D01*
X41748846Y-117639564D01*
X41778536Y-117473310D01*
X41816234Y-117309972D01*
X41861728Y-117149764D01*
X41914806Y-116992897D01*
X41975255Y-116839584D01*
X42042864Y-116690036D01*
X42117421Y-116544466D01*
X42198713Y-116403086D01*
X42286528Y-116266107D01*
X42380654Y-116133743D01*
X42480879Y-116006205D01*
X42586991Y-115883706D01*
X42698777Y-115766457D01*
X42816027Y-115654670D01*
X42938526Y-115548558D01*
X43066064Y-115448333D01*
X43198428Y-115354207D01*
X43335407Y-115266392D01*
X43476787Y-115185100D01*
X43622357Y-115110544D01*
X43771904Y-115042935D01*
X43925218Y-114982485D01*
X44082084Y-114929408D01*
X44242292Y-114883914D01*
X44405629Y-114846216D01*
X44571883Y-114816526D01*
X44740843Y-114795056D01*
X44912295Y-114782019D01*
X45086027Y-114777626D01*
X45259760Y-114782019D01*
X35911267Y-72993484D02*
X36142019Y-73011031D01*
X36369417Y-73039926D01*
X36593174Y-73079885D01*
X36813005Y-73130622D01*
X37028625Y-73191851D01*
X37239747Y-73263287D01*
X37446088Y-73344644D01*
X37647360Y-73435637D01*
X37843278Y-73535981D01*
X38033558Y-73645389D01*
X38217913Y-73763577D01*
X38396059Y-73890259D01*
X38567709Y-74025149D01*
X38732578Y-74167962D01*
X38890380Y-74318413D01*
X39040831Y-74476215D01*
X39183644Y-74641084D01*
X39318534Y-74812734D01*
X39445216Y-74990879D01*
X39563404Y-75175235D01*
X39672812Y-75365514D01*
X39773156Y-75561433D01*
X39864149Y-75762705D01*
X39945507Y-75969046D01*
X40016943Y-76180168D01*
X40078172Y-76395788D01*
X40128908Y-76615619D01*
X40168867Y-76839376D01*
X40197763Y-77066774D01*
X40215310Y-77297527D01*
X40221222Y-77531349D01*
X40215310Y-77765172D01*
X40197763Y-77995925D01*
X40168867Y-78223323D01*
X40128908Y-78447081D01*
X40078172Y-78666912D01*
X40016943Y-78882532D01*
X39945507Y-79093655D01*
X39864149Y-79299995D01*
X39773156Y-79501268D01*
X39672812Y-79697187D01*
X39563404Y-79887466D01*
X39445216Y-80071822D01*
X39318534Y-80249967D01*
X39183644Y-80421617D01*
X39040831Y-80586486D01*
X38890380Y-80744289D01*
X38732578Y-80894740D01*
X38567709Y-81037553D01*
X38396059Y-81172443D01*
X38217913Y-81299125D01*
X38033558Y-81417313D01*
X37843278Y-81526721D01*
X37647360Y-81627065D01*
X37446088Y-81718058D01*
X37239747Y-81799415D01*
X37028625Y-81870851D01*
X36813005Y-81932080D01*
X36593174Y-81982817D01*
X36369417Y-82022776D01*
X36142019Y-82051671D01*
X35911267Y-82069218D01*
X35677444Y-82075130D01*
X35443622Y-82069218D01*
X35212870Y-82051671D01*
X34985472Y-82022776D01*
X34761715Y-81982817D01*
X34541883Y-81932080D01*
X34326264Y-81870851D01*
X34115141Y-81799415D01*
X33908801Y-81718058D01*
X33707529Y-81627065D01*
X33511610Y-81526721D01*
X33321330Y-81417313D01*
X33136975Y-81299125D01*
X32958829Y-81172443D01*
X32787179Y-81037553D01*
X32622310Y-80894740D01*
X32464508Y-80744289D01*
X32314057Y-80586486D01*
X32171244Y-80421617D01*
X32036354Y-80249967D01*
X31909672Y-80071822D01*
X31791484Y-79887466D01*
X31682076Y-79697187D01*
X31581732Y-79501268D01*
X31490739Y-79299995D01*
X31409381Y-79093655D01*
X31337945Y-78882532D01*
X31276716Y-78666912D01*
X31225979Y-78447081D01*
X31186021Y-78223323D01*
X31157125Y-77995925D01*
X31139578Y-77765172D01*
X31133666Y-77531349D01*
X31139578Y-77297527D01*
X31157125Y-77066774D01*
X31186021Y-76839376D01*
X31225979Y-76615619D01*
X31276716Y-76395788D01*
X31337945Y-76180168D01*
X31409381Y-75969046D01*
X31490739Y-75762705D01*
X31581732Y-75561433D01*
X31682076Y-75365514D01*
X31791484Y-75175235D01*
X31909672Y-74990879D01*
X32036354Y-74812734D01*
X32171244Y-74641084D01*
X32314057Y-74476215D01*
X32464508Y-74318413D01*
X32622310Y-74167962D01*
X32787179Y-74025149D01*
X32958829Y-73890259D01*
X33136975Y-73763577D01*
X33321330Y-73645389D01*
X33511610Y-73535981D01*
X33707529Y-73435637D01*
X33908801Y-73344644D01*
X34115141Y-73263287D01*
X34326264Y-73191851D01*
X34541883Y-73130622D01*
X34761715Y-73079885D01*
X34985472Y-73039926D01*
X35212870Y-73011031D01*
X35443622Y-72993484D01*
X35677444Y-72987572D01*
X35911267Y-72993484D01*
M02*
