<?xml version="1.0" encoding="UTF-8"?>
<svg id="f_cu" xmlns="http://www.w3.org/2000/svg" width="30.48mm" height="128.5mm" viewBox="0 0 86.4 364.25">
  <defs>
    <style>
      .cls-1 {
        fill: none;
        stroke: #00a651;
        stroke-miterlimit: 10;
        stroke-width: 2px;
      }

      .cls-2 {
        fill: #231f20;
        stroke-width: 0px;
      }
    </style>
  </defs>
  <g>
    <path class="cls-2" d="M48.39,152.34c1.27-.39,2.93-1.12,1.78-2.9-2.08-.06-1.67,1.28-1.78,2.9ZM48.68,152.01s0,.03,0,.04c0-.01,0-.03,0-.04Z"/>
    <path class="cls-2" d="M63.41,165.01c3.3,1.74,9.24,7.13,12.75,3.41-1.38-4.92-8.86-3.08-12.75-3.41ZM73.48,166c3.3,1.38.95,4.35-1.84,2.93,1.72,0,2.33-2.27.84-3.13.38.05.72.11,1,.2ZM69.82,167.86c.82-.32,1.08-1.57.44-2.18,3.76.04,2.68,4.08-.6,2.24.06-.02.11-.03.16-.06Z"/>
    <path class="cls-2" d="M7.37,56.24c-2.03-.21-6.47,6.3-6.91,10.2,1.59-4.44,4.22-8.43,6.91-10.2Z"/>
    <path class="cls-2" d="M51.59,164.3c.88,1.35,1.27,2.73,3,1.59.05-2.11-1.69-1.88-3-1.59ZM52.01,164.42s-.03,0-.04,0c.01,0,.03,0,.04,0Z"/>
    <path class="cls-2" d="M44.05,151.23c.9-1.04,1.97-2.37.11-3.4-1.85.92-.84,1.97-.11,3.4ZM44.14,150.8s0,.01,0,.02c0,0-.01-.02,0-.02Z"/>
    <path class="cls-2" d="M76.29,160.13c3.78.45,6.94,6.33,9.77,9.32-1.53-3.12-5.08-7.26-7.81-9.06,3.01,1,5.56,4.49,7.81,7.22-.96-2.73-4.1-5.39-6.31-6.95,2.44.96,4.47,3.13,6.31,5.26-.83-2.5-3.94-4.51-6.13-5.6,2.4.42,4.34,1.94,6.13,3.73-.5-1.9-3.19-3.04-4.88-3.8,1.28-.53,4.83.92,4.78.25.17.3.17-1.52,0-1.22.06-.67-3.5.78-4.78.25,1.68-.76,4.38-1.9,4.88-3.8-1.79,1.79-3.73,3.31-6.13,3.73,2.18-1.09,5.3-3.1,6.13-5.6-1.85,2.12-3.87,4.3-6.31,5.26,2.2-1.56,5.36-4.22,6.31-6.95-2.25,2.72-4.81,6.22-7.82,7.22,2.74-1.8,6.29-5.95,7.82-9.06-2.52,3.62-7.26,8.57-9.77,9.82Z"/>
    <path class="cls-2" d="M.46,217.63v5.8c.99-1.64.64-3.69,0-5.8Z"/>
    <path class="cls-2" d="M58.26,173.97c2.01,3.18,4.41,10.66,9.29,9.37,1.47-4.92-6.12-7.19-9.29-9.37ZM65.47,181.21c.59-.49.59-1.37.26-2.04,3.34,2.31.01,5.63-2.29,2.29.67.33,1.54.33,2.04-.26ZM62.39,179.63c.87.13,1.72-.82,1.47-1.67,3.23,1.92.28,4.87-1.64,1.64.06.01.11.02.17.03Z"/>
    <path class="cls-2" d="M50.1,170.35c1.28-1.6-.3-2.31-1.67-3.03.02,1.58-.39,3,1.67,3.03ZM48.7,167.74s-.02,0-.03-.03c0,0,.02.02.03.03Z"/>
    <path class="cls-2" d="M3.97,56.18c-1.23,1.17-3.46,3.39-3.51,5.74.54-2.47,3.76-4.76,3.51-5.74Z"/>
    <path class="cls-2" d="M80.91,263.53c1.07.65,4.85-3.89,5.15-6.26-1.48,2.75-3.3,5.03-5.15,6.26Z"/>
    <path class="cls-2" d="M52.73,159.93c1.43.74,2.5,1.8,3.46-.04-.9-1.82-2.26-.82-3.46.04ZM53.22,159.88s0,.01-.02,0c0,0,.01,0,.02,0Z"/>
    <path class="cls-2" d="M.46,96.34v5.8c.64-2.1.99-4.16,0-5.8Z"/>
    <path class="cls-2" d="M84.43,50.73c-1.28.6.65,4.57,1.63,6.04-.34-.86,1.09-7.66-1.63-6.04Z"/>
    <path class="cls-2" d="M11.98,159.64c-4.46-.56-7.87-8.38-11.53-10.91,2.39,2.94,6.23,8.51,9.57,10.65-3.79-1.29-6.7-6.25-9.57-9.22,1.62,3.17,5.14,6.93,8.07,8.96-3.23-1.28-5.69-4.62-8.07-7.27,1.37,3.07,4.91,6.18,7.88,7.61-3.2-.56-5.59-3.06-7.88-5.59.94,2.56,4.18,4.62,6.64,5.66-2.53.13-4.47.09-6.64-2.12-.11.96,1.29,1.4,1.85,1.86-.96-.55-2.99-1.08-.97.03-1.31-1.01-1.31,2.16,0,1.15-2.02,1.12,0,.58.97.03-.57.46-1.96.9-1.85,1.86,2.17-2.21,4.11-2.25,6.64-2.12-2.45,1.04-5.7,3.1-6.64,5.66,2.29-2.52,4.68-5.03,7.88-5.59-2.97,1.43-6.52,4.55-7.88,7.61,2.38-2.65,4.83-5.99,8.07-7.27-2.93,2.02-6.43,5.79-8.07,8.95,2.88-2.97,5.78-7.93,9.57-9.22-2.04,1.12-3.84,3.46-5.59,5.73-9.3,11.69,4.42-5.44,7.55-6.49Z"/>
    <path class="cls-2" d="M84.31,263.58c.61-.63,1.89-1.44,1.75-2.55-.27.91-2.61,2.28-1.75,2.55Z"/>
    <path class="cls-2" d="M1.6,253.89c.96-3.02-.48-6.6-1.14-9.14.25,2.94,1.16,5.96,1.14,9.14Z"/>
    <path class="cls-2" d="M86.06,195.4c-3.8-1.24-3.75-10.74-6.01-14.08,2.83,3,3.51,10.16,6.01,13.34-1.49-3.54-2.99-9.49-5.15-12.89,2.92,2.85,3.57,7.35,5.15,10.88-.54-3.51-2-7.35-4.12-10.33,2.06,1.93,3.16,4.63,4.12,7.09-.07-2.56-1.8-4.98-3.44-6.96,1.22.68,2.53,1.32,3.44,2.39.47-1.89-1.95-1.88-3.13-2.93,4.14.69,2.86-.09-.46-.53,5.28.25,2.6-.21-.99-.61,1.14-.1,3.99.41,4.57-.72-1.95.35-3.82.54-5.4.21,1.31-.2,4.51-.1,5.4-1.43-4.25,1.41-6.76,1.46-9.67-.74,2.92.39,7.62-.14,9.67-1.93-3.54,1.13-7.32,2.49-10.71,1.24,3.22.25,8.32-.77,10.71-2.68-3.41,1.11-7.23,2.8-10.7,2.29,3.18-.28,8.32-1.6,10.7-3.48-3.77,1.21-8.45,3.7-12.13,2.96,3.47-.21,9.36-2.44,12.13-4.17-4.13.98-10.22,5.01-13.96,3.42,2.27,2.77,2.86,11.71,4.45,16.01-2.96-2.34-3.3-6.91-4.71-10.33-.34-4.11-17.59-11.56-7.03-12.13,5.72,4.52,16.46,4.66,21.25,1.32-7.93-9.43-15.08-6.08-21.81-10.7,6.44-4.75,13.76-1.14,21.81-10.76-4.79-3.34-15.51-3.2-21.24,1.32-10.56-.62,6.69-7.97,7.03-12.13,1.41-3.42,1.75-7.99,4.71-10.33-1.58,4.29-2.19,13.24-4.45,16.01,3.75-1.58,9.82,2.44,13.96,3.43-2.75-1.74-8.7-3.98-12.13-4.18,3.68-.74,8.36,1.75,12.13,2.96-2.39-1.88-7.51-3.2-10.7-3.48,3.47-.51,7.29,1.18,10.7,2.29-2.43-1.91-7.36-2.91-10.71-2.68,3.39-1.25,7.17.11,10.71,1.24-2.06-1.8-6.74-2.32-9.67-1.93,2.91-2.2,5.42-2.15,9.67-.74-.89-1.32-4.13-1.21-5.4-1.43,1.58-.34,3.45-.14,5.4.21-.59-1.14-3.43-.63-4.58-.72,3.59-.4,6.27-.87.99-.61,3.33-.44,4.59-1.22.45-.52,1.17-1.05,3.59-1.04,3.13-2.93-.91,1.07-2.22,1.71-3.44,2.39,1.64-1.98,3.37-4.4,3.44-6.96-.97,2.47-2.06,5.16-4.12,7.09,2.13-2.98,3.59-6.82,4.12-10.33-1.57,3.53-2.23,8.03-5.15,10.88,2.16-3.39,3.66-9.34,5.15-12.89-2.5,3.19-3.18,10.35-6.01,13.35,2.26-3.33,2.2-12.85,6.01-14.08-1.38-1.74-6.44.94-8.73,2.33,11.05-22.03-7.52-32.71-21.04-12.15-1.41-24.05-22.38-25.3-24.29.02C18.46,93.95-.11,104.69,10.95,126.69c-2.79-1.76-8.62-4.33-10.49-2.37,3.71,1.33,4.21,10.53,6.91,13.66-3.67-3.22-3.6-10.35-6.91-13.29,2.19,3.2,3.13,9.23,5.88,12.74-3.16-2.92-3.91-7.53-5.88-10.99.96,3.65,2.59,7.77,5.19,10.85-2.09-.96-3.98-2.67-5.19-4.44-.98,3.8,2.53,3.13,4.88,4.98-5.98-.7-4.69-.06.45.52-1.51-.04-4.57-.6-5.34.59,2.1-.36,4.28-.55,6.33.03-1.62.07-5.17-.26-6.33,1.07,2.56-.54,5.11-.99,7.16-.55-1.74.21-5.81.46-7.16,1.94,4.61-1.51,8.21-2.46,11.42.23-3.54-.49-8.78.61-11.42,2.46,4.02-1.13,8.51-3.24,12.47-1.78-3.81-.32-9.5,1.36-12.47,3.19,3.95-1.01,8.39-3.4,12.45-2.8-3.74.29-9.54,2.28-12.45,3.96,4.24-.92,9.66-4.29,13.89-3.44-3.9.2-10.76,3.33-13.89,4.47,4.48-.22,11.5-5.5,15.71-3.72-2.27-2.77-2.86-11.71-4.45-16.01,2.96,2.34,3.3,6.91,4.71,10.33.34,4.12,17.58,11.56,7.03,12.13-6.44-5.43-17.18-3.18-23-1.93,3.54.71,6.07,4.35,8.91,6.53,3.53,4.05,12.5.21,14.66,4.8-2.16,4.59-11.14.76-14.66,4.8-2.84,2.18-5.37,5.82-8.91,6.53,5.84,1.24,16.55,3.51,23-1.92,10.56.61-6.69,7.97-7.03,12.13-1.41,3.42-1.75,7.99-4.71,10.33,1.58-4.29,2.18-13.24,4.45-16.01-4.21,1.79-11.24-3.5-15.71-3.71,3.15,1.14,9.98,4.26,13.89,4.46-4.22.84-9.65-2.52-13.89-3.44,2.92,1.69,8.71,3.67,12.45,3.96-4.06.6-8.51-1.79-12.45-2.8,2.97,1.84,8.64,3.5,12.47,3.19-3.95,1.46-8.44-.64-12.47-1.78,2.64,1.85,7.88,2.96,11.42,2.47-3.21,2.69-6.82,1.73-11.42.22,1.36,1.49,5.38,1.73,7.16,1.95-2.05.44-4.6-.01-7.16-.55,1.16,1.32,4.71.99,6.33,1.07-2.05.57-4.23.39-6.33.03.77,1.18,3.83.62,5.34.59-5.16.59-6.44,1.22-.46.53-2.35,1.85-5.87,1.19-4.88,4.98,1.21-1.77,3.11-3.48,5.19-4.44-2.61,3.08-4.24,7.2-5.19,10.85,1.98-3.46,2.72-8.06,5.88-10.99-2.74,3.51-3.7,9.54-5.88,12.75,3.3-2.95,3.23-10.06,6.91-13.29-2.69,3.12-3.2,12.34-6.9,13.66,1.87,2,7.69-.62,10.48-2.36-11.05,22.07,7.55,32.68,21.05,12.14,1.69,24.77,22.62,24.72,24.3,0,13.53,20.57,32.08,9.88,21.05-12.14,2.27,1.38,7.39,4.1,8.73,2.32ZM76.78,193.31c.16.22.3.44.44.66-3.93-2.39-12.03-1.53-15.59-4.8,3.63,2.41,12.02,1.41,15.15,4.14ZM71.31,181.64c1.11,2.74,1.57,6.03,3.13,8.54-15.79-2.46-13.6-14.33-22.94-19.04.11-4.09,3.67-5.36,4.4-1.3,4.51,3.71,12.8,5.68,15.41,11.81ZM39.87,165.31c-2.14,4.2-4.45-1.65.02-1.18-.19.48-.13.84-.02,1.18ZM40.28,166.15c.52-4.11,1.65-2.9-2.41-2.41-1.07,2.33-3.05,5.08-5.14,2.43.17-5.07,4.35-.86,6.76-4.7.82-.98-1.93-.4-1.76-1-1.46-1.6-3.16,1.75-4.19,1.64-3.47-1.56-2.89-3.22.32-4.59,1.56,2.49,3.51,2.21,5.79,1.16-1.73-2.77-3.22-2.43-5.81-2.16-2.23-3.09-.89-4.23,2.58-3.82.18,2.97,1.52,3.24,4.02,3.96.27.23.69-.19.46-.46-.71-2.49-1-3.85-3.96-4.02-.41-3.46.73-4.82,3.82-2.58-.26,2.61-.61,4.1,2.18,5.8,1.54-3.11.56-3.82-1.03-6.11,1.56-3.47,3.22-2.89,4.6.32-2.45,1.49-2.31,3.75-1.06,5.81.81-1.43,1.38-1.05,2.19-2.01-1.57-9.16,9.08-3.03.35.2-.52,4.1-1.65,2.91,2.41,2.41,1.07-2.33,3.04-5.09,5.14-2.43-.29,5.26-4.16.68-6.76,4.7-.82.98,1.93.4,1.76,1,1.5,1.6,3.14-1.74,4.19-1.64,3.47,1.56,2.89,3.22-.32,4.6-1.56-2.49-3.53-2.2-5.79-1.16,1.73,2.77,3.24,2.42,5.81,2.16,2.23,3.09.89,4.23-2.58,3.82-.18-2.97-1.52-3.24-4.02-3.96-1.26-.22.61,1.88.02,2.02-.49,1.66,2.34,2.28,3.48,2.46.41,3.46-.72,4.82-3.82,2.58.27-2.61.61-4.09-2.18-5.8-1.52,2.88-.51,4,1.04,6.11-1.56,3.47-3.22,2.89-4.6-.32,2.49-1.56,2.2-3.52,1.16-5.79-.92,1.11-1.43,1.16-2.29,1.99,1.57,9.16-9.07,3.03-.35-.2ZM34.42,162.49c1.54-1.85,2.24-2.14,3.92-1.05-.91,1.78-1.66,1.88-3.92,1.05ZM34.42,157.28c2.26-.83,3.01-.73,3.92,1.05-1.68,1.09-2.38.8-3.92-1.05ZM39.9,155.64c-2,.1-2.46-.5-2.87-2.87,2.37.41,2.97.87,2.87,2.87ZM51.99,146.23c1.03.51,2.22.26,3.16-.45-1.7,4.61-7.44,1.29-4.31-2.48-.15,1.19.26,2.32,1.15,2.94ZM52.03,143.21s0,0,0-.01c0,0,0,.02,0,.01ZM54.62,144.7s.01,0,.02,0c0,0-.01.01-.02,0ZM53.26,144.17c-1.14-.62-1.33-2.59-.36-3.87-.29,2.23,2.06,3.56,3.81,2.21-.61,1.44-2.32,2.25-3.45,1.66ZM52.62,139.65c-1.57,2.59-4.72,5.33-2.41,8.23-.92-.27-2.64,1.39-3.33,1.16-1.61-2.54-2.12-2.38,0-4.32-.52-9.79.35-19.29,8.35-26.22,1.5,7.26,2.5,14.89-2.61,21.16ZM47.1,153.21c-.31.48-1.01.23-1.41.88-2.32-2.87,2.59-5.27,1.41-.88ZM44.18,141.72c-1.3.03-2.45-1.58-2.25-3.17.87,2.07,3.53,2.07,4.41,0,.19,1.55-.88,3.12-2.16,3.17ZM45.64,141.48s0,0,0,0c0,0,0,.02,0,0ZM42.65,141.49s-.01,0-.01-.01c0,0,0,0,.01.01ZM44.11,144.13c1.09-.06,2.04-.85,2.51-1.97.83,4.83-5.8,4.83-4.97,0,.47,1.1,1.39,1.88,2.46,1.97ZM55.7,114.61c-1.35,3.93-9.11,7.25-11.05,11.16,1.45-4.61,8.9-7.93,11.11-11.96-.01.26-.03.53-.05.8ZM50.61,120.49c2.02-1.55,3.93-3.04,4.92-4.62-.55,3.73-4.34,6.31-6.59,9.24-4.04,3.52-.22,12.47-4.78,14.65-4.63-2.06-.77-11.15-4.83-14.65-2.25-2.93-6.04-5.51-6.59-9.24,17.29,14.45,6.47,13.28,17.86,4.61ZM37.9,120.18c-2.68-2.19-5.3-3.78-5.37-6.37,2.21,4.03,9.66,7.34,11.11,11.96-1.12-2.04-3.45-3.84-5.73-5.59ZM33.05,118.49c5.57,5.92,9.87,12.8,8.19,21.39-1.52,5.13,3.48,5.66.05,9.38-4.83-1.51-.77-4.46-4.65-8.15-5.74-6.59-5.45-14.71-3.59-22.62ZM41.53,150.17c1.85,1.54,2.14,2.24,1.05,3.92-1.78-.91-1.88-1.66-1.05-3.92ZM36.24,143.21s0,0,0-.01c0,0,0,0,0,.01ZM35.67,140.73c1.65,3.48-2.6,5.08-4.1,1.78,1.76,1.35,4.1.02,3.81-2.21.09.13.19.28.29.43ZM33.65,144.7s-.01,0-.02,0c0,0,.01,0,.02,0ZM35.13,146.5c1.65.07,2.51-1.63,2.3-3.2,3.14,3.78-2.61,7.09-4.31,2.48.62.47,1.32.72,2.01.72ZM48.4,154.46c2.14-4.2,4.45,1.65-.02,1.18.19-.48.13-.84.02-1.18ZM53.85,157.28c-1.54,1.85-2.24,2.14-3.92,1.05.91-1.78,1.67-1.88,3.92-1.05ZM53.85,162.49c-2.26.83-3.01.74-3.92-1.05,1.68-1.09,2.38-.8,3.92,1.05ZM48.38,164.13c2-.1,2.46.5,2.87,2.87-2.37-.41-2.97-.87-2.87-2.87ZM52.04,173.51c-.91.59-1.34,1.76-1.19,2.96-3.14-3.77,2.61-7.08,4.31-2.48-.96-.72-2.14-.93-3.12-.48ZM54.64,175.07s0,0,0,0c0,0-.02,0,0,0ZM52.04,176.55s0,.01,0,.02c0,0,0-.02,0-.02ZM46.74,169.6c-1.85-1.54-2.14-2.24-1.05-3.92,1.78.91,1.88,1.66,1.05,3.92ZM44.09,178.05c1.3-.03,2.44,1.58,2.25,3.17-.87-2.07-3.53-2.07-4.41,0-.19-1.55.88-3.12,2.16-3.17ZM42.64,178.28s0,0,0,0c0,0,0-.02,0,0ZM45.63,178.27s.01,0,.01.01c0,0,0,0-.01-.01ZM44.16,175.64c-1.09.06-2.04.85-2.51,1.97-.83-4.83,5.8-4.83,4.97,0-.47-1.1-1.39-1.88-2.46-1.97ZM41.53,169.6c-.83-2.26-.73-3.01,1.05-3.92,1.09,1.68.8,2.38-1.05,3.92ZM37.27,171.77c1.29,1.67,1.41,2.94.16,4.7.44-2.65-2.23-4.2-4.31-2.48.9-1.97,2.07-2.5,4.15-2.22ZM36.24,176.56s0,0,0,.01c0,0-.01-.02,0-.01ZM33.65,175.06s-.01,0-.02,0c0,0,.01-.01.02,0ZM35.02,175.59c1.15.62,1.33,2.6.36,3.87.28-2.23-2.02-3.56-3.82-2.2.61-1.44,2.32-2.26,3.45-1.67ZM35.65,180.11c1.57-2.6,4.72-5.33,2.41-8.23.92.27,2.64-1.39,3.33-1.16,1.61,2.53,2.11,2.4,0,4.32.52,9.79-.35,19.29-8.35,26.22-1.5-7.26-2.5-14.89,2.61-21.16ZM32.58,205.15c1.35-3.93,9.11-7.25,11.05-11.16-1.45,4.61-8.9,7.93-11.11,11.96.01-.26.03-.53.05-.8ZM37.66,199.28c-2.02,1.55-3.94,3.04-4.92,4.62.55-3.73,4.34-6.31,6.59-9.24,4.04-3.52.22-12.47,4.78-14.65,4.63,2.06.77,11.15,4.83,14.65,2.25,2.93,6.04,5.51,6.59,9.24-17.11-14.27-6.55-13.33-17.86-4.62ZM50.38,199.58c2.68,2.19,5.3,3.78,5.38,6.37-2.21-4.03-9.65-7.34-11.11-11.96,1.12,2.04,3.45,3.84,5.73,5.59ZM55.23,201.27c-5.57-5.92-9.87-12.8-8.19-21.39,1.52-5.13-3.48-5.65-.05-9.38,4.84,1.5.76,4.46,4.65,8.15,5.74,6.59,5.46,14.71,3.59,22.62ZM52.61,179.04c-1.66-3.49,2.61-5.08,4.1-1.78-1.79-1.36-4.09-.03-3.82,2.2-.09-.13-.18-.28-.29-.42ZM57.79,167.74c-.49.97-.28,2.19.45,3.16-4.6-1.7-1.28-7.43,2.49-4.31-1.19-.15-2.32.26-2.94,1.15ZM59.32,170.39s0,0,0,0c0,0-.01-.01,0,0ZM61.25,169.7c-.47.85-.34,1.88.26,2.76-3.71-1.7-1.12-6.17,2.2-3.81-1.02-.08-1.92.28-2.46,1.06ZM60.81,167.79s0,0,.02,0c0,0-.01,0-.02,0ZM78.55,165.14c2.33,1.82,4.37,4.44,6.98,5.83-15.31,5.78-18.86-5.69-29.39-5.02-1.89-3.37.45-6.62,3.16-3.34,5.77.96,13.92-1.49,19.25,2.52ZM59.9,159.88c.05,1.08.86,2.02,1.96,2.49-4.83.83-4.83-5.8,0-4.97-1.1.47-1.91,1.41-1.96,2.49ZM62.52,161.38s0,0,.01,0c0,0,0,0-.01,0ZM63.87,159.83c.02.97.65,1.8,1.6,2.26-4.06.38-4.06-4.79,0-4.41-.93.45-1.52,1.2-1.6,2.15ZM62.52,158.38s0,0,.01,0c0,0-.01.02-.01,0ZM76.57,147.23c2.93.41,6.01,1.66,8.96,1.56-10.38,12.66-19.18,4.5-27.96,10.35-.22-.93-2.53-1.59-2.66-2.31,1.38-2.66,1.02-3.04,3.74-2.16,5.47-2.05,11.33-8.25,17.93-7.44ZM57.77,151.99c.59.92,1.83,1.35,2.96,1.19-3.78,3.14-7.08-2.61-2.49-4.31-.72.96-.93,2.14-.48,3.12ZM59.31,149.39s0,0,.01-.01c0,0,0,.02-.01.01ZM60.8,151.96s.03.01.04.02c-.02,0-.04.02-.04-.02ZM61.2,149.97c.5.83,1.5,1.26,2.51,1.16-3.33,2.35-5.89-2.13-2.19-3.82-.58.85-.72,1.81-.32,2.66ZM72.39,134.84c-1.15,8.38-10.93,10.89-16.48,15.09-.56,2.96-.99,2.17-3.99,2.17-1.11-4.93,3.48-2.89,4.73-8.1,2.84-8.26,10.01-12.07,17.79-14.42-.96,1.55-1.52,3.42-2.05,5.26ZM69.39,128.62c-2.85.38-5.77.77-7.76,1.97,3.56-3.27,11.67-2.41,15.59-4.8-1.36,2.21-4.42,2.27-7.84,2.83ZM85.09,124.38c-4.22,3.49-2.62,15.11-9.05,16.67,4.54-4.26,1.89-16.04,9.05-16.67ZM81.58,125.18c.19-.07.4-.13.59-.19-4.1,3.75-2.49,12.99-7.25,16.62,3.71-3.95,2.05-14.02,6.66-16.43ZM79.43,126.1c.21-.11.43-.22.65-.31-3.09,3.74-2.12,11.69-5.48,15.63,2.57-3.83,1.55-12.58,4.83-15.31ZM77.56,127.24c.22-.16.44-.3.66-.44-2.39,3.93-1.53,12.03-4.8,15.59,2.41-3.63,1.41-12.02,4.14-15.15ZM77.92,124.6c-2.74,3.28-11.47,2.26-15.31,4.83,3.93-3.36,11.89-2.39,15.63-5.48-.1.22-.21.44-.32.65ZM78.84,122.44c-2.41,4.61-12.48,2.94-16.43,6.66,3.63-4.76,12.87-3.16,16.62-7.25-.06.2-.12.4-.19.6ZM79.4,120.36c-2.26,5.34-12.37,3.42-16.43,7.62,1.56-6.42,13.19-4.83,16.67-9.05-.06.48-.14.96-.24,1.43ZM79.77,117.21c-.14,4.6-10.8,4.38-14.19,6.75,3.05-3.08,11.85-3.53,14.2-6.95,0,.07,0,.13,0,.2ZM79.77,115.75c-.65,4.16-10.61,4.58-13.74,7.35,3.24-3.91,11.56-3.5,13.73-7.68,0,.11,0,.22.01.33ZM73.54,118.81c-2.37.79-4.95,1.65-6.95,3.28,3.17-3.92,10.73-3.96,13.01-7.97.05,2.66-2.66,3.56-6.05,4.69ZM79.44,112.34c.04,5.39-9.54,5.13-12.71,9.06,2.38-5.72,9.01-6.86,12.35-10.91.14.61.26,1.22.37,1.85ZM78.95,109.98c-1.51,2.46-5.09,3.74-7.59,5.6,2.22-1.87,6.51-4.52,7.38-6.41.07.27.14.54.21.81ZM78.57,108.58c-.56,2.09-5.79,5.15-8.01,7.16,2.46-2.36,7.07-6.15,7.68-8.24.11.35.23.71.33,1.08ZM77.94,106.62c.52,1.84-5.08,6.37-7.51,8.71,2.37-2.79,6.74-7.11,7.23-9.49.09.25.19.51.28.77ZM76.92,104c1.84,2.72-3.63,7.15-6.27,10.48,2.36-4.66,5.34-6.08,6.27-10.48ZM74.1,108.7c-.57.74-1.22,1.59-1.94,2.65,1.5-2.89,1.87-5.78,4.41-7.63-.25,2.07-1.09,3.2-2.47,4.98ZM75.09,103.7c.35-.07.71-.1,1.05-.14-3.35,3-3.08,6.29-5.94,10.67,1.19-3.46,2.99-10.05,4.89-10.52ZM73.29,104.03c.26-.15.6-.13.89-.2-1.81,1.61-3.37,7.57-4.6,11.01.8-3.19,1.96-10.38,3.72-10.81ZM71.35,104.41c.37-.09.74-.17,1.1-.25-1.5,1.57-2.48,7.46-3.3,10.77.63-2.92.67-8.99,2.19-10.52ZM70.76,104.56c-1.2,1.7-1.35,6.74-1.86,9.59.66-2.98-1.01-8.26,1.86-9.59ZM67.66,105.54c.6-.22,1.19-.43,1.79-.61-1.84,4.91.49,11.23-3.27,16.15,1.81-4.71-3.2-12.88,1.48-15.54ZM66.05,106.3c-2.33,3.98,1.41,10.53-.4,15.24,1.32-4.55-3.76-12.47.4-15.24ZM64.51,107c.08-.1.22-.13.32-.2-2.54,3.97,1.98,10.96.21,15.73.85-4.06-3.76-12.92-.53-15.53ZM63.23,107.75c.06-.08.14-.12.22-.16-1.79,3.75,2.22,11.59,1.08,15.77.37-4.07-5.14-13.22-1.3-15.61ZM60.73,109.58c.36-.32.74-.63,1.12-.92-1.91,5.13,5.28,14.4.5,18.96,1.61-5.62-5.11-13.41-1.62-18.04ZM59.21,111.11c.14-.16.28-.31.42-.46-1.67,5.3,4.34,12.49,2.03,18.02,1.24-5.28-5.23-13.17-2.45-17.56ZM57.8,112.98c.13-.2.27-.4.4-.6-.81,4.78,4.01,11.18,3.07,16.27.31-4.6-4.94-11.67-3.47-15.67ZM56.76,114.9c.11-.24.23-.48.35-.71-.1,4.59,4.69,11.18,3.64,15.9.28-4.35-4.79-11.11-3.99-15.19ZM56.16,116.38c.04-.1.08-.2.11-.3.4,4.63,5.25,11.83,3.87,16.1,2.99-3.37,11.67-2.72,15.86-4.71-2.34,2.96-6.91,3.3-10.33,4.71-5.26,1.03-6.43,10.69-11.47,10.3-2.97-4.1,4.91-10.04,3.15-15.1-.47-3.56-2.36-7.57-1.2-10.99ZM55.75,112.43c-.72,4.21-8.81,7.7-10.84,11.84,1.73-4.88,9.11-8.01,10.79-12.56.02.24.04.48.05.72ZM55.35,109.54c1.08,5.6-9.23,9.15-10.78,14.54.76-5.94,9.57-9.17,10.77-14.59,0,.02,0,.03.01.05ZM54.91,108.02c.72,5.76-9,9.15-10.42,14.82-1.87-6.34,9.01-10.78,9.91-16.18.19.44.36.9.51,1.35ZM53.66,105.11c2.18,4.06-7.16,9.19-8.91,12.95,1.1-4.19,8.5-8.98,8.82-13.12.03.06.07.12.1.17ZM52.93,103.84c1.52,3.93-6.9,9.27-8.22,13.24.85-5.01,8.27-8.82,8.05-13.52.06.09.12.18.17.28ZM49.06,109.61c-1.66,1.87-3.46,3.9-4.38,6.32.78-4.99,7.32-8.79,7.28-13.41,1.37,2.28-.52,4.41-2.89,7.09ZM49.69,99.64c5.8,4.83-4.26,10.14-5.24,15.62-.8-6.14,4.38-10.44,5.24-15.62ZM49.33,99.26c-.08,2.89-2.54,5.78-3.78,8.65.99-2.73,3.38-7.17,3.19-9.25.2.19.39.39.59.6ZM48.31,98.23c.55,2.09-2.44,7.35-3.36,10.2.95-3.27,3.05-8.86,2.53-10.97.28.25.55.5.83.77ZM46.78,96.85c1.36,1.33-1.22,8.06-2.15,11.31.66-3.6,2.29-9.54,1.52-11.84.21.17.42.35.63.53ZM45.42,95.73c1.42,1.38-.31,7.97-1.02,11.57-.29-5.22,1.59-7.93.19-12.21.27.2.55.41.83.64ZM44.14,95.02c1.27,2.88.14,5.56,0,8.82-.14-3.25-1.27-5.94,0-8.82ZM42.85,95.75c.27-.24.57-.44.84-.65-1.4,4.28.48,6.99.19,12.21-.7-3.59-2.44-10.19-1.02-11.56ZM41.46,96.94c.15-.26.45-.41.67-.62-.76,2.3.86,8.24,1.52,11.84-.91-3.16-3.49-9.97-2.19-11.22ZM39.97,98.23c.28-.26.55-.52.83-.77-.52,2.11,1.58,7.7,2.53,10.97-.92-2.85-3.91-8.11-3.36-10.2ZM39.53,98.66c-.19,2.07,2.2,6.51,3.19,9.24-.92-2.91-5.01-6.65-3.19-9.24ZM37.35,101.05c.4-.49.81-.96,1.23-1.41.86,5.18,6.04,9.48,5.24,15.62-.78-4.99-9.24-9.56-6.47-14.21ZM36.32,102.52c-.03,4.62,6.5,8.42,7.28,13.41-1.13-4.6-9.49-8.93-7.28-13.41ZM35.34,103.9c.01-.12.12-.22.18-.33-.22,4.71,7.2,8.51,8.05,13.52-1.29-3.94-9.71-9.31-8.23-13.19ZM34.6,105.19c.01-.09.06-.17.11-.26.32,4.14,7.72,8.92,8.82,13.12-1.71-3.71-11.05-8.88-8.93-12.86ZM33.36,108.02c.15-.46.32-.91.51-1.36.91,5.4,11.78,9.83,9.91,16.17-1.42-5.67-11.14-9.06-10.42-14.82ZM32.81,110.1c.03-.2.08-.41.13-.61,1.2,5.42,10,8.65,10.77,14.59-1.56-5.19-11.12-8.79-10.9-13.98ZM32.57,111.71c1.69,4.55,9.06,7.68,10.79,12.56-2.04-4.42-11.01-7.73-10.79-12.56ZM31.51,114.9c.8,4.08-4.27,10.84-3.99,15.19-1.05-4.72,3.74-11.31,3.64-15.91.12.23.24.47.35.72ZM30.47,112.98c1.47,4.01-3.78,11.06-3.47,15.67-.94-5.09,3.88-11.49,3.07-16.27.14.2.27.4.41.6ZM29.06,111.11c2.77,4.39-3.69,12.28-2.45,17.56-2.31-5.52,3.7-12.73,2.03-18.02.14.15.29.31.42.46ZM27.54,109.58c3.49,4.63-3.23,12.42-1.62,18.04-4.79-4.56,2.41-13.84.5-18.96.39.29.76.6,1.12.92ZM25,107.69c3.92,2.43-1.61,11.54-1.25,15.67-1.15-4.18,2.87-12.02,1.08-15.77.06.04.12.07.17.1ZM23.74,106.96c3.27,2.64-1.34,11.48-.5,15.57-1.77-4.76,2.75-11.76.21-15.73.1.05.19.1.29.15ZM23.26,113.88c-.5,2.44-1.05,5.11-.64,7.66-1.81-4.71,1.94-11.27-.4-15.24,2.33,1.29,1.76,4.08,1.04,7.59ZM20.62,105.54c4.68,2.67-.33,10.83,1.48,15.54-3.76-4.92-1.43-11.23-3.27-16.15.59.18,1.19.38,1.79.61ZM18.33,104.78c1.37,2.54.69,6.27,1.05,9.37-.51-2.85-.66-7.9-1.86-9.59.27.07.54.14.81.22ZM16.92,104.41c1.53,1.54,1.56,7.59,2.19,10.52-.81-3.31-1.79-9.2-3.3-10.77.36.08.73.16,1.1.25ZM14.91,103.98c1.85.47,2.97,7.59,3.79,10.87-1.23-3.45-2.79-9.4-4.6-11.02.27.04.54.09.81.14ZM13.17,103.69c1.92.48,3.71,7.06,4.9,10.53-2.86-4.37-2.59-7.66-5.94-10.67.34.04.68.08,1.04.14ZM14.79,108.34c.36.86.77,1.85,1.32,3.01-1.75-2.74-4.07-4.51-4.41-7.63,1.67,1.25,2.22,2.55,3.08,4.63ZM10.95,104.97c.13-.33.27-.66.4-.97.93,4.41,3.91,5.82,6.27,10.48-2.41-2.77-7.21-7.61-6.67-9.51ZM10.34,106.62c.09-.26.19-.52.28-.77.49,2.37,4.86,6.7,7.23,9.49-2.43-2.35-8.03-6.88-7.52-8.71ZM10.04,107.5c.61,2.08,5.22,5.88,7.68,8.24-2.26-2.44-9.01-5.19-7.68-8.24ZM9.54,109.17c.87,1.89,5.16,4.54,7.38,6.41-2.25-2.06-7.67-3.25-7.38-6.41ZM8.84,112.34c.1-.63.23-1.24.37-1.85,3.33,4.05,9.97,5.19,12.35,10.91-3.17-3.93-12.76-3.67-12.72-9.06ZM14.38,117.87c2.52.99,5.33,2.09,7.32,4.21-3.28-3.42-12.68-2.99-13.01-7.97.76,1.82,3.1,2.74,5.69,3.76ZM8.51,115.42c2.17,4.19,10.48,3.77,13.73,7.68-3.14-2.87-13.59-3.12-13.73-7.68ZM8.5,117.21c0-.07,0-.13,0-.2,2.35,3.42,11.15,3.87,14.2,6.95-3.39-2.37-14.05-2.15-14.19-6.75ZM8.64,118.93c3.49,4.22,15.11,2.62,16.67,9.05-4.26-4.54-16.04-1.89-16.67-9.05ZM9.25,121.84c3.75,4.1,12.99,2.49,16.62,7.25-4.05-3.9-14.8-1.79-16.62-7.25ZM10.35,124.6c-.11-.22-.22-.43-.32-.65,3.74,3.09,11.69,2.12,15.63,5.48-3.83-2.57-12.58-1.55-15.31-4.83ZM4.81,131.03c-.96-2.97-1.88-5.8-3.55-6.78,4.85-.1,4.53,10.75,6.95,14.2-1.58-1.75-2.5-4.62-3.41-7.42ZM9.86,139.69c-3.57-2.33-3.12-12.9-6.67-15.31,7.16.64,4.5,12.41,9.05,16.67-.74-.43-1.54-.89-2.38-1.36ZM9.21,132.34c-.65-3-1.27-5.88-3.11-7.35,5.46,1.83,3.35,12.57,7.25,16.62-2.62-2.19-3.39-5.78-4.14-9.27ZM10.68,132.83c-.54-2.82-1.06-5.53-2.48-7.05,4.29,2.22,2.67,11.64,5.48,15.63-1.8-2.26-2.43-5.57-3-8.57ZM12.88,134.63c.38,2.85.77,5.77,1.97,7.76-3.27-3.56-2.41-11.67-4.8-15.59,2.21,1.36,2.27,4.42,2.83,7.84ZM11.49,126.46c-.15-.22-.3-.44-.44-.66,3.93,2.39,12.03,1.53,15.59,4.8-3.63-2.41-12.02-1.41-15.15-4.14ZM12.27,127.46c4.2,1.99,12.87,1.34,15.86,4.71-1.38-4.27,3.47-11.47,3.87-16.1,1.39,3.51-.6,7.63-1.09,11.3-1.74,5.07,6.04,10.91,3.19,15.08-5.04.53-6.24-9.27-11.51-10.28-3.41-1.41-7.99-1.75-10.33-4.71ZM16.96,138.12c-1.11-2.74-1.57-6.03-3.12-8.54,15.8,2.46,13.6,14.33,22.94,19.04-.11,4.09-3.67,5.36-4.4,1.3-4.52-3.72-12.8-5.67-15.41-11.81ZM30.48,152.03c.5-.97.28-2.19-.45-3.16,4.6,1.7,1.28,7.44-2.49,4.31,1.12.16,2.33-.25,2.94-1.15ZM28.95,149.38s0,0,0,0c0,0,.01.01,0,0ZM24.82,151.14c2.11.1,3.22-2.16,1.94-3.84,3.7,1.7,1.13,6.17-2.19,3.82.08,0,.17.02.25.02ZM27.47,151.96s-.02.02-.05.02c.02,0,.03-.01.05-.02ZM9.72,154.62c-2.33-1.82-4.37-4.44-6.98-5.83,15.32-5.78,18.86,5.69,29.38,5.02-.27.91,1.4,2.64,1.16,3.33-2.54,1.61-2.38,2.12-4.32,0-5.77-.96-13.92,1.49-19.25-2.52ZM28.38,159.88c-.05-1.08-.86-2.02-1.96-2.49,4.83-.83,4.83,5.8,0,4.97,1.1-.47,1.91-1.41,1.96-2.49ZM25.75,158.38s0,0-.01,0c0,0,0,0,.01,0ZM24.41,159.94c-.02-.97-.65-1.8-1.6-2.26,4.06-.38,4.06,4.78,0,4.41.93-.45,1.52-1.2,1.6-2.15ZM25.75,161.38s-.01,0-.02,0c0,0,.01-.02.02,0ZM11.71,172.54c-2.93-.41-6.01-1.66-8.96-1.56,10.03-12.45,19.21-4.61,27.96-10.34,3.28,1.89,2.91,6.01-1.07,4.47-5.48,2.06-11.31,8.24-17.93,7.44ZM30.51,167.78c-.59-.91-1.76-1.34-2.96-1.19,3.77-3.13,7.09,2.61,2.49,4.31.72-.96.93-2.14.48-3.12ZM28.97,170.37s0,0-.01.01c0,0,0-.02.01-.01ZM27.47,167.79s-.01,0-.02,0c0,0,.02,0,.02,0ZM27.08,169.8c-.5-.83-1.46-1.23-2.52-1.15,3.32-2.36,5.91,2.12,2.2,3.81.58-.85.72-1.8.32-2.66ZM15.89,184.93c1.15-8.38,10.93-10.89,16.48-15.09.56-2.96.98-2.17,3.99-2.17,1.11,4.93-3.48,2.89-4.73,8.1-2.84,8.26-10.01,12.08-17.79,14.42.96-1.55,1.52-3.42,2.05-5.25ZM18.89,191.15c2.85-.38,5.77-.77,7.76-1.97-3.56,3.27-11.67,2.41-15.6,4.8,1.36-2.21,4.42-2.27,7.84-2.83ZM1.54,195.49c-.09.03-.18.03-.28.03,3.43-2.35,3.87-11.14,6.95-14.2-2.36,3.35-2.15,13.99-6.68,14.17ZM3.2,195.38c4.2-3.5,2.61-15.11,9.04-16.67-4.54,4.25-1.89,16.02-9.04,16.67ZM6.69,194.59c-.19.07-.39.13-.59.19,4.1-3.75,2.49-12.99,7.25-16.62-3.72,3.95-2.05,14.04-6.66,16.44ZM8.85,193.67c-.21.11-.43.22-.65.32,3.1-3.74,2.12-11.69,5.48-15.63-2.57,3.83-1.55,12.58-4.83,15.31ZM10.71,192.53c-.22.16-.44.3-.66.44,2.39-3.93,1.53-12.03,4.8-15.59-2.41,3.63-1.41,12.02-4.14,15.15ZM10.35,195.17c2.73-3.28,11.48-2.26,15.31-4.83-3.93,3.36-11.89,2.39-15.63,5.48.1-.22.2-.43.31-.65ZM9.36,197.55c2.19-4.94,12.52-3.09,16.51-6.88-3.63,4.76-12.87,3.15-16.62,7.25.04-.12.07-.25.11-.37ZM8.87,199.41c2.26-5.34,12.37-3.42,16.44-7.62-1.56,6.42-13.19,4.83-16.67,9.05.06-.48.14-.95.24-1.43ZM8.5,202.55c.14-4.61,10.8-4.38,14.19-6.75-3.05,3.08-11.85,3.53-14.2,6.95,0-.07,0-.13,0-.2ZM8.5,204.01c.65-4.16,10.61-4.58,13.74-7.35-3.24,3.91-11.56,3.5-13.73,7.68,0-.11,0-.22-.01-.33ZM14.74,200.96c2.37-.79,4.95-1.65,6.95-3.28-3.17,3.92-10.73,3.96-13.01,7.97-.05-2.66,2.66-3.56,6.05-4.69ZM8.84,207.43c-.04-5.39,9.54-5.13,12.72-9.06-2.38,5.72-9.01,6.86-12.35,10.91-.14-.61-.26-1.22-.37-1.85ZM9.33,209.79c1.51-2.46,5.09-3.74,7.59-5.6-2.22,1.87-6.52,4.52-7.38,6.41-.07-.27-.14-.54-.21-.81ZM9.7,211.19c.57-2.09,5.79-5.15,8.01-7.15-2.46,2.36-7.07,6.15-7.67,8.24-.11-.35-.23-.71-.33-1.08ZM10.34,213.15c-.52-1.83,5.09-6.37,7.52-8.71-2.37,2.79-6.75,7.12-7.24,9.49-.09-.25-.19-.51-.28-.77ZM11.36,215.76c-1.84-2.72,3.63-7.15,6.27-10.48-2.36,4.66-5.34,6.08-6.27,10.48ZM14.17,211.07c.57-.74,1.22-1.59,1.94-2.65-1.5,2.89-1.87,5.78-4.41,7.63.25-2.07,1.09-3.2,2.47-4.98ZM13.18,216.07c-.35.07-.71.1-1.05.14,3.35-3,3.08-6.29,5.94-10.67-1.19,3.46-2.99,10.05-4.89,10.52ZM14.98,215.73c-.26.15-.6.13-.88.2,1.81-1.61,3.37-7.57,4.6-11.02-.79,3.19-1.96,10.39-3.72,10.81ZM16.92,215.36c-.37.09-.74.17-1.1.25,1.5-1.57,2.48-7.46,3.3-10.77-.63,2.92-.67,8.99-2.19,10.52ZM17.52,215.21c1.2-1.7,1.35-6.74,1.86-9.59-.66,2.98,1.01,8.26-1.86,9.59ZM20.62,214.22c-.6.22-1.19.43-1.79.61,1.84-4.91-.49-11.23,3.27-16.15-1.82,4.71,3.2,12.88-1.48,15.54ZM22.23,213.47c2.33-3.98-1.41-10.53.4-15.24-1.32,4.55,3.76,12.47-.4,15.24ZM23.77,212.77c-.08.1-.22.13-.32.2,2.54-3.97-1.98-10.96-.21-15.73-.85,4.06,3.76,12.92.53,15.53ZM25.05,212.02c-.06.08-.14.12-.22.16,1.79-3.75-2.22-11.59-1.08-15.77-.37,4.07,5.14,13.22,1.3,15.61ZM27.54,210.18c-.36.32-.74.63-1.12.92,1.91-5.13-5.28-14.4-.5-18.96-1.61,5.62,5.11,13.41,1.62,18.04ZM29.06,208.65c-.14.16-.28.31-.42.46,1.67-5.3-4.34-12.49-2.03-18.02-1.24,5.28,5.23,13.17,2.45,17.56ZM30.47,206.78c-.13.2-.27.4-.4.6.81-4.78-4.01-11.18-3.07-16.27-.31,4.6,4.94,11.67,3.47,15.67ZM31.51,204.87c-.11.24-.23.48-.35.72.1-4.59-4.69-11.18-3.64-15.91-.28,4.35,4.79,11.11,3.99,15.19ZM32.11,203.39c-.04.1-.08.2-.11.3-.39-4.63-5.26-11.84-3.86-16.09-2.99,3.34-11.67,2.72-15.87,4.7,2.34-2.96,6.91-3.3,10.33-4.71,5.26-1.03,6.43-10.69,11.47-10.3,2.98,4.1-4.91,10.04-3.15,15.1.47,3.55,2.36,7.57,1.2,10.99ZM32.52,207.33c.74-4.21,8.81-7.69,10.84-11.83-1.73,4.88-9.1,8.01-10.79,12.56-.02-.24-.04-.48-.05-.73ZM32.86,209.92c-.61-5.39,9.3-8.95,10.85-14.24-.76,5.94-9.57,9.17-10.77,14.59-.03-.12-.06-.23-.08-.35ZM33.36,211.75c-.72-5.76,9-9.15,10.42-14.82,1.87,6.34-9.01,10.78-9.91,16.17-.19-.44-.36-.9-.51-1.36ZM34.61,214.66c-2.18-4.06,7.16-9.19,8.92-12.94-1.1,4.19-8.5,8.98-8.82,13.12-.03-.06-.07-.12-.1-.18ZM35.34,215.92c-1.52-3.93,6.9-9.27,8.22-13.24-.85,5.01-8.27,8.81-8.05,13.52-.06-.09-.12-.19-.17-.28ZM39.22,210.16c1.66-1.87,3.47-3.91,4.38-6.32-.78,4.99-7.32,8.8-7.28,13.41-1.37-2.28.52-4.42,2.9-7.09ZM38.58,220.13c-5.79-4.83,4.26-10.14,5.24-15.62.8,6.14-4.38,10.44-5.24,15.62ZM38.94,220.51c.08-2.89,2.54-5.78,3.78-8.65-.98,2.73-3.38,7.17-3.19,9.24-.2-.19-.39-.39-.59-.6ZM39.97,221.53c-.55-2.09,2.44-7.35,3.36-10.2-.95,3.27-3.05,8.86-2.53,10.97-.28-.25-.55-.5-.83-.77ZM41.5,222.92c-1.36-1.33,1.22-8.06,2.15-11.31-.66,3.6-2.29,9.54-1.52,11.84-.21-.17-.42-.35-.63-.53ZM42.86,224.03c-1.42-1.38.32-7.97,1.02-11.57.29,5.22-1.59,7.93-.19,12.21-.27-.2-.55-.41-.83-.64ZM44.14,224.74c-1.27-2.88-.14-5.56,0-8.82.14,3.25,1.27,5.94,0,8.82ZM45.42,224.02c-.27.24-.57.44-.84.65,1.4-4.28-.48-6.99-.19-12.21.7,3.59,2.44,10.19,1.02,11.56ZM46.82,222.83c-.15.26-.45.41-.67.62.76-2.3-.86-8.23-1.52-11.84.91,3.16,3.49,9.97,2.19,11.22ZM48.31,221.53c-.28.26-.55.52-.83.77.52-2.11-1.58-7.7-2.53-10.97.92,2.84,3.91,8.11,3.36,10.2ZM48.75,221.1c.19-2.07-2.21-6.52-3.19-9.25.92,2.91,5.01,6.65,3.19,9.25ZM50.93,218.72c-.4.49-.81.96-1.23,1.41-.86-5.17-6.04-9.48-5.24-15.62.78,4.99,9.23,9.56,6.47,14.21ZM51.95,217.25c.03-4.62-6.5-8.42-7.28-13.41,1.13,4.61,9.49,8.93,7.28,13.41ZM52.94,215.87c-.01.12-.12.22-.18.33.22-4.71-7.2-8.51-8.05-13.52,1.29,3.94,9.71,9.31,8.23,13.19ZM53.67,214.58c-.01.09-.06.17-.11.26-.32-4.14-7.72-8.92-8.82-13.12,1.71,3.71,11.05,8.88,8.93,12.86ZM54.91,211.75c-.15.46-.32.91-.51,1.36-.91-5.4-11.78-9.83-9.91-16.17,1.42,5.67,11.14,9.06,10.42,14.82ZM55.47,209.67c-.03.2-.09.41-.13.61-1.2-5.42-10-8.65-10.77-14.59,1.56,5.19,11.12,8.79,10.9,13.98ZM55.7,208.06c-1.69-4.55-9.06-7.68-10.79-12.56,2.04,4.42,11.01,7.73,10.79,12.56ZM56.28,203.69c-1.39-3.51.6-7.63,1.08-11.3,1.74-5.07-6.04-10.91-3.19-15.08,5.04-.52,6.24,9.27,11.51,10.28,3.41,1.41,7.99,1.75,10.33,4.71-4.2-1.98-12.88-1.36-15.87-4.7,1.4,4.26-3.47,11.47-3.86,16.09ZM56.76,204.87c-.8-4.08,4.27-10.84,3.99-15.19,1.05,4.72-3.74,11.31-3.64,15.9-.12-.23-.24-.47-.35-.72ZM57.81,206.79c-1.48-4.01,3.78-11.07,3.47-15.68.94,5.09-3.88,11.49-3.07,16.27-.14-.19-.27-.39-.4-.6ZM59.21,208.66c-2.78-4.39,3.69-12.28,2.45-17.56,2.31,5.52-3.7,12.73-2.03,18.02-.14-.15-.28-.3-.42-.46ZM60.73,210.18c-3.49-4.63,3.23-12.42,1.62-18.04,4.78,4.56-2.41,13.84-.5,18.96-.39-.29-.76-.6-1.12-.92ZM63.27,212.08c-3.92-2.43,1.61-11.54,1.25-15.67,1.15,4.18-2.87,12.03-1.08,15.77-.06-.04-.12-.07-.17-.1ZM64.54,212.81c-3.27-2.64,1.34-11.48.5-15.57,1.77,4.76-2.75,11.76-.21,15.73-.1-.05-.19-.1-.29-.15ZM65.01,205.88c.5-2.44,1.05-5.11.64-7.66,1.81,4.71-1.94,11.27.4,15.24-2.33-1.29-1.76-4.08-1.04-7.59ZM67.66,214.22c-4.69-2.66.33-10.83-1.48-15.54,3.76,4.92,1.43,11.23,3.27,16.15-.59-.18-1.19-.38-1.79-.61ZM69.95,214.98c-1.37-2.54-.69-6.27-1.05-9.37.51,2.85.66,7.9,1.86,9.59-.27-.07-.54-.14-.81-.22ZM71.35,215.36c-1.53-1.54-1.56-7.59-2.19-10.52.81,3.31,1.79,9.2,3.3,10.77-.36-.08-.73-.16-1.1-.25ZM73.37,215.79c-1.85-.47-2.97-7.59-3.79-10.87,1.23,3.45,2.79,9.4,4.6,11.01-.27-.04-.54-.09-.81-.14ZM75.1,216.08c-1.92-.48-3.71-7.06-4.9-10.53,2.86,4.37,2.59,7.66,5.94,10.67-.34-.04-.68-.08-1.04-.14ZM73.49,211.43c-.36-.86-.77-1.85-1.33-3.01,1.75,2.74,4.07,4.51,4.41,7.63-1.67-1.25-2.22-2.55-3.08-4.63ZM77.32,214.8c-.13.33-.27.66-.4.97-.93-4.4-3.91-5.82-6.27-10.48,2.41,2.77,7.21,7.61,6.67,9.51ZM77.94,213.15c-.09.26-.19.52-.28.77-.49-2.37-4.87-6.7-7.24-9.49,2.43,2.35,8.03,6.88,7.52,8.71ZM78.24,212.27c-.61-2.08-5.22-5.88-7.68-8.24,2.26,2.43,9.01,5.19,7.68,8.24ZM78.74,210.6c-.87-1.89-5.16-4.54-7.38-6.41,2.25,2.06,7.67,3.25,7.38,6.41ZM79.44,207.43c-.1.63-.23,1.24-.37,1.85-3.33-4.05-9.97-5.19-12.35-10.91,3.17,3.93,12.76,3.67,12.71,9.06ZM73.9,201.9c-2.53-.99-5.32-2.09-7.32-4.21,3.28,3.42,12.69,2.99,13.01,7.97-.76-1.82-3.1-2.74-5.69-3.76ZM79.76,204.34c-2.17-4.19-10.48-3.77-13.73-7.68,3.14,2.87,13.59,3.12,13.73,7.68ZM79.77,202.55c0,.07,0,.13,0,.2-2.35-3.42-11.15-3.87-14.2-6.95,3.39,2.37,14.05,2.15,14.19,6.75ZM79.64,200.84c-3.49-4.22-15.11-2.62-16.67-9.05,4.26,4.54,16.04,1.89,16.67,9.05ZM78.9,197.51c.05.13.08.28.12.41-3.75-4.1-12.99-2.49-16.62-7.25,3.98,3.78,14.27,1.97,16.5,6.84ZM77.92,195.17c.11.21.22.43.32.65-3.74-3.09-11.69-2.12-15.63-5.48,3.83,2.57,12.58,1.55,15.31,4.83ZM77.56,192.53c-2.73-3.13-1.72-11.52-4.14-15.15,3.27,3.56,2.41,11.67,4.8,15.59-.22-.14-.44-.29-.66-.44ZM79.42,193.67c-3.28-2.74-2.26-11.48-4.83-15.31,3.36,3.93,2.39,11.89,5.48,15.63-.22-.1-.43-.21-.65-.32ZM81.87,194.68c-5.03-2.12-3.13-12.53-6.95-16.53,4.76,3.63,3.16,12.88,7.25,16.62-.1-.03-.2-.06-.3-.09ZM79.44,187.34c-.65-3-1.36-6.31-3.4-8.63,6.42,1.55,4.83,13.18,9.04,16.67-3.92-.17-4.74-3.78-5.64-8.04Z"/>
    <path class="cls-2" d="M63.4,154.74c3.87-.28,11.38,1.51,12.76-3.39-3.46-3.73-9.42,1.67-12.76,3.39ZM72.61,150.51c3.54-.45,3,3.29-.13,3.46,1.49-.86.88-3.13-.84-3.13.35-.15.68-.26.97-.33ZM72.13,151.54c1.69,1.09-.28,2.58-1.88,2.55.7-.66.33-2.01-.6-2.23.91-.45,1.87-.57,2.48-.31Z"/>
    <path class="cls-2" d="M35.35,191.71c5.11-.17,3.43-9,3.63-12.56-1.69,3.38-6.82,8.87-3.63,12.56ZM36.1,185.4c.22.93,1.58,1.29,2.23.6-.04,3.76-4.08,2.68-2.23-.6ZM34.76,188.36c.06-.29.18-.62.33-.97,0,1.72,2.27,2.33,3.13.84-.16,3.13-3.91,3.67-3.46.13Z"/>
    <path class="cls-2" d="M86.06,292.05c-3.92,8.59-23.89,1.64-20.51-5.43,2.95,6.17,18.28,11.34,20.51.73-.11.36-2.54-1.18-1.6-1.62,1.88,1.4,2.17.67.17-.35.12-1.44,1.59.88,1.43-.34-1.09-.29-1.34-1.59,0-.74.16-.19-1.39-1.77,0-1.15.07-.33-.69-1.18,0-1.13.4-6.82-12.52-9.54-12.87-15.22,1.09-5.75,9.95,12.01,12.87,7.33-3.26-1.17,0-5.23,0-8.16-2.61,5.79-2.38,7.33-6.08,1.86-1.6-.35-3.12.86-3.32-1.69-.15-4.76,8.74-7.25,9.39-12.45-2.54,3.88-5.69,6.68-9.61,8.49,2.31-4.65,8.15-6.73,9.61-12.26-1.36,2.76-3.19,5.04-5.2,6.36,6.4-5.08,5.35-19.35,5.2-26.4-1.43-1.8-5.38-4.37-3.52-7.27,1,2.19,2.19,3.96,3.52,5.4-1.61-3.94-2.36-7.56,0-12.62-1.07-2.25,2.67-18.75-3.14-17.11.79,4.94.7,15.54-4.37,21.23-7.2,1.11-16.55-2.73-20.34-7.08-4.24,18.72-23.68,19.52-27.94.24-15.45,13.43-28.84,5.77-24.93-14.4-3.92.91-5.72.81-4.9,5.74.14-.14.28-.28.42-.41-1.96,8.75,6.35,20.24.6,24.34-.5.54-1.23.87-1.03,1.7,2.04-1.66,3.86-3.92,5.27-7.04,1.29,7.02-9.31,6.55-4.63,22.89,1.24,2.05,2.76,10.06,1.86,3.82,3.86,3.76-1.46,5.62-2.5,8.84,15.27-13.42-8.56,9.36,3.39,10.88,1.67-.86-1.96-6.8-2.68-7.66,4.85-2.05,8.85,19.76-.7,7.64-2.74,15.07,10.91.1,13.3-4.28,4.08,6.1-8.03,10.38-13.3,15.11,3.03-1.14.44-.12,0,.68.44-.01,1.84-1.02,1.63.08-.24.18-1.98.4-1.63.98,2.43-1.13,2.05.26,0,.74-.43,1.03,1.73-.46,1.93-.37.82.68-1.83,1.62-1.93,1.39.45,12.95,17.81,12.12,22.26,3.28,2.76,8.57-18.78,14.08-22.26,3.17-2.36,15.42,15.91,12.68,24.44,3.95,4.23,5.64,12.31,11.71,19.25,12.02,6.94-.32,15-6.37,19.23-12.02,7.31,7.37,25.17,12.38,22.69-1.7ZM78.12,262s-.01,0,0,0c-.01,0-.02.04,0,0ZM84.03,224.25s0,.01,0,.01c0,0-.01-.01,0-.01ZM4.25,224.26s0,0,0,0c0,0,0-.02,0,0ZM4.4,273.2s0,0,0,.01h0ZM6.53,300.23s-.03-.01-.05-.02c.05-.02.07-.01.1.03-.02,0-.04,0-.05-.01ZM65.93,286.13c.5-.4,1.12-2.32,1.54-1.44-.09-.05-1.51,2.03-1.54,1.44ZM66.25,286.63c.37-.15,1.49-2.39,1.83-1.17-.38.18-1.49,2.51-1.83,1.17ZM67.35,287.98c-1.14-.47.75-1.75.98-2.22,1.03.36-.83,1.81-.98,2.22ZM67.63,288.25c.39-.22,1.35-2.55,1.84-1.33-.42.29-1.26,2.66-1.84,1.33ZM68.45,289.02l1.31-1.83c.99.21-.82,3.05-1.31,1.83ZM69.29,289.72l1.24-1.86c.95.16-.68,3.07-1.24,1.86ZM70.18,290.38c.35-.26.98-2.66,1.63-1.56-.38.33-.86,2.72-1.63,1.56ZM71.1,290.97l1.04-1.94c1,.07-.33,3.07-1.04,1.94ZM72.08,291.53l.92-1.98c.95.02-.13,3.08-.92,1.98ZM73.11,292.03l.75-2.03c.97-.05.13,3.09-.75,2.03ZM74.18,292.47l.59-2.08c.94-.13.39,3.07-.59,2.08ZM76.02,292.97c-1.3.27-.28-1.74-.32-2.29,1.02-.27.22,1.89.32,2.29ZM76.4,293.05l.23-2.17c.8-.27.95,3-.23,2.17ZM77.58,293.18l-.05-2.22c.72-.29,1.38,2.91.05,2.22ZM78.79,293.17l-.38-2.22c.84-.57,1.77,2.73.38,2.22ZM80,292.95l-.59-2.2c.76-.82,1.93,2.4.59,2.2ZM81.11,292.45c.01-.36-1.27-2.33-.36-2.36.16.59,1.78,2.19.36,2.36ZM82.14,291.82l-1.06-1.92c.45-.83,2.36,1.8,1.06,1.92ZM83.07,291.09l-1.28-1.76c.36-.95,2.49,1.51,1.28,1.76ZM83.88,290.3l-1.41-1.64c.3-1.02,2.63,1.26,1.41,1.64ZM84.65,289.42c-.21-.4-2.17-1.49-1.2-1.99.34.47,2.39,1.33,1.2,1.99ZM85.76,287.86c-.13,1.35-2.6-.76-1.78-1.25,0,0,1.78,1.25,1.78,1.25ZM81.29,282.19c.05-.11.11-.22.16-.33-.08.19-.16.37-.24.55.03-.07.05-.15.08-.22ZM77.96,286.43c3.5-1,5.02-6.47,5.06-9.07,5.55,1.1,1.39,10.33-3.94,12.91-5.91.43-14.12-5.48-9.87-9.21,1.32,2.21,5.22,6.05,8.74,5.37ZM77.82,285.87c-12.69-.46-4.4-11.78-4.72-17.91.02.15,4.68,17.73,4.72,17.91ZM73.3,264.38s0,0,0,0c.15.04.27.11.34.25-.07-.12-.2-.21-.34-.25ZM65.14,222.44c25.22,1.64,13.98,20.24,8.05,8.77.28-3.21,5.2-2.35,3.66.77,3.83-6.99-12.94-4.12-13.98-10.67.67.46,1.44.82,2.27,1.13ZM79.94,226.61s0,0,.01,0c0,0,0,0-.01,0ZM78.17,245.01c-1.13,4.46-5.6,6.99-10.14,4.84-3.92,6.4-11.16,1.48-15.2-.9,4.81-1.61,10.98,4.74,14.59-2.22,6.61,4.22,8.77-4.36,13.75-5.4-.81,1.31-.94,4.48-3.01,3.67ZM79.07,245.75c-5.75,12.01-13.2,13.4-21.65,5.51,2.71,3.52,8.72,3.18,10.97-.88,4.99,3.25,8.66-2.05,10.68-4.62ZM57.5,245.2s.06.04.1.05c-.04.01-.06-.04-.1-.05ZM64.83,248.2s.09.01.04.04c0,0-.03-.03-.04-.04ZM70.32,246.77s.03-.03.05-.05c0,.03,0,.07-.05.05ZM75.17,240.54s.04-.06.06-.09c-.02.03-.02.09-.06.09ZM79.83,237.32c-6.03.2-3.2,2.06-7.49,5.06-1.99,1.1-4.21.66-6.19-.32-1.22,1.84-2.93,3.33-5.2,3.37-2.23.2-4.02-1.11-5.37-2.58-2.65,3.58-8.08,1.75-8.54-2.69,1.76,3.14,7.62,2.96,8.56-1.02.9,4.66,9.25,4.73,9.58-.69,2.99,4.53,10.18.29,8.64-4.19,2.8,2.98,7.97.2,7.93-3.39.92,2.37.39,5.28-1.92,6.46ZM62.96,233.28c-2.59-.4-1.7-4.49.83-3.79,2.34.57,1.54,4.25-.83,3.79ZM63.17,234.5s-.06-.04-.1-.05c.04,0,.07.03.1.05ZM61.65,233.29s0,0,0,0c-.01,0-.04,0,0,0ZM65.03,233.92s-.06.11-.09.16c.01-.06.04-.12.09-.16ZM75.03,228.54s.03-.03.06,0c-.02,0-.04,0-.06,0ZM62.01,220.69c1.83,5.73,11.86,8.99,11.32,15.3,0,4.04-7.44,5.56-8.29.66-1.43-4.62,7.02-3.91,3.48-.33,6.5-3.17-9.62-10.26-8.15-17.12.5.55,1.05,1.05,1.63,1.49ZM65.61,230.37s0,0,0,0c0,0,0,0,0,0ZM65.67,232.21s0-.03.01-.04c.03,0,0,.02-.01.04ZM66.58,231.73h0s0,0,0,0ZM59.74,219.38c4.52,5.09-5.54,19.81,1.5,18.9-4.87-1.34,2.11-6.16,3.18-1.46,1.7,4.66-5.48,7.07-7.51,3.57-3.09-5.84,3.08-14.53,2.83-21.01ZM60.78,231.67s0,0,0,0c0,0,0,0,0,0ZM60.62,233.33s0,0,0,0h0ZM52.58,229c2.3-1.76,4.68-3.96,6.05-6.56,2.37,6.18-13.59,12.1-6.78,16.23-2.87-1.87.84-5.15,2.78-2.5.51,13.38-15.88.74-2.06-7.17ZM51.71,234.78s-.03.01-.05.02c.02-.03.02-.06.05-.02ZM46.49,235.57s0,0,0,.02c0,0,0-.01,0-.02ZM46.03,233.41c-1.26,17.94,15.14,20.22,24.58,25.05,5.62-9.06,18.75-19.02,8.65-33.96,13.91,11.51-3.13,27.65-8.02,36.52-8.66-5.21-31.52-10.71-25.21-27.62ZM71.13,264.96c-.1.11-.17.24-.17.39,0-.16.06-.28.17-.39,0,0,0,0,0,0ZM66.38,277.1c-8.52-.56-17.66-6.06-2.57-2.54.86-2.04-6.08-5.26-6.16-5.29.47-3.95,13.18,6.57,8.72,7.83ZM66.39,277.89h-.01s0,0,.01,0ZM51.36,279.62c1.47-2.69,5.5,3.89,7.33,2.87,4.03-2.1-6.71-6.09-3.5-8.15,12.17,8.83,6.31,14.69-3.83,5.27ZM57.91,284.57s-.01,0-.01,0c0,0,0,0,.01,0ZM46.25,284.52c1.93-2.41,4.65,4.72,6.6,4.06,4.26-1.53-5.37-7.11-1.9-8.49,10.46,11.06,3.47,15.55-4.7,4.43ZM52.57,293.04h0s0,0,0,0ZM40.47,288.57c2.29-2.91,4.08,6.55,6.81,4.66,2.31-2.01-4.62-7.36-1.51-8.33,8.62,11.5,1.36,15.81-5.3,3.67ZM45.19,295.86s-.06-.04-.09-.06c.03.02.06.04.09.06ZM39.99,293.19c-4.28-9.3,3.91.22,3.97,5.35-4.21-.96-2.66-.95-3.97-5.35ZM33.56,291.45c2.41-1.68,2.18,2.22,4.29,4.43-1.76-.74-3.82-2.95-4.29-4.43ZM33.79,293.05s0-.01,0,0c0-.01-.05-.02,0,0ZM31.78,291.33c3.3-5.69,26.97-14.75,25.03-31.4,6.64,12.09-13.77,28.97-25.03,31.4ZM26.04,280.38c-11.44-4.29,18.26-12.86,16.89-25.66.06,9.63-7.74,13.83-11.98,19.75,5.14-5.21,12.08-10.21,12.37-19.6.5,9.28-6.67,15.25-9.85,19.92,4.02-3.9,10.25-10.61,10.25-19.56,1.95,12.42-11.07,18.73-11.99,27.37-5.06,7.35-4.1.95-5.7-2.23ZM21.21,271.29c-8.78-7.92,17.7-4.33,20.41-16.91-2.73,7.13-12.02,13.07-17.64,13.85,5.78.42,15.43-7.06,18.08-13.9-1.82,7.27-10,14.01-15.21,15.29,5.33-.09,13.43-8.02,15.48-14.83-.61,8.83-22.23,28.37-21.12,16.51ZM41.13,254.06c-5.47,9.6-12.28,10.68-20.15,10.57,6.83-3.31,14.49-2.71,20.15-10.57ZM27.75,261.73c4.52-2.08,9.09-4.52,12.87-7.63-3.56,4.38-8.71,7.4-12.87,7.63ZM22.51,265.31s-.01,0,0,0c-.01,0-.04.02,0,0ZM44.27,254.78c1.17,6.9-2.34,16.94-4.59,20.12,3.11-2.39,5.89-13.25,4.99-20.08,1.8,7.14.18,18-3.26,22.34,4.24-3.44,5.1-15.02,3.75-21.91,2.17,7.82,1.65,29.28-7.34,28.99-.55-3.29-4.8.54-5.54-1.85,1.68-8.57,14.08-14.9,11.99-27.61ZM48.56,267.6c.75-3.24-.67-8.89-2.76-13.36,2.08,2.72,4.69,9.98,4.73,14.48,1.07-4.35-2.43-11.51-4.28-14.49,7.51,7.67,9.5,18.25.78,22.3-1.49-5.77,1.19-15.83-1.48-21.92,2.38,4.44,2.63,9.74,3.01,12.99ZM54.39,262.31c-1.84-4.01-4.71-6.12-7.42-8.74,2.56,1.32,10.58,9.47,6.22,4.36,4.44,1.22,2.73,5.15,1.79,8.52-2.68-4.1-4.72-8.99-8.53-12.86,2.94,2.17,5.91,6.47,7.94,8.73ZM47.16,277.99l-.02.03s0-.04.02-.03ZM38.5,285.64s-.05.03-.05,0c.02,0,.03,0,.05,0ZM35.34,286.72s-.11.07-.14.07c.04-.02.09-.1.14-.07ZM34.4,286.69s-.05.04-.07.06c.02-.02.03-.06.07-.06ZM32.77,283.83s-.03.02-.05.02c.02-.01.02-.04.05-.02ZM30.97,288.76h0s0,0,0,0ZM43.68,287.58s-.06.06-.1.08c.03-.02.07-.05.1-.08ZM67.16,269.42s.03.04.03.06c0-.02-.02-.04-.03-.06ZM58.35,267.04c-.53-3.93,10.52,2.29,7.71-2.92,10.33,4.33-4.93,5.23-7.71,2.92ZM59.26,262.08c-.25-1.94,2.61.61,3.69.73-1.49-.4-3.05-.66-3.69-.73ZM46.24,252.32c-4.03,3.41-4.28-1-2.1-3.74.39,1.31,1.12,2.56,2.1,3.74ZM41.78,235.57s0,.01,0,.02c0,0-.01-.02,0-.02ZM31.04,224.56c14.91,9.51,10.69,23.77,2.08,14.06-1.2-4.93,7.26-3.7,3.29.06,6.81-4.14-9.14-10.04-6.77-16.23.35.73.83,1.43,1.4,2.11ZM31.04,250.62c-3.21,3.3-8.35,3.25-11.2-.87-6.59,3.58-10.41-4.31-12.74-8.4,4.97,1.03,7.15,9.62,13.76,5.4,3.62,6.96,9.76.6,14.59,2.22-1.35.73-3.03,3.4-4.41,1.67ZM31.44,251.71c-10.97,7.55-18.16,4.97-21.5-6.06.56,4.4,6.05,7.12,9.94,4.72,2.77,5.32,8.49,2.57,11.55,1.33ZM13.05,240.45s.04.06.06.09c-.04,0-.04-.06-.06-.09ZM17.9,246.72s.08.05.01.06c0-.01-.01-.05-.01-.06ZM23.37,248.22s.04-.01.07-.02c-.02.02-.04.06-.07.02ZM30.68,245.25s.06-.03.1-.05c-.03.01-.06.06-.1.05ZM32.93,242.97c-2.96,2.83-8.34,3.68-10.8-.93-1.98.98-4.2,1.42-6.19.32-2.04-.94-2.92-2.97-3.36-4.92-4.08,1.78-7.89-2.53-6.05-6.6-.04,3.6,5.13,6.37,7.93,3.4-1.54,4.48,5.64,8.72,8.64,4.19.32,5.42,8.67,5.34,9.58.69.94,3.98,6.8,4.16,8.56,1.02-.36,4.16-5.78,6.45-8.3,2.82ZM25.74,233.16c-2.85,1.15-3.78-3.71-.75-3.73,2.05-.05,2.65,3,.75,3.73ZM26.66,233.28s-.02,0-.03.01c.01,0,.02-.04.03-.01ZM25.2,234.45s-.06.03-.09.05c.03-.02.06-.04.09-.05ZM23.28,233.96s.04.08.05.12c-.03-.05-.05-.11-.09-.16.01.01.02.03.04.04ZM36.56,234.78s.04-.01.06.02c-.02,0-.04-.01-.06-.02ZM28.53,219.37c-.25,6.48,5.92,15.18,2.83,21.01-2.03,3.49-9.21,1.1-7.51-3.57,1.4-4.89,8.14.39,2.83,1.68,7.98-.96-3.12-13.52,1.85-19.12ZM27.49,231.67s0,0,0,0c0,0,0,0,0,0ZM27.65,233.33h0s0,0,0,0ZM27.91,219.21c1.5,7.33-14.39,12.66-7.96,17.48-3.95-3.78,4.52-4.95,3.29-.04-.85,4.89-8.28,3.38-8.29-.67.24-6.6,9.93-11.04,12.95-16.78ZM22.66,230.37s0,0,0,0c0,0,0,0,0,0ZM22.61,232.21s0-.01,0,0c0-.01-.04-.03,0,0ZM21.69,231.73h0s0,0,0,0ZM16.9,223.97c2.87-.37,6.03-1.09,8.51-2.66-1.04,6.54-17.82,3.69-13.98,10.67-1.55-3.06,3.3-4.04,3.66-.77-6.26,11.83-14.12-7.31,1.81-7.24ZM13.25,228.53s-.03,0-.05,0c.03-.01.04-.04.05,0ZM8.33,226.62s0,0,0,0c0,0,0-.02,0,0ZM6.64,255.18c.78,1.12,1.57,2.21,2.34,3.25-1.16-1.58-3.53-2.03-2.34-3.25ZM9.33,266.27l-.03.05s0-.09.03-.05ZM12.65,265.36c-2.45,1.65-11.93-5.03-8.59-6.82,1.4,1.44,7.34,6.96,6.94,2.57.78,1.3,2.98,2.74,1.65,4.25ZM14.97,264.38c-.14.04-.27.12-.34.25.08-.14.2-.21.34-.25,0,0,0,0,0,0ZM13.09,255.06c-4.78-5.55-15.85-22.52-4.08-30.55-10.05,14.9,2.98,25.11,8.79,34,9.37-5.12,25.73-7.09,24.44-25.1,7.72,14.05-25.1,34.44-29.16,21.64ZM17.32,265.35c0-.15-.07-.28-.17-.39.11.11.17.23.17.39ZM5.85,277.01c4.4-2.71,7.67-5.87,9.33-9.06-1.95,4.55-5.06,30.37-9.33,9.06ZM15.43,284.2c-.12.1-.25.19-.38.28.11-.11.25-.19.38-.28ZM2.49,278.89c5.23-3.47,4.83,17.62,16.58,2.17,3.9,10.8-17.33,13.49-16.58-2.17ZM.62,283.87l2.05-.93c.76.67-2.23,2.22-2.05.93ZM1,284.9l2-.99c.76.61-2.12,2.32-2,.99ZM1.45,285.91l1.93-1.09c.82.59-1.97,2.38-1.93,1.09ZM1.94,286.89l1.87-1.15c.84.56-1.82,2.49-1.87,1.15ZM2.51,287.86l1.78-1.25c.82.49-1.65,2.6-1.78,1.25ZM3.15,288.81l1.67-1.38c.87.44-1.43,2.74-1.67,1.38ZM4.39,290.3c-1.22-.38,1.11-2.66,1.41-1.64,0,0-1.41,1.64-1.41,1.64ZM4.66,290.58l1.42-1.64c.88.26-.98,2.92-1.42,1.64ZM5.5,291.34l1.28-1.77c.81.19-.68,3.07-1.28,1.77ZM6.45,292.04l1.07-1.95c.77.11-.27,3.22-1.07,1.95ZM8.27,292.95c-1.34.2-.17-3.01.59-2.2,0,0-.59,2.2-.59,2.2ZM9.49,293.17c-1.39.51-.46-2.79.38-2.22,0,0-.38,2.22-.38,2.22ZM10.7,293.18c-1.33.69-.67-2.51.05-2.22,0,0-.05,2.22-.05,2.22ZM11.08,293.14l.05-2.21c.8-.46,1.15,2.75-.05,2.21ZM12.25,292.97c.1-.4-.7-2.55.32-2.29-.04.55.98,2.55-.32,2.29ZM13.35,292.7l-.41-2.13c.77-.73,1.65,2.41.41,2.13ZM14.45,292.33c.02-.45-1.13-2.38-.04-2.32.06.58,1.41,2.34.04,2.32ZM15.52,291.87l-.76-2.04c.64-.86,2.01,2.13.76,2.04ZM16.53,291.35l-.92-1.98c.6-.95,2.16,1.99.92,1.98ZM17.51,290.76c-.08-.45-1.66-2.13-.54-2.3.12.51,1.81,2.11.54,2.3ZM18.41,290.15c-.09-.43-1.74-2.08-.66-2.3.16.51,1.95,2.02.66,2.3ZM19.29,289.47c-.13-.45-1.88-1.99-.77-2.29.17.5,2.01,1.95.77,2.29ZM20.12,288.76l-1.32-1.83c.4-1.13,2.46,1.58,1.32,1.83ZM20.92,287.98l-1.39-1.78c.33-1.09,2.47,1.47,1.39,1.78ZM21.64,287.14l-1.44-1.68c.25-1.11,2.37,1.36,1.44,1.68ZM22.35,286.13c-.02.6-1.45-1.49-1.54-1.44.42-.88,1.04,1.05,1.54,1.44ZM44.14,300.94c-10.27.44-35.49-25.89-26.11-35.06-.94,11.53,12.65,29.9,26.11,33.25,12.18-2.77,26.94-20.53,26.11-33.24,9.39,9.17-15.85,35.49-26.11,35.06ZM81.75,300.23s-.04,0-.05.01c.03-.04.05-.04.1-.03-.01,0-.03.01-.05.02Z"/>
    <path class="cls-2" d="M52.93,128.06c-5.13.18-3.4,8.97-3.65,12.56,1.71-3.33,6.82-8.89,3.65-12.56ZM52.17,134.37c-.22-.93-1.58-1.29-2.24-.6.04-3.76,4.08-2.67,2.24.6ZM53.51,131.41c-.06.29-.18.61-.33.97,0-1.72-2.27-2.33-3.13-.84.16-3.13,3.91-3.67,3.46-.13Z"/>
    <path class="cls-2" d="M67.6,136.48c-4.88-1.51-7.27,6.14-9.36,9.3,3.19-2.11,10.62-4.39,9.36-9.3ZM63.85,141.8c.27-.92-.72-1.91-1.64-1.64,1.92-3.23,4.87-.28,1.64,1.64ZM66.49,139.91c-.2.22-.46.44-.77.68.86-1.5-.8-3.15-2.29-2.29,1.71-2.63,5.22-1.23,3.06,1.61Z"/>
    <path class="cls-2" d="M24.6,154.95c-1.17-1.58-8.62-6.39-11.3-4.38-3.86,4.99,8.13,3.96,11.3,4.38ZM14.79,153.76c-3.3-1.38-.95-4.35,1.84-2.93-1.72,0-2.33,2.27-.84,3.13-.38-.05-.72-.11-1-.2ZM18.46,151.91c-.82.32-1.08,1.57-.44,2.18-3.76-.04-2.67-4.08.6-2.23-.06.02-.11.03-.16.06Z"/>
    <path class="cls-2" d="M29.83,145.88c-1.12-2.9-4.4-10.47-8.85-9.52-2.45,4.71,5.95,6.95,8.85,9.52ZM22.81,138.55c-.58.49-.59,1.37-.26,2.04-3.34-2.31-.01-5.63,2.29-2.29-.67-.33-1.55-.33-2.04.26ZM25.89,140.14c-.87-.13-1.72.81-1.47,1.67-3.23-1.92-.28-4.87,1.64-1.64-.06-.01-.11-.02-.17-.03Z"/>
    <path class="cls-2" d="M36.38,136.07c4.23,9.69,2.42-1.73,2.19-5.7-3.98-6.02-5.89,2.09-2.19,5.7ZM38.21,133.66c-.69-.55-1.9-.15-2.1.71-1.84-3.28,2.19-4.35,2.23-.6-.04-.04-.09-.08-.13-.11ZM35.3,129.35c.66-1.68,3.03.71,2.92,2.19-.86-1.49-3.13-.88-3.13.84-.55-1.07-.48-2.2.21-3.03Z"/>
    <path class="cls-2" d="M24.87,165.03c-3.86.28-11.39-1.51-12.76,3.39,3.53,3.73,9.38-1.68,12.76-3.39ZM15.66,169.26c-3.55.45-3-3.29.13-3.46-1.49.86-.88,3.13.84,3.13-.35.15-.68.26-.97.33ZM16.14,168.23c-1.69-1.09.28-2.58,1.88-2.55-.7.66-.33,2.02.6,2.24-.91.45-1.87.57-2.48.31Z"/>
    <path class="cls-2" d="M36.68,155.47c-.87-1.35-1.28-2.73-3-1.59-.05,2.11,1.7,1.88,3,1.59ZM35.73,154.15s0,0,0,0c0,0,0,0,0,0ZM36.27,155.35s.03,0,.04,0c-.01,0-.03,0-.04,0Z"/>
    <path class="cls-2" d="M20.73,183.34c4.92,1.29,7.18-6.16,9.32-9.35-3.17,2.07-10.79,4.47-9.32,9.35ZM24.42,177.96c-.27.92.72,1.91,1.64,1.64-1.92,3.23-4.87.28-1.64-1.64ZM21.78,179.86c.2-.22.46-.44.77-.68-.86,1.5.79,3.15,2.29,2.29-1.71,2.63-5.22,1.23-3.06-1.62Z"/>
    <path class="cls-2" d="M38.18,149.42c-1.28,1.61.31,2.31,1.67,3.03-.02-1.58.39-3-1.67-3.03ZM38.41,151.48s0,0,0,0c0,0,0,0,0,0ZM39.58,152.03s.02,0,.03.03c0,0-.02-.02-.03-.03Z"/>
    <path class="cls-2" d="M43.03,170.09c-.35,2.12,2.57,2.12,2.21,0-1.76-1.83-.45-1.83-2.21,0ZM44.14,168.95s0,0,0,0c0,0,.01.02,0,0Z"/>
    <path class="cls-2" d="M.46,29.97c3.48-10.9,25.03-5.39,22.26,3.17C18.39,24.38.89,23.43.46,36.42c.08-.3,2.76.75,1.93,1.39-.2.12-2.36-1.41-1.93-.36,2.06.51,2.42,1.84,0,.74-.35.59,1.39.8,1.63.98.22,1.1-1.2.08-1.63.08-.92,1.18,14.13,8.72,14.62,13.72-.58,6.15-13.8-16.18-14.63-6.69,7.03-2.29.37,7.32,0,11.03,2.95-4.66,3.65-13.06,7.83-5.36,1.6.34,3.12-.86,3.32,1.69-.63,5.9-11.29,8.67-11.15,16.27,2.26-6.26,6.24-9.73,11.37-12.31-3.36,5.74-10.88,8.81-11.37,17.11,1.18-4.85,3.85-9.17,6.95-11.2C1.37,69.91-.59,79.97.46,88.47c1.86,1.82,7.18,5.1,5.28,8.69-1.42-3.11-3.23-5.39-5.28-7.04-.21.83.52,1.17,1.03,1.71,5.76,4.15-2.57,15.55-.6,24.34-.14-.13-.28-.27-.42-.41-.69,4.91.77,4.83,4.89,5.74-3.83-20.19,9.37-27.83,24.94-14.39,4.28-19.28,23.66-18.47,27.94.23,3.77-4.32,13.15-8.19,20.34-7.07,5.05,5.69,5.17,16.29,4.36,21.23,5.68,1.66,2.26-14.89,3.14-17.11-2.39-5.05-1.58-8.68,0-12.63-1.33,1.44-2.53,3.21-3.52,5.4-1.85-2.88,2.09-5.47,3.52-7.26.03-3.2.22-19.46-.78-22.25-.89-.49.01,2.37.03,2.8-2.99-3.01-.14-4.31.75-7.14-6.02,6.96-2.87-.69,0-3.95-2.31-1.63-8.12-17.17,0-10.46,1.73-10.35-10.44,3.21-11.54,6.13-3.53-5.13,5.53-9.92,11.54-13.64.16-1.66-.33-3.79,0-4.78-.48.33-.53.08-.66-.39.99-.32.81-1.04-.13-.37-.56-.62.38-.87.79-1.13.29-1.03-.89.23-1.17.22-.77-.68.82-1.12,1.17-1.45.38-1.17-1.37.59-1.6.53-.94-.48,1.48-1.93,1.6-1.63-2.24-10.66-17.68-5.33-20.5.74-3.39-7.06,16.59-14.01,20.5-5.43,2.46-14.08-15.35-9.07-22.69-1.7-4.23-5.64-12.3-11.71-19.24-12.01-6.94.3-15.01,6.37-19.24,12.01C16.38,17.27-1.94,14.56.46,29.97ZM10.16,57.77s.01,0,0,0c.01,0,.02-.04,0,0ZM4.25,95.52s0,0,0-.01c0,0,0,.01,0,.01ZM84.03,95.5s0,0,0,0c0,0,0,.02,0,0ZM83.88,46.57s0,0,0-.01h0ZM81.75,19.54s.03.01.04.01c-.05.02-.07.02-.1-.03.02,0,.04,0,.05.01ZM22.35,33.63c-.5.4-1.12,2.32-1.54,1.44.09.05,1.51-2.03,1.54-1.44ZM22.02,33.14l-1.46,1.63c-.87-.28,1.24-2.89,1.46-1.63ZM21.39,32.32c-.38.17-1.44,2.46-1.86,1.25.42-.25,1.38-2.62,1.86-1.25ZM20.65,31.52l-1.38,1.77c-.98-.25.95-3.07,1.38-1.77ZM19.83,30.75l-1.31,1.83c-1-.2.83-3.04,1.31-1.83ZM18.99,30.05l-1.24,1.86c-.96-.15.68-3.06,1.24-1.86ZM18.09,29.39l-1.12,1.91c-1.01-.1.51-3.04,1.12-1.91ZM17.18,28.8l-1.04,1.93c-1.01-.07.33-3.07,1.04-1.93ZM16.2,28.23l-.92,1.97c-.96-.01.13-3.08.92-1.97ZM15.17,27.73l-.75,2.03c-.97.05-.13-3.09.75-2.03ZM14.09,27.3l-.59,2.08c-.94.13-.39-3.07.59-2.08ZM12.25,26.79c1.17-.39.57,2.8-.23,2.16,0,0,.23-2.16.23-2.16ZM11.87,26.72l-.23,2.18c-.8.24-.95-3,.23-2.18ZM10.7,26.59l.05,2.22c-.72.29-1.38-2.92-.05-2.22ZM9.49,26.6l.38,2.24c-.84.55-1.78-2.74-.38-2.24ZM8.27,26.82l.59,2.2c-.76.82-1.93-2.4-.59-2.2ZM7.16,27.32c-.01.36,1.27,2.33.36,2.36-.16-.59-1.78-2.19-.36-2.36ZM6.13,27.95l1.06,1.93c-.45.82-2.36-1.8-1.06-1.93ZM5.21,28.68l1.28,1.76c-.36.95-2.49-1.51-1.28-1.76ZM4.39,29.46c.16.4,2.02,1.68,1.03,2.08-.31-.5-2.27-1.52-1.03-2.08ZM3.62,30.34l1.55,1.51c-.22,1.07-2.72-1.04-1.55-1.51ZM2.93,31.27l1.67,1.39c-.13,1.06-2.8-.84-1.67-1.39ZM2.31,32.23l1.79,1.26c-.05,1.12-2.87-.65-1.79-1.26ZM1.76,33.22l1.88,1.16c.03,1.14-2.87-.53-1.88-1.16ZM1.29,34.2c.29.33,2.55.94,1.72,1.66-.39-.37-2.69-.77-1.72-1.66ZM.62,35.9c-.19-1.29,2.81.26,2.05.93,0,0-2.05-.93-2.05-.93ZM6.99,37.57c-.05.11-.11.22-.16.33.08-.19.16-.37.24-.56-.03.07-.05.15-.08.22ZM10.23,33.35c-3.43,1.1-4.93,6.46-4.97,9.06-5.56-1.07-1.37-10.47,4-12.91,5.91-.39,14.03,5.5,9.8,9.21-1.33-2.23-5.31-6.12-8.83-5.36ZM10.45,33.9c12.69.46,4.4,11.79,4.73,17.91-.03-.15-4.68-17.73-4.73-17.91ZM14.97,55.39s0,0,0,0c-.15-.04-.27-.11-.34-.25.07.12.2.21.34.25ZM23.14,97.33c-25.22-1.64-13.99-20.24-8.05-8.77-.36,3.27-5.21,2.28-3.66-.77-3.83,6.99,12.94,4.12,13.98,10.67-.67-.46-1.44-.82-2.27-1.13ZM8.34,93.16s0,0-.01,0c0,0,0,0,.01,0ZM10.11,74.75c1.1-4.17,5.48-7.31,10.03-4.74,3.94-6.48,11.2-1.65,15.31.8-4.81,1.61-10.97-4.74-14.58,2.21-6.61-4.2-8.77,4.36-13.76,5.4.81-1.31.94-4.48,3.01-3.67ZM9.21,74.01c5.75-12.01,13.2-13.39,21.65-5.5-2.7-3.51-8.72-3.18-10.97.88-5.07-3.24-8.64,2.05-10.68,4.62ZM30.77,74.56s-.06-.03-.09-.04c.03-.01.06.03.09.04ZM23.44,71.57s-.09-.01-.04-.04c0,0,.03.03.04.04ZM17.95,73s-.03.03-.05.05c0-.03,0-.07.05-.05ZM13.11,79.23s-.04.06-.06.09c.02-.03.02-.09.06-.09ZM8.44,82.45c7.64-.23,4.08-8.1,13.9-4.96,2.15-4.08,7.8-4.01,10.34-.57,2.65-3.58,8.08-1.75,8.54,2.69-1.76-3.14-7.63-2.96-8.56,1.02-.9-4.66-9.25-4.73-9.58.69-2.99-4.53-10.18-.29-8.64,4.19-2.8-2.98-7.97-.2-7.93,3.4-.92-2.37-.39-5.28,1.92-6.46ZM25.14,86.46c2.47.13,2.22,4.03-.24,3.87-2.56-.08-2.3-4.12.24-3.87ZM25.11,85.26s.06.04.1.05c-.04,0-.07-.03-.1-.05ZM26.62,86.48s0,0,0,0c.01,0,.04,0,0,0ZM23.24,85.85s.06-.11.09-.16c-.01.06-.04.12-.09.16ZM13.25,91.23s-.03.03-.06,0c.02,0,.04,0,.06,0ZM26.27,99.08c-1.83-5.73-11.86-8.99-11.32-15.3,0-4.04,7.43-5.56,8.29-.66,1.42,4.62-7.03,3.91-3.48.33-6.5,3.17,9.62,10.26,8.15,17.12-.5-.55-1.05-1.05-1.63-1.48ZM22.66,89.4s0,0,0,0c0,0,0,0,0,0ZM22.61,87.55s0,.03-.01.04c-.03,0,0-.02.01-.04ZM21.69,88.03h0s0,0,0,0ZM28.53,100.39c-4.52-5.09,5.54-19.81-1.51-18.9,4.87,1.34-2.11,6.16-3.18,1.46-1.7-4.66,5.48-7.07,7.51-3.57,3.09,5.84-3.08,14.53-2.83,21.01ZM27.49,88.1s0,0,0,0c0,0,0,0,0,0ZM27.65,86.44s0,0,0,0h0ZM35.69,90.76c-2.3,1.76-4.68,3.96-6.05,6.56-2.37-6.18,13.59-12.1,6.78-16.23,2.86,1.87-.84,5.15-2.79,2.5-.5-13.38,15.88-.74,2.06,7.17ZM36.56,84.98s.04-.01.06-.02c-.02.03-.03.06-.06.02ZM41.78,84.2s0,0,0-.02c0,0,0,.01,0,.02ZM42.24,86.36c1.27-17.99-15.09-20.06-24.5-25.09-5.72,8.97-18.81,19.07-8.73,33.99-13.91-11.51,3.13-27.65,8.02-36.52,8.66,5.21,31.51,10.71,25.21,27.62ZM17.15,54.81c.1-.11.17-.24.17-.39,0,.16-.06.28-.17.39,0,0,0,0,0,0ZM21.89,42.66c9.25.82,17.55,6.04,2.57,2.54-.86,2.03,6.08,5.26,6.15,5.29.2,4.17-13.22-6.35-8.72-7.83ZM21.89,41.88h.01s0,0-.01,0ZM42.03,35.25c-1.93,2.41-4.65-4.72-6.6-4.06-4.26,1.53,5.37,7.11,1.9,8.49-10.47-11.06-3.46-15.55,4.7-4.43ZM35.71,26.72h0s0,0,0,0ZM47.81,31.2c-2.29,2.91-4.09-6.55-6.81-4.66-2.31,2.01,4.62,7.36,1.51,8.33-8.62-11.5-1.36-15.8,5.3-3.67ZM43.09,23.91s.06.04.09.06c-.03-.02-.06-.04-.09-.06ZM48.28,26.58c4.28,9.3-3.92-.22-3.98-5.35,4.21.96,2.66.95,3.98,5.35ZM54.72,28.31c-2.41,1.68-2.19-2.23-4.29-4.43,1.76.74,3.82,2.95,4.29,4.43ZM54.49,26.71s0,.01,0,0c.01.01.05.02,0,0ZM56.49,28.44c-3.3,5.69-26.97,14.75-25.03,31.4-6.64-12.09,13.77-28.97,25.03-31.4ZM62.24,39.39c11.44,4.3-18.26,12.86-16.89,25.66-.06-9.63,7.74-13.83,11.97-19.75-5.14,5.21-12.08,10.21-12.37,19.61-.5-9.29,6.67-15.25,9.85-19.93-4.02,3.9-10.25,10.61-10.25,19.56-1.95-12.42,11.07-18.72,11.99-27.37,5.06-7.35,4.1-.95,5.7,2.23ZM67.06,48.47c8.79,7.92-17.7,4.33-20.41,16.91,2.73-7.13,12.02-13.07,17.64-13.85-5.77-.42-15.43,7.06-18.08,13.9,1.82-7.27,10-14,15.21-15.29-5.33.08-13.43,8.03-15.48,14.83.61-8.83,22.23-28.37,21.12-16.51ZM47.15,65.7c5.47-9.59,12.28-10.68,20.15-10.57-6.79,3.32-14.43,2.67-20.15,10.57ZM60.53,58.04c-4.52,2.08-9.09,4.52-12.87,7.63,3.56-4.38,8.71-7.4,12.87-7.63ZM65.77,54.46s.01,0,0,0c.01,0,.04-.02,0,0ZM44.01,64.99c-1.17-6.9,2.34-16.94,4.59-20.13-3.11,2.39-5.89,13.25-4.99,20.08-1.8-7.14-.18-18,3.26-22.34-4.24,3.44-5.1,15.02-3.75,21.92-2.17-7.83-1.65-29.29,7.34-29,.55,3.28,4.8-.54,5.54,1.85-1.68,8.57-14.08,14.9-11.99,27.61ZM39.71,52.17c-.75,3.24.67,8.9,2.77,13.37-2.06-2.72-4.72-9.94-4.72-14.49-1.13,4.3,2.43,11.53,4.26,14.49-7.51-7.67-9.5-18.25-.78-22.3,1.49,5.77-1.19,15.82,1.48,21.91-2.38-4.44-2.63-9.74-3.01-12.98ZM33.88,57.46c1.84,4.01,4.71,6.12,7.42,8.74-2.56-1.32-10.58-9.47-6.22-4.36-4.44-1.22-2.73-5.15-1.79-8.52,2.68,4.1,4.72,8.99,8.53,12.86-2.94-2.17-5.91-6.47-7.94-8.73ZM41.11,41.78l.02-.03s0,.04-.02.03ZM49.78,34.13s.05-.03.05,0c-.02,0-.03,0-.05,0ZM52.94,33.05s.11-.07.14-.07c-.04.02-.09.1-.14.07ZM53.87,33.07s.05-.04.07-.06c-.02.02-.03.06-.07.06ZM55.5,35.93s.03-.02.05-.02c-.02.01-.02.04-.05.02ZM57.3,31s.01,0,0,0c0,0,0,0,0,0ZM44.6,32.18s.06-.06.1-.08c-.03.02-.07.05-.1.08ZM36.91,40.15c-1.47,2.68-5.51-3.87-7.33-2.87-4.03,2.11,6.7,6.09,3.5,8.15-12.26-8.91-6.16-14.61,3.83-5.27ZM21.12,50.35s-.03-.04-.03-.06c0,.02.02.04.03.06ZM29.92,52.73c.53,3.93-10.52-2.29-7.71,2.92-10.33-4.33,4.93-5.23,7.71-2.92ZM29.01,57.69c.25,1.94-2.61-.61-3.69-.73,1.49.4,3.06.66,3.69.73ZM42.04,67.45c4.03-3.42,4.28,1,2.1,3.74-.39-1.31-1.12-2.56-2.1-3.74ZM46.49,84.2s0-.01,0-.02c0,0,.01.02,0,.02ZM57.24,95.21c-21.02-14.03-2.01-24.53-2.59-11.62-1.95,2.65-5.65-.63-2.79-2.5-6.81,4.14,9.14,10.04,6.77,16.23-.35-.73-.83-1.43-1.4-2.11ZM57.23,69.14c3.1-3.16,8.38-3.45,11.11.9,6.64-3.63,10.48,4.24,12.82,8.38-4.97-1.03-7.15-9.61-13.76-5.4-3.62-6.95-9.77-.6-14.59-2.21,1.36-.73,3.03-3.4,4.41-1.67ZM56.83,68.06c10.97-7.55,18.16-4.97,21.5,6.06-.59-4.39-5.96-7.12-9.94-4.72-2.77-5.33-8.51-2.56-11.55-1.33ZM75.22,79.32s-.04-.06-.06-.09c.04,0,.04.06.06.09ZM70.37,73.05s-.08-.05-.01-.06c0,.01.01.05.01.06ZM64.9,71.55s-.04.01-.07.02c.02-.02.04-.06.07-.02ZM57.59,74.52s-.07.03-.1.05c.03-.01.06-.07.1-.05ZM55.35,76.79c2.99-2.88,8.32-3.62,10.84.93,1.95-1.02,4.18-1.4,6.15-.32,2.04.94,2.92,2.97,3.36,4.92,4.07-1.78,7.89,2.53,6.05,6.6.04-3.6-5.13-6.37-7.93-3.4,1.55-4.48-5.65-8.73-8.64-4.2-.33-5.42-8.67-5.34-9.58-.69-.94-3.98-6.8-4.16-8.56-1.02.36-4.16,5.77-6.45,8.3-2.82ZM62.54,86.6c2.48-1.05,3.86,2.99,1.25,3.67-2.26.65-3.42-2.81-1.25-3.67ZM61.62,86.49s.02,0,.03-.01c-.01,0-.02.04-.03.01ZM63.07,85.32s.06-.04.1-.05c-.03.03-.06.05-.1.05ZM64.99,85.81s-.04-.08-.05-.12c.03.05.05.11.09.16-.01-.01-.02-.03-.04-.04ZM51.72,84.98s-.04.01-.06-.02c.02,0,.04.01.06.02ZM59.74,100.39c.25-6.48-5.92-15.17-2.83-21.01,2.03-3.49,9.22-1.1,7.51,3.57-1.08,4.72-8.04-.13-3.18-1.46-7.05-.9,3.02,13.8-1.51,18.9ZM60.78,88.1s0,0,0,0c0,0,0,0,0,0ZM60.63,86.44h0s0,0,0,0ZM60.37,100.56c-1.37-6.67,14.71-14.39,8.15-17.12,3.54,3.59-4.91,4.28-3.48-.33.86-4.89,8.28-3.38,8.29.67-.24,6.6-9.93,11.04-12.95,16.78ZM65.61,89.4s0,0,0,0c0,0,0,0,0,0ZM65.67,87.55s0,.01,0,0c0,.01.04.03,0,0ZM66.58,88.04h0s0,0,0,0ZM71.38,95.8c-2.87.37-6.03,1.09-8.51,2.66,1.04-6.54,17.82-3.68,13.98-10.67,1.54,3.06-3.3,4.04-3.66.77,6.26-11.83,14.12,7.3-1.81,7.24ZM75.03,91.23s.04,0,.06,0c-.03.02-.05.04-.06,0ZM79.95,93.15s0,0,0,0c0,0,0,.01,0,0ZM81.64,64.59c-.78-1.12-1.57-2.21-2.34-3.25,1.16,1.58,3.54,2.03,2.34,3.25ZM78.95,53.5l.03-.05s0,.09-.03.05ZM75.62,54.4c2.44-1.65,11.93,5.03,8.59,6.82-1.4-1.45-7.34-6.97-6.94-2.57-.78-1.3-2.98-2.75-1.65-4.25ZM73.3,55.39c.14-.04.27-.12.34-.25-.08.14-.2.21-.34.25,0,0,0,0,0,0ZM75.19,64.71c4.78,5.55,15.85,22.52,4.07,30.55,10.06-14.91-3-25.06-8.75-33.99-9.4,5.03-25.76,7.1-24.48,25.08-7.72-14.05,25.1-34.44,29.16-21.64ZM70.96,54.42c0,.15.07.28.17.39-.11-.11-.17-.23-.17-.39ZM82.43,42.75c-4.4,2.71-7.67,5.87-9.33,9.05.04-.11,4.82-17.72,4.86-17.87,3.26,1.15,4.59,6.58,4.47,8.82ZM72.88,35.54c.11-.08.22-.16.33-.24-.1.1-.21.17-.33.24ZM85.79,40.88c-5.23,3.47-4.83-17.62-16.58-2.17-3.9-10.8,17.33-13.49,16.58,2.17ZM85.76,31.9c-.41.08-1.93,1.94-2.09.75.51-.2,1.79-2.19,2.09-.75ZM85.12,30.95c-.41.12-1.77,2.09-2.02.9.51-.25,1.61-2.32,2.02-.9ZM83.88,29.46c1.22.38-1.11,2.66-1.41,1.64,0,0,1.41-1.64,1.41-1.64ZM83.62,29.18l-1.42,1.64c-.88-.25.98-2.92,1.42-1.64ZM82.78,28.43l-1.28,1.77c-.81-.19.68-3.07,1.28-1.77ZM81.83,27.72l-1.07,1.95c-.77-.11.27-3.22,1.07-1.95ZM80,26.82c1.45-.04.05,1.83-.02,2.44-1.12.08.04-1.98.02-2.44ZM78.79,26.6c1.39-.5.46,2.78-.38,2.23,0,0,.38-2.23.38-2.23ZM77.58,26.59c1.33-.7.67,2.51-.05,2.22,0,0,.05-2.22.05-2.22ZM77.19,26.62l-.05,2.2c-.8.49-1.15-2.74.05-2.2ZM76.02,26.79l.23,2.16c-.79.64-1.4-2.56-.23-2.16ZM74.93,27.06l.41,2.13c-.77.73-1.65-2.41-.41-2.13ZM73.82,27.44c-.02.45,1.13,2.38.04,2.32-.06-.58-1.41-2.35-.04-2.32ZM72.76,27.9l.76,2.04c-.64.85-2.01-2.14-.76-2.04ZM71.74,28.42l.92,1.99c-.61.95-2.16-1.99-.92-1.99ZM70.77,29c.08.45,1.67,2.13.54,2.3-.12-.51-1.81-2.1-.54-2.3ZM69.87,29.62c.09.43,1.75,2.09.66,2.3-.16-.51-1.94-2.01-.66-2.3ZM68.99,30.29c.12.45,1.88,2.01.77,2.29-.17-.5-2.01-1.95-.77-2.29ZM68.16,31.01l1.32,1.84c-.4,1.12-2.46-1.58-1.32-1.84ZM67.36,31.79c.15.42,2.01,1.86.98,2.23-.22-.48-2.12-1.75-.98-2.23ZM66.64,32.62c.17.4,2.03,1.73,1.07,2.14-.2-.43-2.07-1.66-1.07-2.14ZM65.93,33.63c.02-.6,1.46,1.5,1.54,1.44-.42.88-1.04-1.05-1.54-1.44ZM44.14,18.83c10.27-.44,35.49,25.89,26.11,35.06.94-11.55-12.64-29.87-26.11-33.26-12.19,2.81-26.94,20.52-26.11,33.25-9.39-9.17,15.85-35.49,26.11-35.06ZM6.53,19.54s.04,0,.05-.01c-.03.04-.05.04-.1.03.01,0,.03-.01.05-.02Z"/>
    <path class="cls-2" d="M38.09,170.31c2.07.18,1.79-1.42,1.76-2.99-1.37.78-2.83,1.24-1.76,2.99ZM39.61,167.71s0,.04-.01.04c-.02-.01,0-.03.01-.04Z"/>
    <path class="cls-2" d="M51.89,183.7c-4.59-10.5-2.24,2.13-2.19,5.71,3.98,6.02,5.89-2.1,2.19-5.71ZM50.07,186.11c.68.55,1.9.15,2.1-.71,1.84,3.28-2.19,4.35-2.24.6.04.04.09.08.13.11ZM52.97,190.41c-.66,1.68-3.03-.71-2.92-2.19.86,1.49,3.13.88,3.13-.84.55,1.07.47,2.2-.21,3.03Z"/>
    <path class="cls-2" d="M36.7,164.17c-1.58-.02-3.1-.32-3.01,1.74,1.74,1.12,2.24-.36,3.01-1.74ZM36.28,164.44s0-.02.03-.03c0,0-.02.02-.03.03Z"/>
    <path class="cls-2" d="M51.58,155.61c1.6-.03,3.09.33,3.01-1.75-1.72-1.13-2.27.37-3.01,1.75ZM52,155.33s0,.02-.03.03c0,0,.02-.02.03-.03Z"/>
    <path class="cls-2" d="M35.54,159.84c-1.43-.75-2.49-1.8-3.46.04.9,1.81,2.26.82,3.46-.04ZM35.05,159.89s0-.01.02,0c0,0-.01,0-.02,0Z"/>
  </g>
  <g>
    <path class="cls-2" d="M49.99,340.82c.21,0,.4.04.56.12s.29.21.38.38.14.38.14.64v1.53h-.48v-1.47c0-.26-.06-.45-.18-.58s-.29-.2-.5-.2c-.16,0-.3.03-.42.1-.12.07-.21.16-.28.29-.07.13-.1.29-.1.48v1.37h-.48v-1.47c0-.26-.06-.45-.18-.58-.12-.13-.29-.2-.51-.2-.16,0-.29.03-.42.1-.12.07-.21.16-.28.29-.07.13-.1.29-.1.48v1.37h-.48v-2.65h.46v.71l-.08-.18c.08-.17.21-.31.39-.41.17-.1.38-.14.6-.14.25,0,.47.06.66.19s.3.31.36.57l-.2-.08c.08-.2.22-.37.42-.49.2-.12.43-.18.7-.18Z"/>
    <path class="cls-2" d="M53.1,343.53c-.27,0-.5-.06-.71-.17-.21-.12-.37-.28-.49-.48-.12-.2-.18-.44-.18-.7s.06-.5.18-.7c.12-.2.28-.36.49-.48.21-.11.44-.17.71-.17s.5.06.71.17c.21.12.37.27.49.48.12.2.18.44.18.7s-.06.5-.18.7c-.12.2-.28.36-.49.48-.21.12-.44.17-.71.17ZM53.1,343.11c.17,0,.32-.04.46-.12.13-.08.24-.19.32-.33.08-.14.12-.31.12-.49s-.04-.35-.12-.49c-.08-.14-.18-.25-.32-.32-.13-.08-.29-.12-.46-.12s-.32.04-.46.12c-.13.08-.24.18-.32.32s-.12.3-.12.49.04.35.12.49c.08.14.19.25.32.33.13.08.29.12.46.12Z"/>
    <path class="cls-2" d="M56.23,343.53c-.26,0-.49-.06-.69-.17-.2-.11-.36-.27-.48-.48-.12-.2-.17-.44-.17-.71s.06-.51.17-.71c.12-.2.28-.36.48-.47.2-.11.43-.17.69-.17.22,0,.43.05.61.15.18.1.32.25.43.45s.16.45.16.75-.05.55-.16.75-.25.35-.43.45c-.18.1-.38.15-.62.15ZM56.27,343.11c.17,0,.32-.04.45-.12.13-.08.24-.19.32-.33.08-.14.12-.31.12-.49s-.04-.35-.12-.49c-.08-.14-.18-.25-.32-.32-.13-.08-.29-.12-.45-.12s-.32.04-.46.12c-.13.08-.24.18-.32.32s-.12.3-.12.49.04.35.12.49c.08.14.19.25.32.33.13.08.29.12.46.12ZM57.18,343.5v-.71l.03-.62-.05-.62v-1.76h.48v3.71h-.46Z"/>
    <path class="cls-2" d="M59.66,343.53c-.23,0-.43-.04-.6-.12-.17-.08-.3-.21-.4-.38-.09-.17-.14-.39-.14-.65v-1.53h.48v1.47c0,.26.06.46.19.58s.3.19.53.19c.17,0,.31-.03.43-.1.12-.07.22-.17.29-.3.07-.13.1-.29.1-.48v-1.37h.48v2.65h-.46v-.71l.08.19c-.09.18-.22.31-.39.41-.17.1-.37.15-.58.15Z"/>
    <path class="cls-2" d="M61.93,343.5v-3.71h.48v3.71h-.48Z"/>
    <path class="cls-2" d="M64.1,343.53c-.2,0-.37-.03-.52-.1-.15-.07-.26-.16-.34-.28s-.12-.25-.12-.4.03-.27.1-.39c.07-.12.18-.21.33-.28s.36-.11.63-.11h.84v.35h-.82c-.24,0-.4.04-.49.12-.08.08-.12.18-.12.29,0,.13.05.23.16.31.1.08.25.12.43.12s.34-.04.47-.12c.14-.08.23-.2.29-.35l.09.33c-.06.16-.17.28-.33.37s-.36.14-.6.14ZM64.97,343.5v-.56l-.02-.11v-.96c0-.2-.06-.36-.18-.47-.12-.11-.3-.17-.53-.17-.16,0-.31.03-.46.08-.15.05-.28.12-.38.21l-.2-.36c.14-.11.3-.19.49-.25.19-.06.39-.09.6-.09.36,0,.64.09.84.26.2.18.29.45.29.81v1.6h-.46Z"/>
    <path class="cls-2" d="M66.32,343.5v-2.65h.46v.72l-.04-.18c.07-.18.2-.32.37-.42.17-.1.39-.14.64-.14v.46s-.04,0-.06,0h-.05c-.26,0-.46.08-.61.23-.15.15-.23.38-.23.67v1.32h-.48Z"/>
  </g>
  <rect class="cls-1" x="13.18" y="3.76" width="18.25" height="9.08" rx="3.19" ry="3.19"/>
  <rect class="cls-1" x="56.34" y="3.76" width="18.25" height="9.08" rx="3.19" ry="3.19"/>
  <rect class="cls-1" x="13.27" y="351.01" width="18.25" height="9.08" rx="3.19" ry="3.19"/>
  <rect class="cls-1" x="56.57" y="350.96" width="18.25" height="9.08" rx="3.19" ry="3.19"/>
</svg>