<?xml version="1.0" encoding="UTF-8"?>
<svg id="f_cu_copy" data-name="f_cu copy" xmlns="http://www.w3.org/2000/svg" width="30.48mm" height="128.5mm" viewBox="0 0 86.4 364.25">
  <defs>
    <style>
      .cls-1 {
        fill: none;
        stroke: #00a651;
        stroke-miterlimit: 10;
        stroke-width: 2px;
      }

      .cls-2 {
        fill: #231f20;
        stroke-width: 0px;
      }
    </style>
  </defs>
  <g>
    <path class="cls-2" d="M49.99,340.82c.21,0,.4.04.56.12s.29.21.38.38.14.38.14.64v1.53h-.48v-1.47c0-.26-.06-.45-.18-.58s-.29-.2-.5-.2c-.16,0-.3.03-.42.1-.12.07-.21.16-.28.29-.07.13-.1.29-.1.48v1.37h-.48v-1.47c0-.26-.06-.45-.18-.58-.12-.13-.29-.2-.51-.2-.16,0-.29.03-.42.1-.12.07-.21.16-.28.29-.07.13-.1.29-.1.48v1.37h-.48v-2.65h.46v.71l-.08-.18c.08-.17.21-.31.39-.41.17-.1.38-.14.6-.14.25,0,.47.06.66.19s.3.31.36.57l-.2-.08c.08-.2.22-.37.42-.49.2-.12.43-.18.7-.18Z"/>
    <path class="cls-2" d="M53.1,343.53c-.27,0-.5-.06-.71-.17-.21-.12-.37-.28-.49-.48-.12-.2-.18-.44-.18-.7s.06-.5.18-.7c.12-.2.28-.36.49-.48.21-.11.44-.17.71-.17s.5.06.71.17c.21.12.37.27.49.48.12.2.18.44.18.7s-.06.5-.18.7c-.12.2-.28.36-.49.48-.21.12-.44.17-.71.17ZM53.1,343.11c.17,0,.32-.04.46-.12.13-.08.24-.19.32-.33.08-.14.12-.31.12-.49s-.04-.35-.12-.49c-.08-.14-.18-.25-.32-.32-.13-.08-.29-.12-.46-.12s-.32.04-.46.12c-.13.08-.24.18-.32.32s-.12.3-.12.49.04.35.12.49c.08.14.19.25.32.33.13.08.29.12.46.12Z"/>
    <path class="cls-2" d="M56.23,343.53c-.26,0-.49-.06-.69-.17-.2-.11-.36-.27-.48-.48-.12-.2-.17-.44-.17-.71s.06-.51.17-.71c.12-.2.28-.36.48-.47.2-.11.43-.17.69-.17.22,0,.43.05.61.15.18.1.32.25.43.45s.16.45.16.75-.05.55-.16.75-.25.35-.43.45c-.18.1-.38.15-.62.15ZM56.27,343.11c.17,0,.32-.04.45-.12.13-.08.24-.19.32-.33.08-.14.12-.31.12-.49s-.04-.35-.12-.49c-.08-.14-.18-.25-.32-.32-.13-.08-.29-.12-.45-.12s-.32.04-.46.12c-.13.08-.24.18-.32.32s-.12.3-.12.49.04.35.12.49c.08.14.19.25.32.33.13.08.29.12.46.12ZM57.18,343.5v-.71l.03-.62-.05-.62v-1.76h.48v3.71h-.46Z"/>
    <path class="cls-2" d="M59.66,343.53c-.23,0-.43-.04-.6-.12-.17-.08-.3-.21-.4-.38-.09-.17-.14-.39-.14-.65v-1.53h.48v1.47c0,.26.06.46.19.58s.3.19.53.19c.17,0,.31-.03.43-.1.12-.07.22-.17.29-.3.07-.13.1-.29.1-.48v-1.37h.48v2.65h-.46v-.71l.08.19c-.09.18-.22.31-.39.41-.17.1-.37.15-.58.15Z"/>
    <path class="cls-2" d="M61.93,343.5v-3.71h.48v3.71h-.48Z"/>
    <path class="cls-2" d="M64.1,343.53c-.2,0-.37-.03-.52-.1-.15-.07-.26-.16-.34-.28s-.12-.25-.12-.4.03-.27.1-.39c.07-.12.18-.21.33-.28s.36-.11.63-.11h.84v.35h-.82c-.24,0-.4.04-.49.12-.08.08-.12.18-.12.29,0,.13.05.23.16.31.1.08.25.12.43.12s.34-.04.47-.12c.14-.08.23-.2.29-.35l.09.33c-.06.16-.17.28-.33.37s-.36.14-.6.14ZM64.97,343.5v-.56l-.02-.11v-.96c0-.2-.06-.36-.18-.47-.12-.11-.3-.17-.53-.17-.16,0-.31.03-.46.08-.15.05-.28.12-.38.21l-.2-.36c.14-.11.3-.19.49-.25.19-.06.39-.09.6-.09.36,0,.64.09.84.26.2.18.29.45.29.81v1.6h-.46Z"/>
    <path class="cls-2" d="M66.32,343.5v-2.65h.46v.72l-.04-.18c.07-.18.2-.32.37-.42.17-.1.39-.14.64-.14v.46s-.04,0-.06,0h-.05c-.26,0-.46.08-.61.23-.15.15-.23.38-.23.67v1.32h-.48Z"/>
  </g>
  <rect class="cls-1" x="13.18" y="3.76" width="18.25" height="9.08" rx="3.19" ry="3.19"/>
  <rect class="cls-1" x="56.34" y="3.76" width="18.25" height="9.08" rx="3.19" ry="3.19"/>
  <rect class="cls-1" x="13.27" y="351.01" width="18.25" height="9.08" rx="3.19" ry="3.19"/>
  <rect class="cls-1" x="56.57" y="350.96" width="18.25" height="9.08" rx="3.19" ry="3.19"/>
</svg>