<?xml version="1.0" encoding="UTF-8"?>
<svg id="silk_screen" xmlns="http://www.w3.org/2000/svg" width="30.48mm" height="128.5mm" viewBox="0 0 86.4 364.25">
  <defs>
    <style>
      .cls-1 {
        fill: #231f20;
        stroke-width: 0px;
      }
    </style>
  </defs>
  <g>
    <path class="cls-1" d="M23.73,32.62c-.31,0-.6-.04-.89-.11s-.52-.19-.72-.34l.43-1.04c.28.23.64.35,1.09.35.35,0,.63-.11.82-.33.19-.22.29-.54.29-.97v-7.78h1.34v7.76c0,.76-.2,1.36-.61,1.8-.41.44-.99.67-1.76.67ZM25.43,20.97c-.26,0-.48-.08-.65-.25-.17-.17-.26-.37-.26-.62s.09-.46.26-.63c.17-.17.39-.25.65-.25s.48.08.65.25c.17.16.26.37.26.61s-.08.46-.25.64-.39.26-.66.26Z"/>
    <path class="cls-1" d="M30.83,29.9c-.55,0-1.03-.09-1.45-.28-.42-.19-.74-.45-.96-.78-.22-.33-.34-.71-.34-1.13s.1-.77.29-1.09.5-.59.94-.78c.43-.2,1.02-.29,1.76-.29h2.35v.97h-2.3c-.67,0-1.12.11-1.36.34-.23.22-.35.49-.35.81,0,.36.15.66.43.88.29.22.69.33,1.2.33s.94-.11,1.32-.34c.38-.22.65-.55.82-.98l.27.92c-.18.44-.49.79-.94,1.04-.45.26-1.01.38-1.69.38ZM33.27,29.82v-1.57l-.07-.29v-2.67c0-.57-.17-1.01-.5-1.32-.33-.31-.83-.47-1.49-.47-.44,0-.87.07-1.29.22-.42.14-.77.34-1.06.58l-.56-1.01c.38-.31.84-.54,1.38-.71.54-.16,1.1-.25,1.69-.25,1.02,0,1.8.25,2.35.74.55.49.83,1.25.83,2.27v4.48h-1.27Z"/>
    <path class="cls-1" d="M38.46,29.82l-2.76-7.42h1.27l2.45,6.72h-.6l2.55-6.72h1.13l2.49,6.72h-.59l2.5-6.72h1.21l-2.77,7.42h-1.29l-2.34-6.13h.39l-2.37,6.13h-1.29Z"/>
    <path class="cls-1" d="M51.41,29.9c-.55,0-1.03-.09-1.45-.28-.42-.19-.74-.45-.96-.78-.22-.33-.34-.71-.34-1.13s.1-.77.29-1.09c.19-.33.5-.59.94-.78.43-.2,1.02-.29,1.76-.29h2.35v.97h-2.3c-.67,0-1.12.11-1.36.34-.23.22-.35.49-.35.81,0,.36.14.66.43.88s.69.33,1.2.33.95-.11,1.32-.34.65-.55.82-.98l.27.92c-.18.44-.49.79-.94,1.04-.45.26-1.01.38-1.69.38ZM53.84,29.82v-1.57l-.07-.29v-2.67c0-.57-.17-1.01-.5-1.32-.33-.31-.83-.47-1.49-.47-.44,0-.87.07-1.29.22s-.78.34-1.06.58l-.56-1.01c.38-.31.84-.54,1.38-.71.54-.16,1.1-.25,1.69-.25,1.02,0,1.8.25,2.35.74s.83,1.25.83,2.27v4.48h-1.27Z"/>
    <path class="cls-1" d="M57.61,29.82v-7.42h1.29v2.02l-.13-.5c.21-.51.55-.9,1.04-1.18.49-.27,1.08-.41,1.79-.41v1.3c-.06,0-.11-.01-.16-.01h-.15c-.72,0-1.29.21-1.71.64-.42.43-.63,1.05-.63,1.86v3.7h-1.34Z"/>
    <path class="cls-1" d="M63.92,20.97c-.26,0-.48-.08-.65-.25s-.26-.37-.26-.62.09-.46.26-.63.39-.25.65-.25.48.08.65.25c.17.16.26.37.26.61s-.08.46-.25.64c-.17.17-.39.26-.66.26ZM63.25,29.82v-7.42h1.34v7.42h-1.34Z"/>
  </g>
  <g>
    <path class="cls-1" d="M30.11,78.04v-4.9h-1.92v-.7h4.63v.7h-1.92v4.9h-.79Z"/>
    <path class="cls-1" d="M35.91,78.1c-.74,0-1.31-.21-1.74-.63s-.63-1.04-.63-1.85v-3.18h.8v3.15c0,.62.14,1.08.41,1.37.27.29.66.43,1.16.43s.9-.14,1.17-.43c.27-.29.41-.74.41-1.37v-3.15h.78v3.18c0,.81-.21,1.43-.63,1.85-.42.42-1,.63-1.74.63Z"/>
    <path class="cls-1" d="M39.92,78.04v-5.6h.66l3.7,4.6h-.34v-4.6h.8v5.6h-.66l-3.7-4.6h.34v4.6h-.8Z"/>
    <path class="cls-1" d="M46.41,78.04v-5.6h.8v5.6h-.8Z"/>
    <path class="cls-1" d="M48.89,78.04v-5.6h.66l3.7,4.6h-.34v-4.6h.8v5.6h-.66l-3.7-4.6h.34v4.6h-.8Z"/>
    <path class="cls-1" d="M57.92,78.1c-.43,0-.83-.07-1.19-.21-.36-.14-.68-.34-.94-.6-.27-.26-.47-.56-.62-.91s-.22-.73-.22-1.14.08-.8.22-1.14.36-.65.63-.91c.27-.26.58-.46.95-.6.36-.14.76-.21,1.2-.21s.85.07,1.22.22c.37.14.68.36.94.65l-.5.5c-.23-.22-.48-.39-.75-.49s-.56-.16-.88-.16-.62.05-.89.16c-.28.11-.51.26-.71.45-.2.19-.35.42-.46.68-.11.26-.16.55-.16.86s.05.59.16.85c.11.26.26.49.46.69.2.19.44.35.71.45.27.11.57.16.89.16.3,0,.58-.05.86-.14.28-.09.53-.25.76-.47l.46.61c-.28.23-.6.41-.97.53-.37.12-.75.18-1.15.18ZM59.27,77.29v-2.08h.77v2.18l-.77-.1Z"/>
  </g>
  <g>
    <path class="cls-1" d="M32.72,130.33c-.43,0-.83-.07-1.22-.2-.39-.13-.7-.3-.92-.51l.3-.62c.21.19.49.34.82.46.33.12.67.18,1.03.18.33,0,.59-.04.79-.11.2-.07.35-.18.45-.31.1-.13.14-.28.14-.44,0-.19-.06-.35-.19-.46s-.29-.21-.49-.28c-.2-.07-.42-.13-.66-.19-.24-.05-.48-.12-.72-.19s-.46-.16-.66-.28c-.2-.11-.36-.26-.48-.45s-.18-.43-.18-.73.08-.55.23-.8c.15-.24.39-.44.7-.58.32-.15.72-.22,1.21-.22.33,0,.65.04.97.13.32.09.6.21.83.37l-.26.64c-.24-.16-.49-.28-.76-.35-.27-.07-.53-.11-.78-.11-.31,0-.57.04-.78.12-.2.08-.35.19-.44.32-.09.13-.14.28-.14.45,0,.2.06.35.19.47.12.12.29.21.49.28.2.07.42.13.66.19.24.06.48.12.72.19s.46.16.66.27c.2.11.36.26.48.45.12.19.18.43.18.72s-.08.55-.23.79c-.15.24-.39.44-.72.58-.32.15-.73.22-1.22.22Z"/>
    <path class="cls-1" d="M36.86,130.26h-.8v-5.6h.8v5.6ZM40.15,127.77h-3.37v-.7h3.37v.7ZM40.07,124.66h.8v5.6h-.8v-5.6Z"/>
    <path class="cls-1" d="M41.71,130.26l2.54-5.6h.79l2.54,5.6h-.84l-2.26-5.15h.32l-2.26,5.15h-.82ZM42.79,128.86l.22-.64h3.15l.23.64h-3.6Z"/>
    <path class="cls-1" d="M48.41,130.26v-5.6h2.18c.49,0,.91.08,1.26.23.35.15.61.38.8.67.19.29.28.64.28,1.05s-.09.75-.28,1.04-.45.51-.8.67c-.35.16-.77.24-1.26.24h-1.74l.36-.38v2.07h-.8ZM49.21,128.27l-.36-.4h1.72c.51,0,.9-.11,1.16-.33.26-.22.4-.53.4-.93s-.13-.71-.4-.93c-.26-.22-.65-.33-1.16-.33h-1.72l.36-.4v3.31Z"/>
    <path class="cls-1" d="M54.91,129.57h3.26v.7h-4.06v-5.6h3.95v.7h-3.15v4.21ZM54.83,127.08h2.88v.68h-2.88v-.68Z"/>
  </g>
  <g>
    <path class="cls-1" d="M34.84,187.15v-5.6h.66l2.51,4.23h-.35l2.48-4.23h.66v5.6s-.76,0-.76,0v-4.39s.18,0,.18,0l-2.21,3.71h-.37l-2.22-3.71h.2v4.39h-.77Z"/>
    <path class="cls-1" d="M42.48,187.15v-5.6h.8v5.6h-.8Z"/>
    <path class="cls-1" d="M46.59,187.21c-.43,0-.83-.07-1.22-.2-.39-.13-.7-.3-.92-.51l.3-.62c.21.19.49.34.82.46.33.12.67.18,1.03.18.33,0,.59-.04.79-.11.2-.07.35-.18.45-.31.1-.13.14-.28.14-.44,0-.19-.06-.35-.19-.46-.12-.12-.29-.21-.49-.28-.2-.07-.42-.13-.66-.19-.24-.05-.48-.12-.72-.19-.24-.07-.46-.16-.66-.28-.2-.11-.36-.26-.48-.45-.12-.19-.18-.43-.18-.73s.08-.55.23-.8.39-.44.7-.58c.32-.15.72-.22,1.21-.22.33,0,.65.04.97.13.32.09.6.21.83.37l-.26.64c-.24-.16-.49-.28-.76-.35-.27-.07-.53-.11-.78-.11-.31,0-.57.04-.78.12-.2.08-.35.19-.44.32-.09.13-.14.28-.14.45,0,.2.06.36.19.47.12.12.29.21.49.28.2.07.42.13.66.19.24.06.48.12.72.19.24.07.46.16.66.27.2.11.36.26.48.45s.18.43.18.72-.08.55-.23.79c-.15.24-.39.44-.72.58-.32.15-.73.22-1.22.22Z"/>
    <path class="cls-1" d="M52.43,187.21c-.43,0-.82-.07-1.18-.21-.36-.14-.67-.34-.94-.6-.26-.26-.47-.56-.62-.91s-.22-.73-.22-1.14.07-.8.22-1.14c.15-.35.36-.65.62-.91s.58-.46.94-.6c.36-.14.75-.21,1.18-.21s.83.07,1.2.22c.37.15.68.36.93.65l-.52.5c-.21-.22-.45-.39-.72-.5-.27-.11-.55-.16-.86-.16s-.61.05-.88.16c-.27.11-.5.26-.7.45-.2.19-.35.42-.46.68s-.16.55-.16.86.05.6.16.86c.11.26.26.49.46.68.2.19.43.34.7.45.27.11.56.16.88.16s.59-.05.86-.16c.27-.11.51-.28.72-.51l.52.5c-.26.29-.57.51-.93.66s-.77.22-1.2.22Z"/>
  </g>
  <g>
    <path class="cls-1" d="M35.28,200.34c-.32,0-.63-.05-.92-.15s-.52-.23-.69-.38l.22-.47c.16.14.36.26.61.35s.51.14.77.14c.24,0,.44-.03.59-.08.15-.06.26-.13.34-.23.07-.1.11-.21.11-.33,0-.14-.05-.26-.14-.35-.09-.09-.22-.16-.37-.21-.15-.05-.31-.1-.49-.14-.18-.04-.36-.09-.54-.14-.18-.05-.35-.12-.5-.21s-.27-.2-.36-.34c-.09-.14-.14-.32-.14-.55s.06-.42.17-.6c.11-.18.29-.33.53-.44.24-.11.54-.17.91-.17.24,0,.49.03.73.1.24.06.45.16.62.28l-.2.48c-.18-.12-.37-.21-.57-.26-.2-.05-.39-.08-.58-.08-.24,0-.43.03-.58.09-.15.06-.26.14-.33.24-.07.1-.1.21-.1.34,0,.15.05.27.14.35.09.09.22.16.37.21s.31.1.5.14.36.09.54.14.35.12.5.2.27.2.36.34c.09.14.14.32.14.54s-.06.41-.17.59c-.12.18-.3.33-.54.44-.24.11-.55.17-.92.17Z"/>
    <path class="cls-1" d="M38.56,200.29v-3.68h-1.44v-.52h3.47v.52h-1.44v3.68h-.59Z"/>
    <path class="cls-1" d="M41.24,200.29v-4.2h1.64c.37,0,.68.06.94.17.26.12.46.28.6.5.14.22.21.48.21.79s-.07.56-.21.78c-.14.22-.34.39-.6.5-.26.12-.57.17-.94.17h-1.31l.27-.28v1.55h-.6ZM41.84,198.79l-.27-.29h1.29c.38,0,.67-.08.87-.25.2-.17.3-.4.3-.7s-.1-.53-.3-.7c-.2-.16-.49-.25-.87-.25h-1.29l.27-.3v2.48ZM44.05,200.29l-1.07-1.52h.64l1.08,1.52h-.65Z"/>
    <path class="cls-1" d="M47.35,200.34c-.55,0-.99-.16-1.3-.47s-.47-.78-.47-1.39v-2.39h.6v2.36c0,.47.1.81.31,1.03s.5.32.87.32.67-.11.88-.32.31-.56.31-1.03v-2.36h.58v2.39c0,.61-.16,1.07-.47,1.39-.31.32-.75.47-1.3.47Z"/>
    <path class="cls-1" d="M50.35,200.29v-4.2h.49l1.88,3.17h-.26l1.86-3.17h.49v4.2s-.57,0-.57,0v-3.29s.13,0,.13,0l-1.66,2.78h-.28l-1.67-2.78h.15v3.29h-.58Z"/>
  </g>
  <path class="cls-1" d="M12.75,218.43l1.9-4.2h.59l1.91,4.2h-.63l-1.7-3.86h.24l-1.7,3.86h-.62ZM13.56,217.38l.16-.48h2.36l.17.48h-2.7Z"/>
  <path class="cls-1" d="M44,239.23c-.32,0-.61-.05-.88-.16-.27-.11-.5-.26-.7-.45-.2-.19-.35-.42-.46-.68-.11-.26-.17-.55-.17-.86s.06-.6.17-.86c.11-.26.27-.49.47-.68.2-.19.44-.34.71-.45.27-.11.56-.16.89-.16s.62.06.9.17c.27.11.51.27.7.49l-.39.38c-.16-.17-.34-.29-.54-.38-.2-.08-.41-.12-.64-.12s-.45.04-.66.12c-.2.08-.38.19-.52.34-.15.14-.26.32-.34.51-.08.2-.12.41-.12.65s.04.45.12.64c.08.2.2.37.34.51.15.14.32.26.52.34.2.08.42.12.66.12s.44-.04.64-.12c.2-.08.38-.21.54-.38l.39.38c-.19.22-.42.38-.7.49-.27.11-.58.17-.9.17Z"/>
  <path class="cls-1" d="M42.06,280.49v-4.2h.6v3.68h2.27v.52h-2.87Z"/>
  <path class="cls-1" d="M41.66,319.17v-4.2h1.64c.37,0,.68.06.94.17.26.12.46.28.6.5.14.22.21.48.21.79s-.07.56-.21.78c-.14.22-.34.39-.6.5-.26.12-.57.17-.94.17h-1.31l.27-.28v1.55h-.6ZM42.26,317.67l-.27-.29h1.29c.38,0,.67-.08.87-.25s.3-.4.3-.7-.1-.53-.3-.7-.49-.25-.87-.25h-1.29l.27-.3v2.48ZM44.47,319.17l-1.07-1.52h.64l1.08,1.52h-.65Z"/>
  <path class="cls-1" d="M69.34,218.86v-4.2h1.88c.48,0,.86.1,1.12.29.26.19.39.46.39.79,0,.23-.05.42-.15.58-.1.16-.24.28-.41.36s-.36.13-.56.13l.11-.18c.24,0,.45.04.64.13.18.08.33.21.44.37.11.16.16.36.16.6,0,.36-.13.64-.41.84-.27.2-.67.3-1.2.3h-2ZM69.94,218.38h1.38c.33,0,.59-.06.76-.17s.26-.29.26-.53-.09-.42-.26-.53c-.18-.11-.43-.17-.76-.17h-1.43v-.49h1.28c.3,0,.54-.06.71-.17s.25-.28.25-.5-.08-.39-.25-.5c-.17-.11-.4-.17-.71-.17h-1.23v3.23Z"/>
  <g>
    <path class="cls-1" d="M47.68,338.71c-.26,0-.52-.04-.75-.11-.24-.07-.43-.16-.56-.26l.24-.46c.14.09.3.17.5.23.2.06.4.1.61.1.27,0,.46-.04.58-.11.12-.08.18-.18.18-.32,0-.1-.04-.18-.11-.23-.07-.06-.17-.1-.29-.13-.12-.03-.25-.05-.39-.08-.14-.02-.29-.05-.43-.08-.14-.03-.28-.08-.4-.14-.12-.06-.22-.15-.29-.26-.07-.11-.11-.26-.11-.44s.05-.36.16-.5c.11-.14.26-.25.46-.33.2-.08.43-.12.7-.12.21,0,.42.03.63.08s.39.12.52.21l-.25.46c-.14-.1-.29-.16-.45-.2-.16-.04-.31-.05-.47-.05-.25,0-.44.04-.56.12s-.19.19-.19.31c0,.11.04.19.11.25.07.06.17.1.29.13.12.03.25.06.39.08.14.02.29.05.43.08.14.03.27.08.39.14.12.06.21.14.29.25.07.11.11.25.11.43,0,.19-.06.36-.17.5-.11.14-.27.25-.47.33s-.45.12-.73.12Z"/>
    <path class="cls-1" d="M51.19,338.71c-.34,0-.64-.07-.9-.21-.26-.14-.46-.33-.6-.58-.14-.24-.21-.52-.21-.84s.07-.6.21-.84c.14-.24.33-.44.57-.57.24-.14.52-.21.82-.21s.58.07.82.2c.24.14.42.33.55.57s.2.53.2.86c0,.02,0,.05,0,.08,0,.03,0,.06,0,.09h-2.71v-.41h2.41l-.23.14c0-.2-.04-.39-.13-.55s-.21-.29-.36-.38-.33-.13-.54-.13-.38.04-.53.13c-.16.09-.28.22-.37.38-.09.16-.13.35-.13.55v.1c0,.21.05.4.15.57.1.17.23.29.41.39.18.09.38.14.61.14.19,0,.36-.03.51-.1.15-.06.29-.16.4-.29l.32.37c-.14.17-.32.3-.54.38s-.45.13-.72.13Z"/>
    <path class="cls-1" d="M54.28,338.71c-.24,0-.44-.04-.62-.12s-.31-.19-.41-.33c-.1-.14-.14-.3-.14-.48s.04-.33.12-.47c.08-.14.22-.25.4-.34.19-.08.44-.13.75-.13h1.01v.41h-.98c-.29,0-.48.05-.58.14-.1.1-.15.21-.15.35,0,.16.06.28.19.38s.3.14.52.14.41-.05.57-.14c.16-.1.28-.24.35-.42l.11.4c-.08.19-.21.34-.4.45-.19.11-.43.17-.73.17ZM55.33,338.68v-.67l-.03-.13v-1.15c0-.24-.07-.43-.21-.57-.14-.13-.35-.2-.64-.2-.19,0-.37.03-.55.09-.18.06-.33.15-.46.25l-.24-.43c.16-.13.36-.23.59-.3.23-.07.47-.1.72-.1.44,0,.77.11,1.01.32.24.21.35.54.35.97v1.92h-.55Z"/>
    <path class="cls-1" d="M57.85,338.71c-.26,0-.52-.04-.75-.11-.24-.07-.42-.16-.56-.26l.24-.46c.14.09.3.17.5.23.2.06.4.1.61.1.27,0,.46-.04.58-.11.12-.08.18-.18.18-.32,0-.1-.04-.18-.11-.23s-.17-.1-.29-.13-.25-.05-.39-.08c-.14-.02-.29-.05-.43-.08-.14-.03-.28-.08-.4-.14-.12-.06-.22-.15-.29-.26-.07-.11-.11-.26-.11-.44s.05-.36.16-.5c.11-.14.26-.25.46-.33.2-.08.43-.12.71-.12.21,0,.42.03.63.08.21.05.39.12.53.21l-.25.46c-.14-.1-.29-.16-.45-.2s-.31-.05-.47-.05c-.25,0-.44.04-.56.12-.12.08-.19.19-.19.31,0,.11.04.19.11.25.07.06.17.1.29.13.12.03.25.06.39.08.14.02.29.05.43.08.14.03.28.08.39.14.12.06.21.14.29.25.07.11.11.25.11.43,0,.19-.05.36-.17.5-.11.14-.27.25-.47.33-.21.08-.45.12-.73.12Z"/>
    <path class="cls-1" d="M60.24,334.89c-.11,0-.21-.04-.28-.11-.07-.07-.11-.16-.11-.26s.04-.2.11-.27c.07-.07.17-.11.28-.11s.21.04.28.11c.07.07.11.16.11.26s-.04.2-.11.27c-.07.07-.17.11-.28.11ZM59.95,338.68v-3.18h.58v3.18h-.58Z"/>
    <path class="cls-1" d="M62.94,338.71c-.31,0-.58-.07-.83-.2s-.43-.33-.57-.57-.21-.53-.21-.85.07-.61.21-.85c.14-.24.33-.43.57-.57s.52-.2.83-.2c.27,0,.51.06.73.18s.39.3.52.54c.13.24.19.54.19.9s-.06.66-.19.9c-.13.24-.3.42-.51.54-.22.12-.46.18-.74.18ZM62.98,338.21c.2,0,.38-.05.54-.14.16-.09.29-.22.38-.39s.14-.37.14-.59-.05-.42-.14-.59-.22-.29-.38-.39c-.16-.09-.34-.14-.54-.14s-.39.05-.55.14c-.16.09-.29.22-.38.39-.1.17-.14.36-.14.59s.05.42.14.59c.1.17.22.3.38.39.16.09.34.14.55.14ZM64.07,338.68v-.86l.04-.74-.06-.74v-2.12h.58v4.45h-.55Z"/>
    <path class="cls-1" d="M67.13,338.71c-.34,0-.64-.07-.9-.21-.26-.14-.46-.33-.6-.58-.14-.24-.21-.52-.21-.84s.07-.6.21-.84.33-.44.57-.57c.24-.14.51-.21.82-.21s.58.07.82.2.42.33.55.57.2.53.2.86c0,.02,0,.05,0,.08,0,.03,0,.06,0,.09h-2.71v-.41h2.41l-.23.14c0-.2-.04-.39-.13-.55s-.21-.29-.36-.38c-.15-.09-.33-.13-.54-.13s-.38.04-.53.13c-.16.09-.28.22-.37.38s-.13.35-.13.55v.1c0,.21.05.4.15.57s.24.29.41.39c.18.09.38.14.61.14.19,0,.36-.03.51-.1.15-.06.29-.16.41-.29l.32.37c-.14.17-.32.3-.54.38s-.45.13-.72.13Z"/>
  </g>
</svg>